<svg xmlns="http://www.w3.org/2000/svg" viewBox="0 0 5.4426 6.2122" data-mushaf="warsh" data-asset="page-frame" data-variant="color" data-source-file="warsh.pdf" data-source-page="300" data-source-url="https://dn711007.ca.archive.org/0/items/Warsh-HD/warsh39-1.pdf" data-source-box="65 185 1307 2004" data-slice="edge-v" data-frame-viewbox="0 0 68.3168 100" data-repeat="6.2122">
<metadata>{"mushaf": "warsh", "riwaya": "Warsh 'an Nafi'", "file": "warsh.pdf", "sha256": "f33a6e55530548d9cbf7e0ab6d8154ba46eea12d227208ce849915b808850074", "url": "https://dn711007.ca.archive.org/0/items/Warsh-HD/warsh39-1.pdf", "archive_item": "Warsh-HD", "archive_url": "https://archive.org/details/Warsh-HD", "pdf_page": 300, "crop_box_px": [65, 185, 1307, 2004], "occurrence": 0, "occurrences_on_page": 1, "pipeline": "quran-assets 3011d73", "pipeline_sha256": "cb8d14caa65815e6eb7c1ba1137bdbc9c5f4ed1c90b89aad7ee822a28981c3e2", "extracted": "2026-09-10T02:07:47+0300"}</metadata>
<g transform="scale(0.0275)">
<g class="c1" data-part="c1" fill="#ffffff">
<path d="M 38 0 C 90.8 0 143.6 0 198 0 C 198 74.58 198 149.16 198 226 C 145.2 226 92.4 226 38 226 C 38 223.03 38 220.06 38 217 C 39.32 217.66 40.64 218.32 42 219 C 49.18 214.94 55.58 210.16 62 205 C 61.12 200.61 59.95 197.17 58.25 193.06 C 56.17 188 54.31 182.95 52.62 177.75 C 49.41 168.72 45.11 161.41 36.56 156.69 C 32 154 32 154 30.86 151.34 C 31.07 146.28 33.64 143.79 36.75 139.88 C 37.29 139.18 37.29 139.18 40.05 135.68 C 41.02 134.47 42 133.25 43 132 C 43.5 131.34 43.5 131.34 46 128 C 42.28 123.48 38.82 119.73 34.06 116.31 C 30 113 30 113 30 108 C 32.48 105.28 32.48 105.28 35.75 102.5 C 39.58 99.2 42.97 96.06 46 92 C 45.42 91.38 44.84 90.77 44.24 90.13 C 31 75.77 31 75.77 31 68 C 33.93 65.9 36.94 63.91 40 62 C 50.21 53.18 54.09 40.2 57.75 27.67 C 59 24 59 24 62 19 C 59.88 10.5 48.56 5.34 41 2 C 40.01 2.66 39.02 3.32 38 4 C 38 2.68 38 1.36 38 0 Z M 171 16 C 171.66 17.32 172.32 18.64 173 20 C 173.66 21.65 174.32 23.3 175 25 C 175.33 25 175.66 25 176 25 C 176 21.04 176 17.08 176 13 C 174 13 174 13 171 16 Z M 149 34 C 148.31 37.56 148.31 37.56 148 41 C 145.63 44.59 143.5 46.37 140 49 C 140.91 49.41 141.81 49.83 142.75 50.25 C 146 52 146 52 150 56 C 158.29 49.94 161.65 42.22 162 32 C 161.34 30.68 160.68 29.36 160 28 C 154.44 28 152.79 30.07 149 34 Z M 74 30 C 74.59 39.84 74.59 39.84 79 44 C 80.32 44.66 81.64 45.32 83 46 C 82.76 52.46 82.76 52.46 79.38 54.88 C 76 56 76 56 72.64 56.21 C 67.92 57.23 66.51 59.09 63.44 62.75 C 59.87 66.95 56.32 70.57 52 74 C 53 78 53 78 56 81 C 60 79 60 79 63.5 75.69 C 68.09 71.93 71.84 70.22 77.36 68.34 C 81.65 66.16 82.82 62.82 83.81 58.31 C 84.88 54.42 86.02 52.1 88.12 48.75 C 91 44 91 44 91 40 C 88.56 38.46 86.12 36.93 83.58 35.56 C 81 34 81 34 77 30 C 76.01 30 75.02 30 74 30 Z M 100 64 C 98.05 69.33 97 73.32 97 79 C 104.38 78.75 104.38 78.75 107.5 74.94 C 108 73.97 108.49 73 109 72 C 112.01 72.6 115.02 73.25 118 74 C 118.99 73.34 119.98 72.68 121 72 C 126.63 71.55 128.36 71.52 133 75 C 134.79 75.23 136.59 75.45 138.44 75.69 C 145.25 77.29 145.77 79.1 149 85 C 154 85 154 85 156 83.19 C 163.66 70.98 163.66 70.98 162 66 C 160.82 66.78 159.65 67.57 158.44 68.38 C 152.4 71.94 147.04 73.85 140 73 C 131.44 69.11 131.44 69.11 129 63 C 129.27 57.99 130.56 54.36 133 50 C 119.34 49.2 108.15 52.77 100 64 Z M 175 81 C 173.93 82.79 172.89 84.61 171.88 86.44 C 169.51 90.62 167.27 93.86 164.12 97.56 C 159.7 103.85 159.42 109.2 160.56 116.69 C 162.44 121.02 165.1 124.28 168 128 C 169.29 129.99 170.56 131.99 171.81 134 C 172.86 135.65 173.92 137.3 175 139 C 175.33 139 175.66 139 176 139 C 176 119.86 176 100.72 176 81 C 175.67 81 175.34 81 175 81 Z M 70 90 C 72.97 95.95 76.92 96.51 83 99 C 83.66 99 84.32 99 85 99 C 85.39 97.93 85.78 96.86 86.19 95.75 C 88 92 88 92 90.69 89.88 C 93 88 93 88 93 83 C 83.6 81.12 76.91 83.44 70 90 Z M 112 91 C 111.67 91.99 111.34 92.98 111 94 C 110.34 94.66 109.68 95.32 109 96 C 110.65 97.65 112.3 99.3 114 101 C 113.34 102.98 112.68 104.96 112 107 C 110.02 105.68 108.04 104.36 106 103 C 103.36 104.98 100.72 106.96 98 109 C 99.13 113.53 100.64 114.9 104 118 C 109 116 109 116 110 115 C 110.66 116.32 111.32 117.64 112 119 C 112.99 119.33 113.98 119.66 115 120 C 114.34 120.33 114.34 120.33 111 122 C 110.34 123.32 109.68 124.64 109 126 C 109.66 126.33 110.32 126.66 111 127 C 111.66 128.32 112.32 129.64 113 131 C 117.58 132.46 120.61 131.78 125 130 C 124.79 129.09 124.59 128.19 124.38 127.25 C 124 124 124 124 126 120 C 126.99 119.67 127.98 119.34 129 119 C 129.33 120.65 129.66 122.3 130 124 C 133 127 133 127 136.56 126.81 C 140 126 140 126 142 124 C 142.08 121 142.09 118 142 115 C 136.25 112.88 136.25 112.88 134 114 C 134.33 112.02 134.66 110.04 135 108 C 137.31 107.34 139.62 106.68 142 106 C 142.69 102.19 142.69 102.19 143 98 C 139.28 94.28 137.1 94.42 132 94 C 129 98 129 98 129 102 C 127 101 127 101 126 98 C 125.34 97.67 124.68 97.34 124 97 C 124.33 95.02 124.66 93.04 125 91 C 119.94 89.18 116.91 88.54 112 91 Z M 51 111 C 52.98 112.98 54.96 114.96 57 117 C 61.21 115.31 64.32 113.57 68 111 C 60 103 58.09 102.17 51 111 Z M 75.81 125 C 75.27 125.28 75.27 125.28 72.52 126.69 C 71.69 127.12 70.86 127.55 70 128 C 71.31 133.25 73.54 134.15 78 137 C 82.9 138.63 87.86 138.06 93 138 C 92.81 134.69 92.81 134.69 92 131 C 91.17 130.5 91.17 130.5 87 128 C 85.69 124.81 85.69 124.81 85 122 C 81.21 122 79.17 123.27 75.81 125 Z M 146.31 139.38 C 145.55 140.57 144.79 141.77 144 143 C 141 145 141 145 137.06 145.44 C 133 146 133 146 129 149 C 123.08 149.56 121.26 149.16 116 146 C 115.01 146.99 114.02 147.98 113 149 C 108 148 108 148 105 143 C 100.81 142.19 100.81 142.19 97 142 C 97.59 154.05 100.32 159.7 110 167 C 117.44 170.38 124.95 170.67 133 171 C 132.32 169.82 131.64 168.65 130.94 167.44 C 128.31 161.43 128.73 158.4 131.75 152.69 C 136.43 147.09 142.23 147.52 149 148 C 153.81 149.94 153.81 149.94 158 152 C 159.65 152.33 161.3 152.66 163 153 C 162.11 148.56 161.16 146.09 159 142.25 C 158.46 141.29 157.93 140.32 157.38 139.33 C 156 137 156 137 155 136 C 149 136 149 136 146.31 139.38 Z M 52 145 C 53 148 53 148 55.69 149.75 C 60.46 152.99 63.67 157.38 67.31 161.81 C 70.93 164.76 74.48 165.05 79 166 C 83 170 83 170 83 176 C 81.35 176.66 79.7 177.32 78 178 C 74.22 182.49 74 183.84 74 190 C 78.49 190 80.97 187.3 84.48 184.76 C 87.2 182.86 89.97 181.35 93 180 C 92.44 179.22 91.89 178.43 91.31 177.62 C 86.43 169.98 83.41 162.99 82 154 C 80.66 153.59 79.32 153.18 77.94 152.75 C 71.67 150.53 66.99 147.74 61.69 143.75 C 56.85 140.15 56.85 140.15 52 145 Z M 149 164 C 148.01 165.65 147.02 167.3 146 169 C 145.34 169.33 145.34 169.33 142 171 C 142 171.99 142 172.98 142 174 C 142.66 174.33 142.66 174.33 146 176 C 148 181 148 181 148.69 184.5 C 150.43 189.14 152.75 190.61 157 193 C 160 192 160 192 162 187 C 160.71 175.77 157.64 170.98 149 164 Z M 175 197 C 173.68 199.64 172.36 202.28 171 205 C 174 208 174 208 176 208 C 176 204.37 176 200.74 176 197 C 175.67 197 175.34 197 175 197 Z"/>
</g>
<g class="c2" data-part="c2" fill="#dbdbdb">
<path d="M 72 21 C 73.98 21 75.96 21 78 21 C 78.66 22.32 79.32 23.64 80 25 C 86.75 31.09 92.34 34.33 101 37 C 101 44.36 100.28 43.72 95 48 C 91.29 53.44 89.75 57.98 88.75 64.38 C 87.54 70.72 87.54 70.72 82.81 73.12 C 81.22 73.41 79.64 73.7 78 74 C 69.44 77.53 63.45 83.55 57 90 C 51.95 90.58 49.14 90.81 44.94 87.81 C 43 85 43 85 43 80 C 43.76 80.78 44.53 81.57 45.31 82.38 C 48 85 48 85 51 87 C 51 84 51 84 47.5 80.12 C 44 76 44 76 44 71 C 46.43 69.46 48.87 67.93 51.39 66.53 C 57.47 62.97 60.76 58.11 64 52 C 66.27 49.73 71.98 50.96 75 51 C 73.96 46.84 72.7 45.21 70 42 C 67.31 36.62 68.38 28.57 70.5 23.19 C 71 22.47 71.49 21.74 72 21 Z"/>
<path d="M 58 132 C 62 135.62 62 135.62 66 140 C 72.32 144.32 77.51 146.59 85 148 C 87.7 150.7 87.66 152.88 88.31 156.62 C 89.91 164.45 92.5 169.6 98.31 175.19 C 101 178 101 178 101 183 C 100.11 183.4 99.21 183.8 98.29 184.21 C 90.81 187.73 84.99 191.26 79.28 197.28 C 77 199 77 199 71 199 C 68.04 191.09 67.23 183.22 71.38 175.69 C 74 173 74 173 76 173 C 76 172.01 76 171.02 76 170 C 74.33 170.21 72.66 170.41 70.94 170.62 C 62.82 169.77 61.84 166.63 58 160 C 53.98 155.35 49.15 152.31 44 149 C 45.22 142.9 47.9 140.55 52 136 C 52 135.34 52 134.68 52 134 C 48.1 135.95 45.96 137.87 43 141 C 43.82 131.73 49.59 130.9 58 132 Z"/>
</g>
<g class="c3" data-part="c3" fill="#e8b0c1">
<path d="M 182 4 C 182 13.57 182 23.14 182 33 C 178.7 33 175.4 33 172 33 C 167 24.38 167 24.38 167 21 C 166.01 21.66 165.02 22.32 164 23 C 164.39 23.66 164.39 23.66 166.38 27 C 172 37.71 171.64 45.91 167 57 C 167.66 57.16 167.66 57.16 171 58 C 170.12 70.38 166.78 78.89 160 89 C 158.65 91.32 157.31 93.65 156 96 C 163.88 90.9 167.5 81.34 171 73 C 174.63 73 178.26 73 182 73 C 182 97.42 182 121.84 182 147 C 178.37 147 174.74 147 171 147 C 170.56 146.08 170.13 145.16 169.68 144.22 C 166.31 137.28 162.92 131 158 125 C 157.34 125.66 156.68 126.32 156 127 C 156.52 127.61 156.52 127.61 159.12 130.69 C 165.81 139.28 172.2 150.99 170 162 C 169.01 162.33 168.02 162.66 167 163 C 167.47 163.93 167.95 164.86 168.44 165.81 C 172.49 176.68 170.67 183.26 166.25 193.69 C 165 197 165 197 166 199 C 167.32 196.69 168.64 194.38 170 192 C 171 196 171 196 168 201 C 165.54 203.46 161.07 202.27 158 202 C 153.94 199.38 153.94 199.38 150 196 C 148.51 195.05 147.03 194.1 145.5 193.12 C 141.04 189.15 141.82 187.7 142 182 C 137.02 177.32 131.25 177.13 124.75 176.56 C 109.83 175.16 101.22 170.33 93 158 C 92.4 155.79 91.86 153.55 91.38 151.31 C 91.11 150.13 90.85 148.95 90.59 147.74 C 90.49 147.29 90.49 147.29 90 145 C 89.09 144.93 88.19 144.85 87.25 144.77 C 76.1 143.57 68.32 139.82 61 131 C 61 129.35 61 127.7 61 126 C 59.35 126 57.7 126 56 126 C 52.5 122.31 52.5 122.31 49 118 C 48.52 117.56 48.52 117.56 46.06 115.31 C 44 113 44 113 44 108 C 46.58 105.25 49.25 102.58 52 100 C 52.72 99.01 53.44 98.02 54.19 97 C 56 95 56 95 61 95 C 61 93.35 61 91.7 61 90 C 68.29 79.79 77.95 76.61 90 76 C 90.39 74.19 90.78 72.37 91.19 70.5 C 94.07 59.15 100.22 51.74 110.88 46.69 C 117.37 44.54 124.07 44.11 130.86 43.59 C 134.96 43.01 137.61 42.36 141 40 C 141.33 38.35 141.66 36.7 142 35 C 143.27 28.67 145.17 27.87 150.31 24.19 C 151.65 23.21 152.99 22.24 154.36 21.23 C 158 19 158 19 162 19 C 162.33 17.68 162.66 16.36 163 15 C 165.22 12.2 165.22 12.2 168.06 9.25 C 168.52 8.76 168.52 8.76 170.85 6.27 C 174 4 174 4 182 4 Z M 165 47 C 164.15 48.36 163.31 49.72 162.44 51.12 C 154.94 61.75 154.94 61.75 147.56 62.38 C 146.39 62.25 145.21 62.13 144 62 C 143.34 60.02 142.68 58.04 142 56 C 140.35 55.67 138.7 55.34 137 55 C 134 59 134 59 134.38 62.06 C 136.65 66.17 138.48 66.85 143 68 C 151.97 67.1 160.06 62.7 165 55 C 165.66 53.35 166.32 51.7 167 50 C 166.34 49.01 165.68 48.02 165 47 Z M 124 77 C 123.67 77.99 123.34 78.98 123 80 C 124.32 80.99 125.64 81.98 127 83 C 117.38 82.25 117.38 82.25 114 80 C 113.01 80 112.02 80 111 80 C 110.61 81.13 110.22 82.27 109.81 83.44 C 108 87 108 87 103 88 C 103.33 87.01 103.66 86.02 104 85 C 103.34 84.67 102.68 84.34 102 84 C 99 86 99 86 98.69 89.38 C 97.79 94.11 96 94.62 92 97 C 92 97.99 92 98.98 92 100 C 94.31 99.34 96.62 98.68 99 98 C 98.68 98.37 98.68 98.37 97.06 100.25 C 95 103 95 103 94 107 C 90.7 107 87.4 107 84 107 C 84 106.34 84 105.68 84 105 C 83.2 104.69 82.41 104.37 81.59 104.05 C 72.64 100.43 72.64 100.43 68.5 97.62 C 66 96 66 96 62 97 C 65.35 102.1 69.67 104.22 75 107 C 76 108 76 108 76 114 C 75.16 114.39 74.31 114.77 73.45 115.17 C 72.9 115.43 72.9 115.43 70.12 116.75 C 69.03 117.26 67.94 117.77 66.82 118.3 C 64 120 64 120 62 124 C 66.69 124 68.87 122.77 73 120.62 C 74.22 120 75.43 119.37 76.69 118.73 C 77.78 118.16 78.87 117.59 80 117 C 81.32 116.34 82.64 115.68 84 115 C 84 114.34 84 113.68 84 113 C 92.25 113 92.25 113 95.94 117.94 C 96.62 119.28 97.3 120.62 98 122 C 98.66 122.66 99.32 123.32 100 124 C 99.07 123.5 98.14 123.01 97.19 122.5 C 94 121 94 121 91 121 C 93 125 93 125 98 128 C 98.72 130.32 99.39 132.65 100 135 C 100.99 135.33 101.98 135.66 103 136 C 103 135.01 103 134.02 103 133 C 107.17 133.93 108.62 134.37 110.88 138.12 C 111.25 139.07 111.62 140.02 112 141 C 117 139 117 139 118 138 C 121 137.63 124 137.3 127 137 C 125.68 138.32 124.36 139.64 123 141 C 123.33 141.99 123.66 142.98 124 144 C 129 142 129 142 131 139 C 132.09 139.21 133.19 139.41 134.31 139.62 C 138 140 138 140 141 138 C 140.67 137.01 140.34 136.02 140 135 C 139.34 134.84 139.34 134.84 136 134 C 136.33 133.01 136.66 132.02 137 131 C 140.63 130.67 144.26 130.34 148 130 C 148.33 129.01 148.66 128.02 149 127 C 149.99 127 150.98 127 152 127 C 152 124.36 152 121.72 152 119 C 152.99 118.67 153.98 118.34 155 118 C 154.84 117.34 154.84 117.34 154 114 C 152.98 108.89 153.35 107.63 155 103 C 154 101 154 101 152 100 C 152 98.02 152 96.04 152 94 C 151.01 94 150.02 94 149 94 C 148.84 93.34 148.84 93.34 148 90 C 146.39 89.9 144.78 89.79 143.12 89.69 C 138 89 138 89 136 86 C 137.32 85.67 138.64 85.34 140 85 C 140 84.01 140 83.02 140 82 C 135.8 80.95 133.21 81.27 129 82 C 128.67 81.34 128.67 81.34 127 78 C 126.01 77.67 125.02 77.34 124 77 Z M 135 157 C 134 161 134 161 136 165 C 140 166 140 166 143 164 C 143 162.02 143 160.04 143 158 C 153.28 159.03 158.66 162.15 164 171.5 C 164.33 172.32 164.66 173.15 165 174 C 165.66 173.01 166.32 172.02 167 171 C 163.27 161.67 156.76 155.59 147 153 C 140.87 153 139.48 153.25 135 157 Z"/>
</g>
<g class="line" data-part="line" stroke="#5f5b5f" fill="none" stroke-linecap="round" stroke-linejoin="round">
<g stroke-width="4.0"><path d="M88.50 103.50C87.03 108.65 86.79 111.36 88.50 116.50"/><path d="M88.50 103.50C94.23 102.41 99.87 100.11 105.50 98.50"/><path d="M88.50 103.50C88.17 103.17 87.83 102.83 87.50 102.50"/><path d="M115.50 0.50C110.11 3.07 105.47 7.19 100.50 10.50"/><path d="M167.50 202.50C169.33 207.98 172.15 210.46 177.50 212.50"/><path d="M167.50 202.50C163.18 201.27 162.44 200.57 160.50 196.50"/><path d="M167.50 202.50C171.32 197.78 171.60 194.56 177.50 192.50"/><path d="M165.50 177.50C164.14 184.66 164.22 189.98 160.50 196.50"/><path d="M165.50 177.50C161.28 174.17 153.96 159.63 147.64 161.36C145.43 161.96 145.35 164.66 144.07 166.21C142.51 168.12 139.68 168.77 137.50 169.50"/><path d="M165.50 177.50C171.00 172.00 167.95 163.93 165.50 157.50"/><path d="M100.50 206.50C89.30 207.57 76.74 208.10 73.50 194.50"/><path d="M100.50 206.50C101.71 207.71 101.50 207.90 101.50 209.50"/><path d="M100.50 10.50C100.50 11.50 100.50 12.50 100.50 13.50"/><path d="M125.50 223.50C125.50 221.47 124.50 219.05 124.50 216.50"/><path d="M125.50 223.50C113.45 223.50 110.01 217.60 101.50 209.50"/><path d="M125.50 223.50C135.67 223.50 136.71 214.88 139.50 206.50"/><path d="M157.50 99.50C157.50 106.54 157.50 113.46 157.50 120.50"/><path d="M157.50 99.50C156.54 98.54 152.73 97.50 151.50 97.50"/><path d="M157.50 99.50C165.86 93.13 168.69 81.02 176.50 76.50"/><path d="M128.50 91.50C125.73 86.66 121.87 82.49 119.50 77.50"/><path d="M128.50 91.50C133.73 88.51 137.89 88.10 143.50 86.50"/><path d="M128.50 91.50C126.83 95.39 125.66 99.43 124.50 103.50"/><path d="M65.50 205.50C64.66 199.62 61.61 195.01 59.64 189.50C56.71 181.30 54.98 172.91 50.21 165.50C47.63 161.48 44.25 157.87 40.50 154.93C38.61 153.44 35.85 152.25 35.64 149.50C35.27 144.65 46.50 133.43 49.50 129.50"/><path d="M65.50 205.50C66.50 206.21 67.52 206.91 68.50 207.64C68.85 207.91 69.19 208.19 69.50 208.50C72.93 211.93 73.50 215.86 73.50 220.50"/><path d="M65.50 205.50C60.71 211.19 54.68 214.81 48.50 218.79C46.30 220.20 44.20 222.51 41.50 222.93C37.94 223.48 36.41 217.81 32.50 218.93C28.94 219.95 27.87 222.44 29.50 225.50"/><path d="M177.50 192.50C177.50 176.19 180.35 159.66 176.50 143.50"/><path d="M177.50 192.50C179.22 198.53 179.22 206.47 177.50 212.50"/><path d="M96.50 138.50C95.68 129.89 88.67 126.71 87.50 118.50"/><path d="M96.50 138.50C99.89 138.98 103.08 139.50 106.50 139.50"/><path d="M96.50 138.50C95.47 139.53 95.00 140.50 93.50 140.50"/><path d="M93.50 140.50C94.20 145.38 94.27 152.04 96.50 156.50C103.72 170.94 122.64 176.04 137.50 172.50"/><path d="M93.50 140.50C82.32 140.50 69.72 140.15 65.50 127.50"/><path d="M106.50 80.50C106.50 86.52 105.50 92.44 105.50 98.50"/><path d="M106.50 80.50C102.97 80.84 99.94 81.68 96.50 82.50"/><path d="M106.50 80.50C111.56 76.03 113.11 76.28 119.50 77.50"/><path d="M119.50 77.50C124.34 72.34 126.04 75.26 131.50 77.21C137.90 79.50 143.07 77.46 143.50 86.50"/><path d="M105.50 98.50C108.98 100.65 112.17 103.12 115.50 105.50"/><path d="M65.50 127.50C60.67 126.12 59.43 124.38 58.50 119.50"/><path d="M65.50 127.50C72.83 123.66 79.01 118.90 87.50 118.50"/><path d="M176.50 143.50C168.52 137.11 165.57 126.95 157.50 120.50"/><path d="M176.50 143.50C179.42 137.93 178.50 131.68 178.50 125.50C178.50 114.83 178.50 104.17 178.50 93.50C178.50 88.00 179.84 81.06 176.50 76.50"/><path d="M152.50 88.50C151.90 91.63 151.50 94.31 151.50 97.50"/><path d="M152.50 88.50C161.19 83.95 166.50 72.15 166.50 62.50"/><path d="M152.50 88.50C149.45 87.63 146.61 87.09 143.50 86.50"/><path d="M39.50 0.50C34.52 2.16 32.46 2.15 27.50 0.50"/><path d="M183.50 224.50C190.59 221.80 189.50 217.11 189.50 210.50C189.50 199.17 189.50 187.83 189.50 176.50C189.50 132.17 189.50 87.83 189.50 43.50C189.50 33.17 189.50 22.83 189.50 12.50C189.50 7.35 190.53 3.30 185.50 0.50"/><path d="M55.50 83.50C54.65 87.98 53.81 88.99 49.50 90.50"/><path d="M55.50 83.50C62.90 82.09 66.90 75.23 73.50 71.93C76.74 70.31 81.35 70.74 83.50 67.36C85.97 63.48 85.80 57.75 87.93 53.50C89.56 50.24 95.32 45.21 94.79 41.50C94.33 38.31 90.85 37.15 88.50 35.64C83.65 32.52 79.31 28.71 74.50 25.50"/><path d="M55.50 83.50C54.50 82.50 53.50 81.50 52.50 80.50C52.17 80.17 51.82 79.85 51.50 79.50C45.02 72.52 55.29 69.04 59.50 64.50C62.01 61.80 63.59 57.22 66.79 55.36C70.23 53.35 77.77 55.18 78.64 49.50C79.17 46.07 74.87 43.07 73.21 40.50C70.20 35.82 71.04 29.50 74.50 25.50"/><path d="M65.50 14.50C64.93 20.49 61.91 24.94 59.93 30.50C56.74 39.42 54.71 48.40 49.50 56.50C46.99 60.41 43.41 64.13 39.50 66.64C37.63 67.85 34.93 68.82 34.93 71.50C34.93 74.56 37.91 77.30 39.64 79.50C41.51 81.88 43.44 84.28 45.50 86.50C45.82 86.85 46.17 87.17 46.50 87.50C47.50 88.50 48.50 89.50 49.50 90.50"/><path d="M65.50 14.50C71.24 12.59 72.68 9.26 73.50 3.50"/><path d="M65.50 14.50C61.03 10.67 53.01 3.32 47.50 1.36C46.37 0.95 44.35 0.66 43.50 0.50"/><path d="M159.50 23.50C155.11 25.38 149.61 28.33 146.93 32.50C142.79 38.94 144.97 42.87 136.50 46.50"/><path d="M159.50 23.50C162.26 19.87 163.16 18.74 167.50 17.50"/><path d="M159.50 23.50C160.31 24.50 161.13 25.49 161.93 26.50C162.42 27.12 162.86 27.79 163.21 28.50C165.31 32.68 165.50 37.94 165.50 42.50"/><path d="M124.50 103.50C121.44 104.08 118.53 104.78 115.50 105.50"/><path d="M124.50 103.50C126.15 105.15 128.50 108.22 128.50 110.50"/><path d="M88.50 116.50C94.30 117.33 99.90 120.63 105.50 122.50"/><path d="M88.50 116.50C87.26 117.74 87.50 117.03 87.50 118.50"/><path d="M160.50 196.50C155.40 195.53 148.82 192.42 146.36 187.50C145.05 184.89 145.80 182.00 144.07 179.50C142.33 176.99 139.47 174.84 137.50 172.50"/><path d="M167.50 17.50C170.06 12.60 172.58 10.84 177.50 8.50"/><path d="M167.50 17.50C170.71 22.31 172.42 26.45 177.50 29.50"/><path d="M115.50 105.50C115.50 108.83 115.50 112.17 115.50 115.50"/><path d="M76.50 109.50C75.06 110.94 73.47 110.50 71.50 110.50"/><path d="M124.50 116.50C125.36 121.00 127.06 124.91 127.50 129.50"/><path d="M124.50 116.50C121.31 116.50 118.63 116.10 115.50 115.50"/><path d="M124.50 116.50C126.55 114.45 126.82 112.18 128.50 110.50"/><path d="M127.50 129.50C125.74 134.78 122.22 137.79 119.50 142.50"/><path d="M127.50 129.50C133.27 131.42 138.78 131.87 144.50 133.50"/><path d="M177.50 29.50C179.05 23.00 179.34 14.94 177.50 8.50"/><path d="M177.50 29.50C177.50 45.21 180.21 60.91 176.50 76.50"/><path d="M73.50 194.50C79.85 192.69 84.75 187.07 90.50 183.79C92.44 182.68 95.31 181.20 94.93 178.50C94.25 173.76 88.21 169.30 86.50 164.50C85.26 161.03 85.67 154.53 83.07 151.93C80.61 149.46 75.61 149.48 72.50 147.93C66.32 144.84 61.57 139.68 55.50 136.50"/><path d="M73.50 194.50C71.33 189.94 70.58 185.20 72.93 180.50C74.40 177.55 79.54 174.16 78.50 170.50C76.99 165.21 70.01 167.50 66.50 165.07C61.41 161.55 58.78 154.85 53.50 151.07C51.64 149.74 48.82 148.23 49.21 145.50C49.57 143.00 54.09 138.47 55.50 136.50"/><path d="M105.50 122.50C105.50 128.27 106.23 133.77 106.50 139.50"/><path d="M105.50 122.50C108.83 120.12 112.02 117.65 115.50 115.50"/><path d="M136.50 51.50C136.50 49.83 136.50 48.17 136.50 46.50"/><path d="M136.50 51.50C128.81 59.19 132.23 71.38 144.50 70.50C152.86 69.90 158.51 63.64 166.50 62.50"/><path d="M136.50 51.50C139.20 51.89 141.18 52.08 143.21 53.93C144.94 55.50 145.91 58.24 148.50 58.64C156.52 59.88 160.85 46.60 165.50 42.50"/><path d="M49.50 129.50C47.42 124.05 43.56 120.56 39.50 116.50C37.83 114.83 34.47 112.41 34.93 109.64C35.35 107.12 38.83 105.17 40.50 103.50C44.56 99.44 48.39 96.33 49.50 90.50"/><path d="M49.50 129.50C53.32 131.60 54.12 132.37 55.50 136.50"/><path d="M96.50 82.50C95.67 91.21 88.32 93.93 87.50 102.50"/><path d="M96.50 82.50C95.50 81.50 94.50 80.50 93.50 79.50"/><path d="M177.50 8.50C175.96 -2.31 168.30 0.90 160.50 3.50"/><path d="M151.50 97.50C148.28 101.52 145.53 106.26 142.50 110.50"/><path d="M136.50 46.50C122.00 46.50 104.44 49.05 97.21 63.50C94.76 68.42 94.27 74.13 93.50 79.50"/><path d="M148.50 0.50C152.61 1.09 156.51 2.36 160.50 3.50"/><path d="M66.50 92.50C70.48 80.56 82.71 79.50 93.50 79.50"/><path d="M66.50 92.50C61.74 94.09 60.09 95.74 58.50 100.50"/><path d="M66.50 92.50C67.50 93.40 68.48 94.34 69.50 95.21C70.12 95.75 70.81 96.20 71.50 96.64C76.20 99.66 81.96 101.97 87.50 102.50"/><path d="M73.50 3.50C78.57 2.53 83.34 0.99 88.50 0.50"/><path d="M58.50 119.50C45.48 115.78 47.94 105.53 58.50 100.50"/><path d="M58.50 119.50C63.90 117.44 67.77 114.93 71.50 110.50"/><path d="M165.50 42.50C170.93 48.29 167.50 55.51 166.50 62.50"/><path d="M137.50 169.50C137.50 170.50 137.50 171.50 137.50 172.50"/><path d="M137.50 169.50C129.12 163.21 130.64 150.78 142.50 149.93C150.63 149.35 157.83 155.67 165.50 157.50"/><path d="M152.50 132.50C151.90 129.37 151.50 126.69 151.50 123.50"/><path d="M152.50 132.50C149.43 132.50 147.49 132.79 144.50 133.50"/><path d="M152.50 132.50C162.31 135.30 165.50 148.49 165.50 157.50"/><path d="M123.50 3.50C125.25 1.75 124.51 0.50 127.50 0.50"/><path d="M142.50 110.50C137.83 110.50 133.17 110.50 128.50 110.50"/><path d="M142.50 110.50C143.36 111.50 144.21 112.50 145.07 113.50C145.78 114.33 146.06 114.60 146.64 115.50C148.34 118.13 149.76 120.89 151.50 123.50"/><path d="M144.50 133.50C142.92 141.77 140.10 140.57 133.50 142.93C127.34 145.13 124.70 148.74 119.50 142.50"/><path d="M119.50 142.50C116.03 143.33 112.02 145.43 109.07 142.36C108.18 141.43 107.36 140.45 106.50 139.50"/><path d="M58.50 100.50C63.59 103.17 68.02 105.86 71.50 110.50"/><path d="M151.50 123.50C153.20 121.80 155.70 122.30 157.50 120.50"/></g>
<g stroke-width="8.09"><path d="M133.50 0.50C137.48 4.48 139.23 8.91 139.50 14.50"/><path d="M100.50 206.50C106.54 193.82 117.54 196.09 128.50 200.79C132.64 202.56 136.22 203.22 139.50 206.50"/><path d="M61.50 223.50C65.56 222.73 69.53 221.64 73.50 220.50"/><path d="M100.50 10.50C99.03 6.64 97.93 3.90 95.50 0.50"/><path d="M62.50 0.50C66.27 1.22 69.91 2.13 73.50 3.50"/><path d="M139.50 206.50C150.98 206.50 159.83 206.53 160.50 220.50"/><path d="M101.50 209.50C98.46 213.00 98.45 218.12 95.21 221.36C90.30 226.27 79.44 221.07 73.50 220.50"/><path d="M145.50 223.50C150.70 223.01 155.44 221.70 160.50 220.50"/><path d="M74.50 25.50C76.50 11.49 89.66 13.50 100.50 13.50"/><path d="M177.50 212.50C175.96 223.28 169.12 222.55 160.50 220.50"/><path d="M139.50 14.50C150.34 14.50 156.71 14.86 160.50 3.50"/><path d="M139.50 14.50C138.50 15.17 137.51 15.85 136.50 16.50C136.18 16.71 135.84 16.90 135.50 17.07C133.31 18.16 130.79 18.68 128.50 19.50C118.61 23.03 104.20 29.05 100.50 13.50"/></g>
</g>
</g>
</svg>