<svg xmlns="http://www.w3.org/2000/svg" data-asset="ayah-marker" data-lineage="scan" data-mushaf="warsh" data-slot="12.9032 22.5806 46.2366 54.8387" data-source-box="409 1367 476 1460" data-source-file="warsh.pdf" data-source-page="300" data-source-url="https://dn711007.ca.archive.org/0/items/Warsh-HD/warsh39-1.pdf" data-style="mushaf-warsh" data-symmetry="2" data-variant="mono" viewBox="0 0 72.043 100"><metadata>{&quot;mushaf&quot;: &quot;warsh&quot;, &quot;riwaya&quot;: &quot;Warsh &apos;an Nafi&apos;&quot;, &quot;file&quot;: &quot;warsh.pdf&quot;, &quot;sha256&quot;: &quot;f33a6e55530548d9cbf7e0ab6d8154ba46eea12d227208ce849915b808850074&quot;, &quot;url&quot;: &quot;https://dn711007.ca.archive.org/0/items/Warsh-HD/warsh39-1.pdf&quot;, &quot;archive_item&quot;: &quot;Warsh-HD&quot;, &quot;archive_url&quot;: &quot;https://archive.org/details/Warsh-HD&quot;, &quot;pdf_page&quot;: 300, &quot;crop_box_px&quot;: [409, 1367, 476, 1460], &quot;occurrence&quot;: 0, &quot;occurrences_on_page&quot;: 7, &quot;pipeline&quot;: &quot;quran-assets 3011d73&quot;, &quot;pipeline_sha256&quot;: &quot;cb8d14caa65815e6eb7c1ba1137bdbc9c5f4ed1c90b89aad7ee822a28981c3e2&quot;, &quot;extracted&quot;: &quot;2026-09-10T02:05:56+0300&quot;}</metadata><defs><g id="q" transform="scale(.1792)"><g fill="none" class="slot" data-part="slot"><path d="M207 127v304c-12 0-12 0-14-2l-.31-3.88c-.82-4.89-1.68-5.47-5.69-8.12a295 295 0 0 1-5-5l-2.56-2.5A98 98 0 0 1 173 402c-2.48-2.61-4.74-4.83-7.75-6.81-3.16-3.08-2.71-5.91-3.25-10.19-2.25-2.19-2.25-2.19-5-4a295 295 0 0 1-5-5l-2.56-2.5c-2.44-2.5-2.44-2.5-4.25-5.25C143 366 143 366 139 365.5c-4.87-.61-5.39-1.53-8-5.5a74 74 0 0 0-7.5-7 59 59 0 0 1-10.5-11l-3.94-.44c-4.89-.68-5.43-1.56-8.06-5.56-2.48-2.61-4.74-4.83-7.75-6.81-3.16-3.08-2.71-5.91-3.25-10.19-2.25-2.19-2.25-2.19-5-4a262 262 0 0 1-5-5l-1-1a467 467 0 0 1-.33-10.58C78 295 78 295 75.49 293.3c-4.17-3.85-3.21-8.98-3.11-14.3l-.06-3.31c.05-8.11.05-8.11 3.19-11L78 263c.53-3.31.53-3.31.5-7-.05-6.04.66-7.49 5.5-11l.5-4c.61-4.87 1.53-5.39 5.5-8a74 74 0 0 0 7-7.5 83 83 0 0 1 7-7.5l2.69-2.69c4.31-4.31 4.31-4.31 8.19-4.62 4.89-.82 5.47-1.68 8.12-5.69q2.47-2.53 5-5l2.69-2.69c4.31-4.31 4.31-4.31 8.19-4.62 4.89-.82 5.47-1.68 8.12-5.69q2.47-2.53 5-5l2.5-2.56c2.5-2.44 2.5-2.44 5.25-4.25C162 173 162 173 162.5 169c.61-4.87 1.53-5.39 5.5-8a74 74 0 0 0 7-7.5 59 59 0 0 1 11-10.5l.44-3.94c.67-4.85 1.62-5.43 5.56-8.06 3-4 3-4 15-4"/></g><g fill="currentColor" class="ink" data-part="ink"><path d="M199 60c5 1 5 1 8 3 .36 2.67.36 2.67.34 6.1v3.88l-.05 4.22-.01 4.29q-.03 6.82-.09 13.63l-.04 9.23L207 127c-3-1-3-1-4-3-6.44 1.29-7.89 4.05-12 9l-3 2q-1.02 3-2 6l-3 3-3 5c-4.97 5.88-9.84 11.38-16 16l-2 5a133 133 0 0 1-11 12l-2.5 2.5-2.5 2.5-2.38 2.62c-3 2.73-5.91 3.79-9.62 5.38a52 52 0 0 0-6.88 7.44C122.18 208.4 118.6 211 111 212c-2.13 2.25-2.13 2.25-4 5a295 295 0 0 1-5 5l-2.5 2.56A98 98 0 0 1 92 231a262 262 0 0 0-5 5l-1 1-.25 3.81C85 245 85 245 82.48 246.82c-3.39 2.98-3.02 4.77-2.98 9.18.03 3.69.03 3.69-.5 7l-2.49 1.69c-4.18 3.85-3.23 8.93-3.13 14.25l-.06 3.28c.04 6.66.69 9.47 5.68 13.78.53 3.19.53 3.19.5 6.56-.05 5.94-.05 5.94 2.93 8.62L85 313q1.56 3.48 3 7l3 2 .88 2.81c1.69 4.8 4.89 7.22 8.81 10.31C103 337 103 337 105 340l5 2 4 3 5 3c5.88 4.97 11.38 9.84 16 16l2.88.94c3.82 1.3 5.42 3.09 8.12 6.06l2.5 2.5 2.5 2.5 2.38 2.31c9.06 9.28 9.06 9.28 11.62 15.69a63 63 0 0 0 7.5 7c4.23 3.39 7.08 6.14 9.5 11.06 2.02 3.98 3.48 5.39 7 7.94 3.04 3.39 4.25 5.63 6 10 4 4 4 4 8 4l2-3h2q.15 13.59.22 27.18l.08 9.25q.07 6.64.09 13.28l.06 4.19v3.88l.03 3.43C207 495 207 495 203 498c-6.61-1.32-6.25-3.16-9-9-2.44-2.62-2.44-2.62-5-5a722 722 0 0 1-5-6 375 375 0 0 0-12.25-13.62l-2.52-2.67c-2.28-2.78-3.69-5.47-5.23-8.71-3.91-4.86-4.34-5-11-5l-2.75 2c-4.63 2.85-7.9 2.52-13.25 2-4.19-1.81-4.19-1.81-8-4l-3.22-1.15c-4.96-2.43-8.15-5.69-12.03-9.6l-4.2-4.17A31 31 0 0 1 103 422l-2-3c1-4 1-4 3-6 3.26-.06 6.48.13 9.74.32 3.96-.39 5.46-1.56 8.26-4.32 1-2 1-2 1-8-3.84-6.96-8.82-12.01-14.61-17.42C106 381 106 381 104 376c-2.63-3.33-5.09-6.32-8.5-8.88C93 365 93 365 90.31 360.94c-3.32-4.96-6.95-8.94-11.14-13.17-2.49-3.17-3.16-5.9-4.17-9.77l-2.56-2.44c-3.23-3.39-2.93-6-3.44-10.56l-4-4c-.69-3.06-.69-3.06-1-6.44-.57-6.13-.57-6.13-3.01-8.58-3.01-4.51-2.51-8.42-2.52-13.79l-.01-3.17q-.01-3.31.02-6.63.02-5.06-.03-10.13l.02-6.45.01-5.92c.53-4.99 1.1-6.45 4.52-9.89.69-3.16.69-3.16 1-6.5.49-5.22 1.59-7.56 5-11.5q1.52-4 3-8l3-3 1.12-4.06c2.1-5.52 4.72-8.46 8.74-12.65A55 55 0 0 0 91 196c2.55-3.18 5.12-6.12 8-9l1.85-2.82a73 73 0 0 1 7.53-9.12C123 159.31 123 159.31 123 151c-3.74-4.67-6.5-6.09-12.56-5.88C107 145 107 145 104 142c-1.22-10.55 4.93-17.07 12-24q4.27-3.7 8.71-7.19C127 109 127 109 129 107c7.81-2.06 16.09-2.15 23 2l1 1c7.4 0 7.85-1.25 12-7l2-5q3.83-4.06 7.88-7.94c4.63-4.46 8.76-8.57 12.12-14.06 2.56-3.24 4.56-5.71 8-8q1.58-3.46 3-7z"/></g></g></defs><use href="#q"/><use href="#q" transform="matrix(-1 0 0 1 72.043 0)"/></svg>