<svg xmlns="http://www.w3.org/2000/svg" data-asset="surah-header" data-lineage="scan" data-mushaf="sousi" data-slot="226.1905 9.5238 330.9524 80.9524" data-source-box="367 292 1352 418" data-source-file="sousi.pdf" data-source-page="607" data-source-url="https://ia600502.us.archive.org/27/items/Susi-HD/sousi-1.pdf" data-style="mushaf-sousi" data-symmetry="4" data-variant="mono" viewBox="0 0 782.54 100"><metadata>{&quot;mushaf&quot;: &quot;sousi&quot;, &quot;riwaya&quot;: &quot;al-Susi &apos;an Abi &apos;Amr&quot;, &quot;file&quot;: &quot;sousi.pdf&quot;, &quot;sha256&quot;: &quot;265b50e718bedec3df1a9ece77480baeec22f73137fa3a01ab6efc071a65005a&quot;, &quot;url&quot;: &quot;https://ia600502.us.archive.org/27/items/Susi-HD/sousi-1.pdf&quot;, &quot;archive_item&quot;: &quot;Susi-HD&quot;, &quot;archive_url&quot;: &quot;https://archive.org/details/Susi-HD&quot;, &quot;pdf_page&quot;: 607, &quot;crop_box_px&quot;: [367, 292, 1352, 418], &quot;occurrence&quot;: 0, &quot;occurrences_on_page&quot;: 3, &quot;pipeline&quot;: &quot;quran-assets 3011d73&quot;, &quot;pipeline_sha256&quot;: &quot;cb8d14caa65815e6eb7c1ba1137bdbc9c5f4ed1c90b89aad7ee822a28981c3e2&quot;, &quot;extracted&quot;: &quot;2026-09-10T02:10:05+0300&quot;}</metadata><defs><g id="q" transform="scale(.2646)"><g fill="none" class="slot" data-part="slot"><path d="m1096.82 36.28 5.04-.02q8.34 0 16.68.06h11.98q12.88-.01 25.75.05 18.63.06 37.25.07 30.21.02 60.42.11a38247 38247 0 0 0 80.5.15q75.29.1 150.56.3v158H853c0-9 0-9 2.2-11.49l2.93-1.82 3.06-1.98L864 178l3.13-2.12q3.49-2.27 7-4.47a96 96 0 0 0 13.62-11.78l2.21-2.18A71 71 0 0 0 901 143c5.9-6.75 9.84-7.51 18.33-7.71 14.61-1.16 24.41-10.69 34.23-20.54l3.12-3.06c5.25-5.25 9.66-10.17 13.32-16.69q2.48-3.02 5-6l1.79-2.8c2.39-3.46 5-6.33 7.96-9.32l2.99-3.07c8.99-7.73 17.85-8.03 29.26-6.81 5.13 2.21 8.57 4.68 13 8 3.89.29 3.89.29 8.25.19l4.39-.08L1046 75l2.05-3.94 2.7-5.18 2.67-5.14c9.95-18.29 23.13-24.69 43.4-24.46"/></g><g fill="currentColor" class="ink" data-part="ink"><path d="m17.72 4.75 3.12-.01 10.47.01H82.6l39.92.01 59.37.01 99.86.02 98.91.02h31.14l69.7.01h3.21q77.24 0 154.48.03l53.63.01h3.36l154.54.03h10.03l66.48.01 132.27.01h6.29L1485 5v11h-2.52l-147.63.33-17.7.04-3.56.01-57.16.12-58.6.14-36.2.07-27.7.07-11.4.02-15.49.04h-4.62l-4.16.02-3.61.01C1092 17 1092 17 1091 18q-4.71.4-9.44.75c-12.11 1.17-18.45 4.09-27.56 12.25h-2l-2 5-3.31 3.75c-3.65 4.2-6.04 8.38-8.69 13.25-3 2-3 2-8 1l-4.37-2c-13.89-6.01-31.06-4.54-43.94 2.94-12.05 8.01-20.65 19.21-28.38 31.25-22.09 32.09-22.09 32.09-40.75 32.31-4.78-.11-7.23-.34-11.56-2.5-6.27 1.25-6.08 2.21-8.69 7.75-3.97 7.87-8.67 14.49-14.31 21.25l-2.37 2.9c-6.32 7.39-13.6 12.68-21.63 18.1l-4 3c1 5 1 5 2 6 5.76 0 7.88-1.73 12.4-5.08 2.6-1.92 2.6-1.92 5.31-3.57 4.81-3.44 8.82-7.59 12.98-11.79l2.59-2.56 2.48-2.5 2.25-2.25C892 145 892 145 895 140q2-2.9 4.06-5.75l2.1-2.92c3.54-4.48 7.19-3.34 12.62-3.32 21.99-.06 33.52-14.49 46.22-30.95l3.5-4.53L967 88c12.57-16.26 22.99-29.21 44.85-28.48 10.83 1.25 18.77 6.83 27.15 13.48 3-3 3-3 4.75-7.5 6.35-15.51 17.28-29.72 33.93-34.57 7.25-1.27 14.32-1.2 21.66-1.17l5-.01 16.59.02h11.88l25.59.02 37 .02 60.03.04 58.31.04h3.63l18.04.01q74.8.03 149.59.1v7h-2.58q-75.72-.09-151.44-.03l-18.19.02h-3.66q-29.3.01-58.6-.03-30.09-.04-60.16.02-18.56.03-37.1-.02-12.74-.03-25.47.02-7.34.02-14.67-.01-7.98-.04-15.95.03l-4.64-.06c-14.06.19-26.3 5.24-34.54 17.06q-2.77 5.11-5.25 10.37c-4.44 9.42-4.44 9.42-7.75 11.63-9.79 1.22-16.18.41-24-6-8.03-4.02-18.57-3.23-26.87-.25C985.64 76.43 978.37 83.56 973 93a567 567 0 0 1-5 6l-1.82 2.82c-3.93 5.73-9.03 10.4-13.93 15.3l-3.21 3.29c-5.32 5.34-9.9 9.8-17.04 12.59l-4.12 1.69a46 46 0 0 1-11.94 1.56c-8.91.5-12.87 4.51-17.6 11.92-3.65 5.28-7.66 9.59-12.21 14.08l-2.32 2.35A69 69 0 0 1 869 176l-4.69 3.12A224 224 0 0 1 855 185c-1.31 5.19-1.31 5.19-2 10q-9.93.07-19.86.11l-6.76.04-9.71.04-5.9.04C806 195 806 195 802 193c-6.55.55-6.55.55-8 2q-4.37.13-8.73.12l-5.82.01-6.49-.01h-6.82l-18.84-.01h-20.28l-35.17-.01-50.85-.01-82.49-.02-80.15-.02h-29.75L243 195v-2h-20v2h-73v-2h-21v2H6c-.08-46.9-.08-46.9-.1-69.99q-.01-18.78-.05-37.54l-.06-45.44-.02-17.55-.02-5.3.01-4.8-.01-4.2c.56-7.13 6.08-5.43 11.97-5.43M218 41a602 602 0 0 1-12.73 1.21c-4.4.81-6.78 2.05-10.27 4.79 2 4 2 4 7 7 3.52.11 3.52.11 7.25-.25l3.77-.33C216 53 216 53 217 52c6.76-.24 6.76-.24 8 1l4.44.31c13.81 1.71 24.94 9.57 32.81 20.94 4.02 8.61 5.11 16.41 4.75 25.75 6.23-1.25 9.54-2.98 12.39-8.86q1.27-3.14 2.44-6.3C283 82 283 82 286 78c3.66-.44 3.66-.44 8.06-.44 9.99-.39 15.75-1.86 22.5-9.69 3.7-5.87 3.86-9.94 3.44-16.87-2.22-4.36-4.03-6.03-8-9-5.56-.61-6.98-.01-12 3-3.19 4.68-3.17 7.56-2 13l.56 3.44L299 64c-6.43 3.55-10.62 5.2-17.87 2.62a184 184 0 0 1-24.75-15.27C247.34 45.07 236.8 42.3 226 41l-1-1c-6 0-6 0-7 1M111 56C91.83 69.33 91.83 69.33 81 68c-5-2-5-2-5.94-4.88C75 60 75 60 77 56c0-6.62-.61-7.51-5-12-4.47-2.24-9.63-1.73-13.94.56C53.07 50.47 53.72 56.7 55 64c2.63 7.18 7.94 10.64 15 13 4.49.5 8.86.69 13.38.7C87 78 87 78 90 81l1.75 4.69c2.59 6.1 5.53 12.48 12.48 14.02l2.77.29.01-3.3c.36-13.88 3.55-24.08 13.99-33.7 11-6.41 19.99-9.36 32.63-9.38l3.7-.07c10.43-.03 19.22 1.92 27.67 8.45l3.38 2.56c4.59 4.36 8.05 9.23 11.62 14.44 4.09-1.37 5.04-3.23 7-7-5.43-13.58-18.9-22.54-32-28-7.62-1.76-14.82-2.27-22.62-2.25l-5.86-.02c-14 .68-24.21 6.4-35.52 14.27m231 18c-5.46 8.68-6.48 15.11-3.5 24.94 4.99 10.1 10.04 18.19 21.5 21.06 11.12.35 11.12.35 17-2l2-4-2.75-2.13c-8.49-7.51-10.3-15.96-9.25-26.87 4.95-14.29 14.74-22.07 28.91-26.56 6.26-1.67 12.2-1.92 18.65-1.88l3.21-.06c13.73.01 25.62 6.85 36.11 15.31 3.54 2.74 5.83 4.2 10.12 5.19 1.66-4.97-1.39-8.81-4-13-7.02-8.92-13.88-14.86-24.49-18.99C433 44 433 44 432 43c-36.06-5.03-65.55 2.94-90 31m148-9c-5 8.33-5 8.33-5 12 7.83.3 11.4-3.57 16.93-8.42C515.5 57.17 530.87 55.96 548 58l1 1 3.12.35c4.21.7 7.22 2.02 11.01 3.96l3.57 1.8C576.83 70.9 581.66 78.66 584 90c0 9.06-3.2 16.46-9.81 22.62L572 115c1 4 1 4 3.44 5.75 9.99 3.5 17.73.42 26.19-5.13 8.75-9.4 12.36-19.88 10.37-32.62-3.6-9.98-10.03-16.62-19-22l-3.12-2.81c-4.66-3.83-9.54-6.46-14.88-9.19l-3.06-1.69C545 35.28 508.2 40.73 490 65m189.19-2.69c-7.7 5.69-14.67 8.47-24.06 5.44C652 66 652 66 651 62l2-4c.56-5.85.27-8.85-4-13-3.96-2.64-6.31-2.43-11-2-4.13 2.6-6.77 5.07-7.37 10.07-.14 7.75.14 12.77 5.37 18.93l5 3 3 2c4.81.96 8.93 1.1 13.81 1.06l4.65-.03L666 78l.86 3.18c2.35 7.85 5.7 14.61 12.14 19.82h4l.08-2.93c.74-16.94 6.96-27.45 19.92-38.07 11.7-7.38 27.7-8.04 40.83-4.81 4.17.81 4.17.81 8.23-1.88C755 50 755 50 755 47c-27.86-12-52.99-1.87-75.81 15.31M778 45l-2.96.97C761.72 50.47 748.01 59.28 743 73l5 7c4-1 4-1 5.19-3.5C760.34 62.69 774.34 56.31 789 54c17.03-1.42 34.36 2.76 45.93 16.25 7.14 9.49 9.04 19.06 9.07 30.75 8.83-1.77 12.54-9.17 16-17l2-5 3.29-.15 4.34-.23 4.29-.21c8.35-.84 15.87-3.77 20.77-10.85 2.35-6.38 2.55-12.94-.38-19.12C889.94 43.82 887.35 43 881 43c-5 3.59-6.91 5.06-7.19 11.25.17 4.14.64 6.96 2.19 10.75-5.3 4.46-9.19 4.79-16 4-7.47-2.74-13.64-7.09-19.94-11.85C822.1 44.48 799.61 36.36 778 45M168.13 65.69C166 70 166 70 168 75c3 4 3 4 6 4 2.41-4.31 4.8-8.59 7-13-8.37-6.09-8.37-6.09-12.87-.31M770 66c1.09 5.42 2.76 8.55 6 13 4 0 4 0 6.31-2.13 2.13-3.62 2.09-4.94.69-8.87-5.02-5.92-6.39-5.45-13-2M207 82c-.55 6.39-.21 10.05 4 15 2.77 1.38 5.05 1.09 8.13 1.06L225 98l-.1 3.25-.09 4.31-.1 4.25c.49 6.99 2.88 11.76 8.29 16.19 5.44 3.03 9.82 3.6 16 3 4.06-2 4.06-2 7-4v-4l-4.12-.75c-9.04-2.32-13.46-6.7-16.88-15.25q-.51-3.9-.87-7.81C232.94 87.25 230.55 80.8 222 75c-6.94-1.1-11.83.66-15 7m-63.69.5c-1.9 5.06-2.49 10.15-3.31 15.5l-1 1-.19 4.06c-1.18 7.17-4.34 11.16-10.18 15.38-3.95 1.7-7.36 2.26-11.63 2.56 0 3 0 3 2.31 5.12 5.34 3.73 10.32 3.22 16.69 2.88 6.32-2.71 9.28-6.43 13-12 .89-11.11.89-11.11-1-13v-5c4-1 4-1 6.94-.38 4.6.57 7.09-1.73 10.37-4.75 2.44-4.14 2.22-7.15 1.69-11.87-3.34-5.34-4.97-5.94-11.31-6.31-6.84.37-8.68 1.33-12.38 6.81M718 87q-.61 4.1-.94 8.25c-1.19 11.21-3.64 17.96-13.06 24.75-4.5 1.44-4.5 1.44-8 2l-1 4c4.65 3.6 8.08 5 14 5 7.82-2.78 11.69-5.82 16-13 .33-3.41.33-3.41.25-7.06l-.05-3.66C725 104 725 104 724 100c1-1 1-1 5.69-.88 6.31-.15 9.76-.79 13.31-6.12.82-10.6.82-10.6-4-15-9.43-6.29-16.16.94-21 9m67-6c-2.12 6.01-2.79 9.69 1 15 4.32 3.24 5.15 3.35 10.25 3.19L802 99c1 3 1 3 0 5-.9 9.31-1.18 16.2 6 23 5.43 3.5 9.56 4.9 16 4 4.5-2.5 4.5-2.5 8-5-1-3-1-3-4-5l-3.37-.88c-7.73-2.39-11.09-7.62-13.63-15.12-.64-4.09-1.07-8.17-1.49-12.28-1.02-7.46-4.07-12.76-10.51-16.72-6.43-1.01-9.75.04-14 5m-455 8c-12 14.4-12 14.4-12 21l4 2 4 10c6.76 8.82 6.76 8.82 13.81 9.37 5.26-.38 7.34-.91 11.19-4.37l1-3-2.63-2.42C339.32 112 332.93 104.16 332 90zm289 2-.62 4.31c-2.81 11.6-8.73 18.71-17.38 26.69l-3 3c1.56 4.66 4.59 5.2 9 7 5.88 1.01 7.47.4 12.31-3.25 4.05-4.12 6.4-6.87 8.19-12.38C629 112 629 112 632 110c-1.17-5.87-3.61-9.12-7-14l-3-5zm-414 9-.08 3.44c-.57 15.55-3.33 28.95-12.23 41.93C191 148 191 148 191 152c4.3 3.7 5.23 4.15 11 3 11.29-13.32 14.74-31.03 14-48-3.12-4.16-5.51-7-11-7m529 6c-2.32 2.32-1.08 7.96-1 11l1 1q.49 3.3.88 6.62c.72 5.29 1.64 9.61 4.12 14.38l1.81 3.87A136 136 0 0 0 749 156l1.88 3.06c4.68 6.48 10.01 11.32 17.12 14.94l9.25 5.56c4.65 2.39 8.65 3.48 13.75 4.44l1 1a155 155 0 0 0 6.06.56l5.94.44c-.23-3.96-.37-6.3-3.06-9.31-2.94-1.69-2.94-1.69-6.69-2.6-18.17-4.66-33.74-19.1-41.25-36.09l-1.64-3.4A53 53 0 0 1 746 113a249 249 0 0 0-2-9c-4.78-1.2-5.87-.38-10 2m50-2 .03 3.81c-.29 16.86-4.85 28.89-15.03 42.19 3 5 3 5 6 8 9.52-1.91 12.2-10.87 16-19l1.81-3.81c2.39-6.42 2.3-12.84 2.25-19.63l-.02-4.87L795 107c-3.99-1.84-6.56-3-11-3m-630 2q-.07 3.59-.12 7.19l-.07 4.04C154 121 154 121 156 126l.88 3.75c6.08 23 22.09 39.41 43.12 49.25l3.56 1.75c4.71 1.71 9.51 2.41 14.44 3.25l1 1c4.58.25 9.17.18 13.75.19l3.91.03 3.76.01 3.46.01C247 185 247 185 252 183l4.31-.63c15.54-3.75 29.37-13.48 41.69-23.37-2.09-4.18-4.5-8.05-7-12-4.76 1.19-6.89 3.61-10.43 6.87-14.33 11.9-34.46 16.54-52.63 16.32l-3.16-.01c-7.64-.04-7.64-.04-8.78-1.18l-3.13-.37c-10.1-1.65-18.57-7.74-25.87-14.63l-4-2c-12.84-14.13-16.81-29.38-18-48-4.08 0-7.12.81-11 2m-80 6 1 3Zm241 1a270 270 0 0 0-6 9l-2 3c1.37 6.86 5.13 12.08 11 16 5.55.32 8.78.09 14-2-1-4-1-4-4.75-7.13-5.96-5.43-8.68-11.01-10.25-18.87zm319 1-.81 2.56c-2.81 8.14-6.04 15.36-14.19 19.44 1 5 1 5 5 7 9.82 0 12.41-4.43 18-12l3-1c-.99-4.96-2.01-6.86-4.94-10.81l-2.15-2.96C636 114 636 114 634 114M82 125c.75 6.75.75 6.75 3 9h5c0-4.8-3.43-6.18-7-9zm-8 1c-2.21 2.21-.4 7.24 0 10l2 4 2-1c-.62-8.5-.62-8.5-4-13m572 4-.75 3.12c-2.05 6.37-5.07 9.82-10.25 13.88l-1 3c5 5 5 5 12 5 2.67-1.79 2.67-1.79 5.19-4.06 2.54-2.29 2.54-2.29 4.81-3.94l3 1c-1.73 3.7-3.07 6.07-6 9 2.48 9.93 19.12 16.9 27.94 20.69 4.63 1.49 9.28 2.39 14.06 3.31l1 1c14.45 2.1 33.32 3.47 47-2l3.38-.38c4.21-.72 7.03-2.35 10.62-4.62-1.48-4.45-4.31-6.23-8-9-5 0-5 0-8 2-7.61 2.4-21.56 4.72-29 1l-5.87-.75c-23.47-3.53-43.23-19.7-58.13-37.25zm-353 12 2 4h2l2 4c3.77 3.77 5.75 3.84 11 4 5-3 5-3 6-7l-4.31-3.69c-3.58-3.05-5.17-5.11-7.69-9.31-5.18 0-7.61 4.44-11 8m-210 0c-3.35 4.17-4 5.48-4 11l4 4 2.13-3.75c2.78-4.11 4.83-5.62 8.87-8.25v-4c-5.36-2.37-5.52-2.29-11 1m18-2c2 5 2 5 5.69 9.12L110 153c-1 3-1 3-4.06 4.19L103 158c-1.25 6.62-1.25 6.62 1 10 3.69 1.84 5.25 2.26 9.19.87 4.8-3.19 5.76-5.41 6.44-11.12-.93-8.51-4.66-12-11.88-16.25C104 140 104 140 101 140m-8.19 12.19C90 155 90 155 89 159l-4 2c3.86 6.43 7.57 9.46 14 13l4 2.56c7.25 4.42 13.63 6.01 22 7.44l1 1q6.59.19 13.19.19l3.73.03 3.62.01 3.32.01c3.34-.26 6-1.12 9.14-2.24l3.13-.25c5.81-1.13 10.69-3.97 15.87-6.75 0-4 0-4-2.44-6.94-5.17-3-7.07-1.27-12.56.94-12.36 3.69-23.15 5.18-36 3l-1-1c-4.91-.24-7.54-.23-12 2-10.61.8-10.61.8-15-4-2.91-4.37-2.32-7.86-2-13l3-4v-2c-4-1-4-1-7.19 1.19"/><path d="M394 50c-1.49 5.95-5.01 6.4-10.38 9.06-9.34 4.66-9.34 4.66-12.62 7.94l-5 3c-7.72 8.04-11.14 14.69-10 26a62 62 0 0 0 5 9l2 5-4 2c-8.71-6.58-11-14.22-11-25 3.54-12.03 10.15-21.49 21-28l4-3q4.2-2.24 8.5-4.31l4.53-2.24C390 48 390 48 394 50m167.75.2c14.45 3.56 31.17 15.57 37.84 29 4.01 10.8 1.91 20.71-3.67 30.42C594 112 594 112 590 113l-2-1c1-5 1-5 3-8.75 3.71-7.88 3.65-15.01 1-23.25-5.97-8.28-13.31-14.53-22.63-18.69l-3.91-1.76L562 58c-4-2-4-2-5-6 2-2 2-2 4.75-1.8"/></g></g></defs><use href="#q"/><use href="#q" transform="matrix(-1 0 0 1 782.54 0)"/><use href="#q" transform="matrix(1 0 0 -1 0 100)"/><use href="#q" transform="rotate(180 391.27 50)"/></svg>