<svg xmlns="http://www.w3.org/2000/svg" viewBox="0 0 9.3382 9.7915" data-mushaf="hafs-madinah-mumtaza" data-asset="page-frame" data-variant="color" data-source-file="hafs-madinah-mumtaza.pdf" data-source-page="300" data-source-url="https://dn721909.ca.archive.org/0/items/20240718_20240718_0417/%D9%85%D8%B5%D8%AD%D9%81%20%D8%A7%D9%84%D9%85%D8%AF%D9%8A%D9%86%D8%A9%20%D8%A7%D9%84%D9%86%D8%A8%D9%88%D9%8A%D8%A9%20%D8%A8%D8%B1%D9%88%D8%A7%D9%8A%D8%A9%20%D8%AD%D9%81%D8%B5%20-%20%D8%A7%D9%84%D9%85%D9%85%D8%AA%D8%A7%D8%B2%D8%A9.pdf" data-source-box="72 202 1596 2408" data-slice="edge-v" data-frame-viewbox="0 0 69.0843 100" data-repeat="9.7915">
<metadata>{"mushaf": "hafs-madinah-mumtaza", "riwaya": "Hafs 'an 'Asim (Madinah, mumtaza)", "file": "hafs-madinah-mumtaza.pdf", "sha256": "e90a6c6285a77400e4316b775f1badbb66d72a5a6f2d1722bc482ef702b4903a", "url": "https://dn721909.ca.archive.org/0/items/20240718_20240718_0417/%D9%85%D8%B5%D8%AD%D9%81%20%D8%A7%D9%84%D9%85%D8%AF%D9%8A%D9%86%D8%A9%20%D8%A7%D9%84%D9%86%D8%A8%D9%88%D9%8A%D8%A9%20%D8%A8%D8%B1%D9%88%D8%A7%D9%8A%D8%A9%20%D8%AD%D9%81%D8%B5%20-%20%D8%A7%D9%84%D9%85%D9%85%D8%AA%D8%A7%D8%B2%D8%A9.pdf", "archive_item": "20240718_20240718_0417", "archive_url": "https://archive.org/details/20240718_20240718_0417", "pdf_page": 300, "crop_box_px": [72, 202, 1596, 2408], "occurrence": 0, "occurrences_on_page": 1, "pipeline": "quran-assets 3011d73", "pipeline_sha256": "cb8d14caa65815e6eb7c1ba1137bdbc9c5f4ed1c90b89aad7ee822a28981c3e2", "extracted": "2026-09-10T02:08:21+0300"}</metadata>
<g transform="scale(0.0227)">
<g class="c1" data-part="c1" fill="#ffffff">
<path d="M 191 0 C 195.85 -0.17 200.71 -0.28 205.56 -0.38 C 206.93 -0.43 208.31 -0.48 209.72 -0.53 C 217.99 -0.65 222.08 -0.32 228 6 C 229.32 6 230.64 6 232 6 C 232.66 4.35 233.32 2.7 234 1 C 235.32 1 236.64 1 238 1 C 239.91 4.82 239.32 9.05 238 13 C 238.16 13.16 238.16 13.16 239 14 C 239 15.65 239 17.3 239 19 C 238.01 19.66 237.02 20.32 236 21 C 235.67 20.67 235.34 20.34 235 20 C 234.18 19.99 234.18 19.99 230 19.94 C 224.05 19.49 221.52 17.1 217.31 12.86 C 213.43 9.74 208.82 9.71 204 9 C 198.65 6.43 195.21 4.21 191 0 Z"/>
<path d="M 133 0 C 136.86 -0.22 140.7 -0.37 144.56 -0.5 C 145.11 -0.53 145.11 -0.53 147.85 -0.7 C 153.97 -0.85 156.44 -0.52 160.96 3.73 C 161.46 4.43 161.46 4.43 164 8 C 165.65 9.64 167.33 11.25 169.06 12.81 C 169.86 13.54 170.65 14.27 171.47 15.02 C 176.3 18.8 180.96 20.41 186.94 21.56 C 188.16 21.82 189.38 22.08 190.64 22.35 C 193.12 22.83 195.62 23.2 198.12 23.5 C 202.23 25.64 202.61 28.69 203.93 32.93 C 209.36 48.48 223.73 60.63 239 66 C 255.7 70.53 270.74 65.98 284.31 55.75 C 291.25 48.7 296.03 41.13 299.06 31.69 C 300 29 300 29 302 27 C 303.32 27 304.64 27 306 27 C 300.83 21.68 295.53 17.6 289.19 13.75 C 288.61 13.4 288.61 13.4 285.67 11.61 C 285.23 11.34 285.23 11.34 283 10 C 281.62 10.95 280.24 11.9 278.81 12.88 C 274 16 274 16 269 18 C 268.67 18.33 268.34 18.66 268 19 C 266.35 19 264.7 19 263 19 C 262.9 17.43 262.79 15.87 262.69 14.25 C 262 9 262 9 259 5 C 259 3.35 259 1.7 259 0 C 263.28 -0.08 266.76 0.15 271 1 C 271.33 0.67 271.66 0.34 272 0 C 302.29 -2.18 302.29 -2.18 313 9 C 314.01 10.02 315.02 11.03 316.06 12.08 C 317.97 14.02 319.84 15.99 321.66 18.01 C 324 20 324 20 328 19 C 335.59 13.99 341.95 7.57 347 0 C 367.84 -3.1 367.84 -3.1 375.96 2.95 C 378.68 6.52 380.87 10.06 383 14 C 383.69 14.75 384.38 15.5 385.09 16.28 C 387.54 19.76 387.5 21.85 387.51 26.09 C 387.51 26.81 387.51 26.81 387.54 30.47 C 387.54 31.26 387.54 31.26 387.52 35.26 C 387.52 36.1 387.52 36.1 387.54 40.32 C 387.56 45.85 387.54 51.37 387.53 56.9 C 387.53 60.74 387.54 64.57 387.54 68.41 C 387.55 76.45 387.54 84.49 387.52 92.53 C 387.5 101.83 387.51 111.12 387.53 120.42 C 387.55 129.36 387.55 138.31 387.54 147.25 C 387.53 151.05 387.54 154.86 387.55 158.66 C 387.56 163.98 387.54 169.29 387.52 174.61 C 387.53 176.19 387.53 177.77 387.54 179.39 C 387.53 180.84 387.52 182.29 387.51 183.78 C 387.51 184.41 387.51 184.41 387.5 187.59 C 386.21 196.35 377.87 202.55 372.02 208.64 C 369 212 369 212 368 215 C 368.64 215.7 369.28 216.4 369.94 217.12 C 374 221.57 378.05 226.02 382 230.56 C 383.62 232.42 385.26 234.26 387 236 C 387.27 238.91 387.27 238.91 387.31 242.72 C 387.33 244.16 387.34 245.6 387.36 247.08 C 387.36 247.88 387.36 247.88 387.39 251.9 C 387.39 252.74 387.39 252.74 387.44 256.95 C 387.49 262.5 387.52 268.04 387.55 273.58 C 387.56 275.47 387.57 277.36 387.58 279.31 C 387.62 287.26 387.66 295.21 387.68 303.16 C 387.71 314.54 387.78 325.92 387.9 337.3 C 387.98 346.27 388.01 355.24 388.03 364.22 C 388.04 368.03 388.07 371.84 388.12 375.65 C 388.18 380.99 388.18 386.33 388.17 391.68 C 388.2 393.24 388.23 394.81 388.27 396.43 C 388.14 407.88 384.69 413.71 377 422 C 371 429.76 371 429.76 371 432 C 363.41 432 355.82 432 348 432 C 347.34 430.35 346.68 428.7 346 427 C 344.16 424.77 342.23 422.61 340.25 420.5 C 339.22 419.4 338.2 418.29 337.14 417.16 C 331.32 411.31 331.32 411.31 328 409 C 322.25 410.15 320.67 412.25 316.75 416.37 C 303.55 429 303.55 429 298 429 C 298 429.99 298 430.98 298 432 C 290.08 432 282.16 432 274 432 C 273.34 430.35 272.68 428.7 272 427 C 269.69 426.67 267.38 426.34 265 426 C 264.67 427.32 264.34 428.64 264 430 C 263.34 430 262.68 430 262 430 C 262 430.66 262 431.32 262 432 C 261.01 432 260.02 432 259 432 C 258.62 423.38 258.62 423.38 262 420 C 262.44 416.68 262.78 413.34 263 410 C 264.98 410 266.96 410 269 410 C 269.33 410.66 269.66 411.32 270 412 C 270.62 412.23 270.62 412.23 273.75 413.38 C 277.61 414.85 279.97 416.26 283 419 C 303.9 407.3 303.9 407.3 306 401 C 304.35 401 302.7 401 301 401 C 299 399 299 399 297.38 393.56 C 294.19 383.71 288.22 376.24 280 370 C 279.09 369.3 278.19 368.6 277.25 367.88 C 261.17 358.6 246.5 359.81 230 367 C 216.72 374.47 208.18 385.72 202.52 399.55 C 201 403 201 403 199 405 C 196.38 405.45 193.76 405.84 191.12 406.19 C 176.22 408.68 165.18 417.06 156 429 C 156 429.99 156 430.98 156 432 C 148.41 432 140.82 432 133 432 C 133 426.83 134.32 426.45 138 423 C 140.01 420.63 142.01 418.26 144 415.88 C 156.36 401.55 167.8 393.81 186 389 C 186.27 387.06 186.54 385.12 186.81 383.12 C 188.63 371.7 191.81 363.97 199 355 C 199.95 353.78 200.9 352.57 201.88 351.31 C 204 349 204 349 206 349 C 206 348.01 206 347.02 206 346 C 205.56 345.88 205.56 345.88 203.34 345.25 C 188.9 339.84 178.25 323.78 173.96 309.57 C 171.62 299.41 171.7 289.38 172 279 C 170.78 278.86 169.56 278.72 168.31 278.58 C 142.31 275.09 126.68 254.47 112.51 234.45 C 110.24 231.32 107.88 228.31 105.44 225.31 C 102 221 102 221 101 218 C 100.01 217.67 99.02 217.34 98 217 C 98 210.82 100.02 209.57 104.1 205.27 C 107.68 201.23 110.84 196.93 114 192.56 C 128.24 173.01 145.14 150 172 150 C 171.98 148.76 171.95 147.51 171.93 146.23 C 171.68 123.11 176.37 104.77 194 89 C 202.4 83 202.4 83 205 83 C 204 79 204 79 200.81 75.88 C 190.65 65.54 187.89 53.84 186 40 C 182.48 38.79 179.07 37.78 175.44 36.94 C 158.86 31.03 146.22 16.86 136 3 C 135.01 2.01 134.02 1.02 133 0 Z M 353.69 17.69 C 348.15 23.97 342.34 29.52 336 35 C 336.3 35.61 336.3 35.61 337.79 38.7 C 344.59 52.87 350.11 66.64 354.33 81.78 C 356.97 90.89 360.9 97.69 368 104 C 368.66 104 369.32 104 370 104 C 370.25 93.13 370.43 82.26 370.55 71.39 C 370.6 67.69 370.67 64 370.75 60.31 C 370.88 54.98 370.93 49.66 370.98 44.33 C 371 43.51 371 43.51 371.13 39.37 C 371.14 27.93 368.45 20.92 360 13 C 356.77 13 355.74 15.33 353.69 17.69 Z M 311 46 C 310.28 47.53 309.56 49.05 308.81 50.62 C 304.13 60.38 295.36 69.51 285.56 74.06 C 281.27 77.61 281.54 78.26 281.62 83.56 C 281.72 84.68 281.82 85.79 281.91 86.94 C 282 90 282 90 280 94 C 274.92 97.05 272.08 97.69 266.31 98.5 C 264.62 98.75 262.93 99 261.19 99.26 C 259.48 99.5 257.77 99.75 256 100 C 231.41 103.54 208.13 109.71 195.5 132.84 C 191.18 141.94 189.48 151.12 188.39 161.08 C 188 164 188 164 187 165 C 185.98 164.99 184.97 164.97 183.92 164.96 C 152.75 165.27 136.34 191.32 120 214 C 134.27 235.96 149.67 258.94 177.38 262.62 C 186.91 263.91 186.91 263.91 188 265 C 188.33 267.31 188.61 269.62 188.88 271.94 C 191.55 292.45 200.11 308.15 218 319 C 230.63 324.25 243.49 327.19 257 329 C 260.44 329.47 263.88 329.94 267.31 330.44 C 268.08 330.54 268.08 330.54 271.99 331.06 C 276.12 332.03 278.08 332.98 281 336 C 282 339 282 339 281.31 344.62 C 281.22 350.59 282.88 352.45 287.62 355.94 C 289.75 357.3 291.87 358.65 294 360 C 298.42 363.35 301.52 366.73 304.62 371.31 C 305.4 372.45 306.17 373.58 306.96 374.75 C 309 378 309 378 311.19 382.75 C 313 386 313 386 316.25 387 C 319 387 319 387 321.5 383.56 C 334.24 364.39 341.35 343.45 335 321 C 334.34 319.68 333.68 318.36 333 317 C 332.92 314.67 332.91 312.33 333 310 C 336.96 309.67 340.92 309.34 345 309 C 345.66 310.81 345.66 310.81 349 320 C 353 319 353 319 355 317 C 356.3 309.3 356.3 309.3 355 308 C 354.6 305.15 354.26 302.3 353.94 299.44 C 353.85 298.65 353.85 298.65 353.4 294.68 C 353.27 293.47 353.14 292.25 353 291 C 352.34 291 351.68 291 351 291 C 349.68 294.96 348.36 298.92 347 303 C 345.02 303.33 343.04 303.66 341 304 C 340.94 302.91 340.88 301.81 340.81 300.69 C 340 297 340 297 335 294 C 334.01 293.01 333.02 292.02 332 291 C 331.34 291.33 330.68 291.66 330 292 C 330.66 293.32 331.32 294.64 332 296 C 332.68 299.33 333.35 302.66 334 306 C 334.33 306.33 334.66 306.66 335 307 C 332.69 307.33 330.38 307.66 328 308 C 327.34 306.68 326.68 305.36 326 304 C 322.42 297.68 317.73 290.36 311 287 C 310.59 284.01 310.25 281.01 310 278 C 319.19 277.68 328.06 277.71 336 283 C 336.99 282.67 337.98 282.34 339 282 C 338.34 280.68 337.68 279.36 337 278 C 342 280 342 280 344 284 C 346 284 346 284 348.12 281.25 C 350 278 350 278 350 274 C 353.63 274.33 357.26 274.66 361 275 C 360.81 276.38 360.63 277.76 360.44 279.19 C 360.04 284.46 360.25 289.11 360.75 294.34 C 361.14 300.07 360.97 305.8 360.84 311.54 C 361 315 361 315 363 317 C 365.32 317.4 367.66 317.74 370 318 C 370.18 307.61 370.3 297.22 370.38 286.82 C 370.42 283.29 370.47 279.75 370.53 276.22 C 370.61 271.14 370.65 266.05 370.68 260.97 C 370.72 259.39 370.76 257.81 370.79 256.19 C 370.8 247.08 370.28 242.27 363 236 C 362.6 235.56 362.6 235.56 360.59 233.31 C 359.9 232.55 359.21 231.79 358.5 231 C 354.62 226.7 350.81 222.36 347 218 C 346.67 217.67 346.34 217.34 346 217 C 346 210.61 347.69 209.66 352.06 205.19 C 353.25 203.96 354.43 202.72 355.66 201.45 C 356.76 200.31 357.86 199.17 359 198 C 361.38 195.37 363.69 192.7 366 190 C 366.71 189.26 367.42 188.52 368.16 187.75 C 370.57 184.15 370.48 181.86 370.45 177.55 C 370.45 176.05 370.45 174.55 370.45 173 C 370.44 172.19 370.44 172.19 370.39 168.11 C 370.39 167.28 370.39 167.28 370.37 163.08 C 370.35 157.78 370.3 152.49 370.25 147.19 C 370.23 143.6 370.21 140.01 370.2 136.42 C 370.15 127.61 370.08 118.81 370 110 C 367.03 110.99 364.06 111.98 361 113 C 361.01 114.45 361.02 115.9 361.04 117.39 C 361.12 135.12 361.12 135.12 360.44 141.88 C 360.04 146.51 360.21 150.43 361 155 C 357.37 154.67 353.74 154.34 350 154 C 349.67 152.68 349.34 151.36 349 150 C 348.01 148.35 347.02 146.7 346 145 C 343 146 343 146 342 149 C 341.18 149.33 341.18 149.33 337 151 C 337.66 149.02 338.32 147.04 339 145 C 336.22 146.11 333.44 147.27 330.75 148.58 C 326.39 150.23 322.71 150.51 318.06 150.69 C 316.55 150.75 315.03 150.82 313.47 150.89 C 312.33 150.92 311.18 150.96 310 151 C 309.74 142.74 312.38 140.23 318.35 135.33 C 324.04 130.33 328.1 124.64 329 117 C 329.99 116.67 330.98 116.34 332 116 C 333.5 112.19 333.5 112.19 335 107 C 335.58 105.12 336.15 103.25 336.75 101.31 C 341.48 81.42 331.59 57.29 319 42 C 315 42 315 42 311 46 Z M 350 108 C 346 116.62 346 116.62 346 120 C 344.91 119.79 343.81 119.59 342.69 119.38 C 339 119 339 119 336 121 C 335.31 123.66 334.65 126.33 334 129 C 332.73 131.7 331.41 134.37 330 137 C 335 135 335 135 340 132 C 340.81 128.31 340.81 128.31 341 125 C 342.32 125 343.64 125 345 125 C 345 125.66 345 126.32 345 127 C 345.99 127 346.98 127 348 127 C 348.15 127.72 348.15 127.72 348.94 131.38 C 350 136 350 136 351 138 C 351.66 138 352.32 138 353 138 C 353.17 135.1 353.33 132.21 353.5 129.31 C 353.59 127.7 353.69 126.09 353.78 124.43 C 353.94 121.29 354 118.14 354 115 C 354 113.68 354 112.36 354 111 C 352.68 110.01 351.36 109.02 350 108 Z M 362 330 C 356.82 337.7 354.62 346.2 352 355 C 348.04 367.95 343.56 380.65 336 392 C 336 395 336 395 340.81 398.44 C 341.81 399.13 342.8 399.82 343.82 400.53 C 349.21 404.72 353.56 409.85 358 415 C 364.94 411.53 369.33 406.73 370.7 399.09 C 370.92 394.36 370.9 389.69 370.78 384.96 C 370.77 383.24 370.76 381.53 370.75 379.76 C 370.7 374.3 370.6 368.84 370.5 363.38 C 370.46 359.66 370.42 355.95 370.39 352.24 C 370.3 343.16 370.17 334.08 370 325 C 366.35 325 364.53 327.57 362 330 Z"/>
<path d="M 391 0 C 397.93 0 404.86 0 412 0 C 412 142.56 412 285.12 412 432 C 405.07 432 398.14 432 391 432 C 391 289.44 391 146.88 391 0 Z"/>
<path d="M 265.12 113.94 C 266.4 113.95 267.69 113.96 269 113.97 C 270 113.98 270.99 113.99 272 114 C 271 114.66 270.01 115.32 269 116 C 269.62 116.26 269.62 116.26 272.81 117.56 C 277.56 120.33 278.29 121.94 280 127 C 280.65 127.33 281.31 127.66 282 128 C 282 129.98 282 131.96 282 134 C 281.35 134 280.69 134 280 134 C 279.3 135.1 278.6 136.19 277.88 137.32 C 273.12 143.41 268.94 144.02 261.38 143.94 C 256.27 143.05 253.91 142.23 250 139 C 249 138.34 248.03 137.68 247 137 C 247 135.02 247 133.04 247 131 C 248.41 130.34 249.81 129.68 251.25 129 C 256.4 125.74 257.82 123.58 260 118 C 258.01 118.66 256.05 119.32 254 120 C 256.79 113.03 258.11 113.88 265.12 113.94 Z"/>
<path d="M 225 156 C 225.99 156.99 226.98 157.98 228 159 C 231 158 231 158 232 156 C 236 158 236 158 237 163 C 240.52 165.16 244.15 166.46 248 168 C 248.47 167.2 248.95 166.39 249.44 165.56 C 253.11 161.89 255.92 162 261 162 C 262.65 162.99 264.3 163.98 266 165 C 268 166 268 166 272 164 C 281.23 163.21 284.64 165.64 291 172 C 292.97 173.05 294.98 174.05 297 175 C 308.2 181.2 308.2 181.2 311 184 C 311.04 187 311.04 190 311 193 C 312.65 192.34 314.3 191.68 316 191 C 316.99 191.99 317.98 192.98 319 194 C 318.34 195.32 317.68 196.64 317 198 C 320 202 320 202 322 202 C 322.45 207.91 322.48 208.52 318 213 C 319 217 319 217 322 221 C 322 222.98 322 224.96 322 227 C 320.68 227.33 319.36 227.66 318 228 C 317 233 317 233 319 237 C 314 238 314 238 311 236 C 311.12 237.22 311.25 238.43 311.38 239.69 C 310.89 245.26 309.57 245.98 305 249 C 304.36 249.42 304.36 249.42 301.12 251.56 C 297 254 297 254 292.81 256 C 289.08 257.96 286.82 259.93 284 263 C 279.21 265.39 273.03 264.01 268 263 C 267.34 263.66 266.68 264.32 266 265 C 259.64 266.23 255.7 266.14 250 263 C 249.67 262.67 249.67 262.67 248 261 C 242.03 262.49 238.78 264.45 236 270 C 236 270.66 236 271.32 236 272 C 235.34 272.16 235.34 272.16 232 273 C 231.67 271.68 231.34 270.36 231 269 C 226 271 226 271 224 273 C 217.35 273.35 217.35 273.35 216 272 C 215.27 265.26 217.56 260.17 220 254 C 213.95 253.87 208.02 254.41 202 255 C 199.9 250.53 199 248.05 199 243 C 199.66 242.84 199.66 242.84 203 242 C 205.25 238.94 205.25 238.94 207 236 C 205.02 235.67 203.04 235.34 201 235 C 204.4 229.34 205.04 229.44 211 228 C 211.16 227.67 211.16 227.67 212 226 C 210.99 225.96 209.98 225.92 208.94 225.88 C 203.76 224.72 201.48 222.98 198 219 C 197 213.45 197.17 211.11 200.56 206.56 C 204.09 203.93 206.76 203 211 202 C 211.33 201.34 211.66 200.68 212 200 C 211.37 199.97 211.37 199.97 208.19 199.81 C 204 199 204 199 201 194 C 202.98 194 204.96 194 207 194 C 203.5 187.12 203.5 187.12 199 186 C 199.33 184.35 199.66 182.7 200 181 C 200.34 178.67 200.68 176.34 201 174 C 207.85 173.86 214.27 174.88 221 176 C 220.64 175.13 220.28 174.26 219.91 173.37 C 219.44 172.21 218.98 171.06 218.5 169.88 C 218.04 168.74 217.57 167.6 217.09 166.43 C 216 163 216 163 216 157 C 218.2 154.8 222.17 155.83 225 156 Z M 256 177 C 256.59 177.7 257.18 178.4 257.79 179.12 C 262.31 184.54 266.43 189.89 270 196 C 270.99 195.67 271.98 195.34 273 195 C 274.04 191.35 275.04 187.68 276 184 C 276.99 182.35 277.98 180.7 279 179 C 279 178.34 279 177.68 279 177 C 274 177 274 177 273 178 C 271.02 178 269.04 178 267 178 C 266.34 176.68 265.68 175.36 265 174 C 258.25 173.62 258.25 173.62 256 177 Z M 244 184 C 245.92 191.67 253.13 198.31 260 202 C 260.66 202 261.32 202 262 202 C 258.51 195.01 252.76 189.24 247 184 C 246.01 184 245.02 184 244 184 Z M 221 188 C 220.67 188.66 220.34 189.32 220 190 C 221.32 189.67 222.64 189.34 224 189 C 223.01 188.67 222.02 188.34 221 188 Z M 286 190 C 283.95 193.3 281.95 196.64 280 200 C 279.01 200.33 278.02 200.66 277 201 C 277 203 277 203 281 206 C 284.34 206 285.77 203.33 288 201 C 288.47 200.58 288.47 200.58 290.88 198.44 C 291.58 197.63 292.28 196.83 293 196 C 292 192 292 192 290 190 C 288.68 190 287.36 190 286 190 Z M 228.65 206.14 C 226.5 209.86 226.79 211.86 227.44 216.06 C 227.6 217.27 227.76 218.48 227.93 219.72 C 229.21 223.66 230.46 224.92 234 227 C 243.41 227.52 249.55 223.11 257 218 C 260 216 260 216 265 216 C 266.67 218 268.33 220 270 222 C 275.77 222 276.71 221.55 280 217 C 279.93 212.71 279.38 210.57 277 207 C 273.69 206.44 273.69 206.44 270 207 C 267.06 210 267.06 210 265 213 C 260.34 212.07 257.54 210.88 253.44 208.62 C 252.88 208.32 252.88 208.32 250.06 206.79 C 247 205 247 205 243 202 C 237.82 202 232.54 202.59 228.65 206.14 Z M 298 210 C 295.69 211.37 293.36 212.72 291 214 C 291 214.66 291 215.32 291 216 C 292.36 216.56 293.72 217.11 295.12 217.69 C 299.49 219.76 302.38 221.9 306 225 C 306.99 225 307.98 225 309 225 C 308.12 219.12 308.12 219.12 307 218 C 306.96 215.67 306.96 213.33 307 211 C 307.66 210.67 308.32 210.34 309 210 C 309.33 208.35 309.66 206.7 310 205 C 304.15 203.54 302.58 206.37 298 210 Z M 282 222 C 280.68 223.32 279.36 224.64 278 226 C 280.97 230.95 283.94 235.9 287 241 C 291 240 291 240 294 238 C 294.13 232.65 292.82 231.85 288.56 228.31 C 287.06 227.22 285.55 226.13 284 225 C 283.34 224.01 282.68 223.02 282 222 Z M 261 226 C 242 240.45 242 240.45 242 247 C 251.5 243.2 256.56 236.28 262 228 C 261.67 227.34 261.34 226.68 261 226 Z M 270 233 C 269.66 233.48 269.66 233.48 267.95 235.89 C 267.51 236.51 267.51 236.51 265.25 239.69 C 264.37 240.93 263.49 242.17 262.58 243.45 C 260.46 246.37 258.29 249.21 256 252 C 257.32 252.99 258.64 253.98 260 255 C 261.03 254.15 262.06 253.31 263.12 252.44 C 267.37 249.77 268.39 249.46 273 251 C 274.32 251.66 275.64 252.32 277 253 C 277.66 252.67 278.32 252.34 279 252 C 273.53 234.76 273.53 234.76 270 233 Z M 219 238 C 219.33 238.5 219.33 238.5 221 241 C 222.65 240.67 224.3 240.34 226 240 C 222 238 222 238 219 238 Z"/>
<path d="M 272.31 286.06 C 275.73 288.53 277.64 291.53 280 295 C 280.66 295 281.32 295 282 295 C 282 300 282 300 279 303 C 278.67 303.82 278.67 303.82 277 308 C 273.58 310.67 271.23 311.94 267 313 C 267 313.66 267 314.32 267 315 C 258.37 315.25 258.37 315.25 255 313 C 255 312.01 255 311.02 255 310 C 256.98 310 258.96 310 261 310 C 260.01 308.68 259.02 307.36 258 306 C 257.34 304.68 256.68 303.36 256 302 C 251.87 299.75 251.87 299.75 248 298 C 248 292 248 292 250.69 289.25 C 257.55 284.59 264.35 283.51 272.31 286.06 Z"/>
<path d="M 236 407 C 239 409 239 409 239.12 413.38 C 239.08 414.9 239.04 416.43 239 418 C 239.16 418.66 239.16 418.66 240 422 C 240.04 424.33 240.04 426.67 240 429 C 234 429 234 429 233 428 C 233 426.35 233 424.7 233 423 C 226.74 423 225.36 424.73 221 429 C 220.67 429.99 220.34 430.98 220 432 C 210.43 432 200.86 432 191 432 C 192.36 425.22 195.21 424.43 201 421 C 206 419 206 419 211 418.75 C 216.86 417.87 217.73 416.71 221 412 C 225.61 409.69 229.96 408.98 235 408 C 235.33 407.67 235.66 407.34 236 407 Z"/>
</g>
<g class="c2" data-part="c2" fill="#d5dfd6">
<path d="M 235 0 C 240.12 -0.03 245.25 -0.05 250.38 -0.06 C 251.84 -0.07 253.3 -0.08 254.8 -0.09 C 256.2 -0.09 257.59 -0.09 259.02 -0.1 C 260.31 -0.1 261.6 -0.11 262.93 -0.11 C 266 0 266 0 268 1 C 268 2.65 268 4.3 268 6 C 268.99 7.65 269.98 9.3 271 11 C 271 16 271 16 269 18 C 268.44 19.55 267.89 21.09 267.31 22.69 C 263.54 31.35 257.87 35.2 250 40 C 247.29 44.06 247.93 47.2 248 52 C 247 53 247 53 243.88 52.94 C 237.49 51.39 233.9 47.79 231 42 C 230 33.94 230.24 28.19 236 22 C 235 20 235 20 231.94 19.38 C 230.97 19.25 230 19.13 229 19 C 229 13.19 229.55 11.13 232 6.12 C 232.28 5.55 232.28 5.55 233.69 2.63 C 234.12 1.76 234.55 0.9 235 0 Z M 255 15 C 254.84 16.07 254.67 17.14 254.5 18.25 C 252.47 23.34 249.95 23.97 245 26 C 244.34 26.33 244.34 26.33 241 28 C 241.33 29.65 241.66 31.3 242 33 C 255.41 24.95 255.41 24.95 257 17 C 256.34 16.34 255.68 15.68 255 15 Z"/>
<path d="M 247 376 C 247.08 377.38 247.16 378.76 247.25 380.19 C 248.56 388.6 253.37 391.11 260 396 C 261.7 397.63 263.38 399.29 265 401 C 265.66 401.66 266.32 402.32 267 403 C 267.5 404.51 267.99 406.01 268.5 407.56 C 270 412 270 412 272 413 C 272 414.65 272 416.3 272 418 C 271.67 418.17 271.67 418.17 270 419 C 268.9 420.82 267.87 422.68 266.88 424.56 C 266.34 425.57 265.8 426.59 265.24 427.63 C 264.83 428.41 264.42 429.19 264 430 C 263.34 430 262.68 430 262 430 C 262 430.66 262 431.32 262 432 C 257.92 432.11 253.83 432.19 249.75 432.25 C 248.59 432.28 247.43 432.32 246.24 432.35 C 237.45 432.45 237.45 432.45 233 428 C 232.38 424.56 232.38 424.56 232 421 C 231.34 419.35 230.68 417.7 230 416 C 230 414.02 230 412.04 230 410 C 231.98 409.01 233.96 408.02 236 407 C 235.59 406.57 235.59 406.57 233.5 404.38 C 229.99 398.23 229.99 392.93 231 386 C 234.69 378.72 238.9 376 247 376 Z M 242 396 C 241.67 397.98 241.34 399.96 241 402 C 242.4 402.41 243.81 402.82 245.25 403.25 C 250 405 250 405 254 409 C 254.33 410.65 254.66 412.3 255 414 C 255.66 413.67 256.32 413.34 257 413 C 256.85 406.65 253.63 404.03 249 400 C 245.06 397.56 245.06 397.56 242 396 Z"/>
</g>
<g class="c3" data-part="c3" fill="#f7e45d">
<path d="M 59 0 C 75.17 0 91.34 0 108 0 C 106.68 1.32 105.36 2.64 104 4 C 103.71 5.2 103.42 6.39 103.12 7.62 C 102 11 102 11 99.12 12.38 C 98.09 12.58 97.06 12.79 96 13 C 94.68 13.33 93.36 13.66 92 14 C 89.86 14.14 87.71 14.22 85.56 14.25 C 85.01 14.26 85.01 14.26 82.19 14.33 C 76.95 13.79 72.84 10.31 68.44 7.56 C 67.97 7.27 67.97 7.27 65.62 5.82 C 63 4 63 4 59 0 Z"/>
<path d="M 319 72 C 323.41 87.68 321.95 101.88 313.06 115.5 C 310.24 118.73 307.41 121.4 304 124 C 304.33 124.66 304.66 125.32 305 126 C 305.87 134.22 303.22 140.18 297 145.62 C 294 147 294 147 289 146 C 287.27 143.04 285.6 140.04 284 137 C 283.34 136.5 283.34 136.5 280 134 C 278.68 135.32 277.36 136.64 276 138 C 274.68 136.68 273.36 135.36 272 134 C 272.17 133.67 272.17 133.67 273 132 C 273 126 273 126 270 123 C 266.81 123.31 266.81 123.31 264 124 C 264 125.32 264 126.64 264 128 C 264.99 128.33 265.98 128.66 267 129 C 266.34 130.65 265.68 132.3 265 134 C 260 134 260 134 255 133 C 255.99 133.99 256.98 134.98 258 136 C 258 136.66 258 137.32 258 138 C 256.02 138.99 254.04 139.98 252 141 C 251.01 140.01 250.02 139.02 249 138 C 240.92 142.04 238.48 149.8 236 158 C 237 163 237 163 240 165 C 237 168 237 168 234.25 167.81 C 230.81 166.95 227.4 166.02 224 165 C 224.33 165.99 224.66 166.98 225 168 C 220 168 220 168 217 165 C 216.62 160.44 216.62 160.44 217 156 C 217.5 155.67 217.5 155.67 220 154 C 220.99 151.02 220.99 151.02 221.88 147.38 C 226.34 131.01 237.97 120.58 253.5 114.67 C 259.83 112.48 266.19 110.68 272.69 109.06 C 288.4 104.96 301.12 97.16 308 82 C 309.38 76.81 309.38 76.81 310 73 C 312.08 70.92 316.24 71.96 319 72 Z M 294 115 C 299 113 299 113 300 111 C 298 111 298 111 294 115 Z M 269 115 C 268.67 115.66 268.34 116.32 268 117 C 268.66 117 269.32 117 270 117 C 269.67 116.34 269.34 115.68 269 115 Z M 283.88 118.44 C 282.78 118.91 281.68 119.38 280.55 119.87 C 279.71 120.24 278.87 120.62 278 121 C 278.33 121.99 278.66 122.98 279 124 C 280.07 123.98 281.14 123.96 282.25 123.94 C 286 124 286 124 290 125 C 289.67 122.69 289.34 120.38 289 118 C 289.99 117.67 290.98 117.34 292 117 C 288.86 115.43 286.99 117.08 283.88 118.44 Z"/>
<path d="M 348 137 C 348.78 138.46 349.57 139.93 350.38 141.44 C 353 146 353 146 355 147 C 355 144.69 355 142.38 355 140 C 358.48 144.64 358.33 146.13 358.19 151.75 C 358.17 152.43 358.17 152.43 358.11 155.86 C 358.07 156.9 358.04 157.93 358 159 C 357.18 158.67 357.18 158.67 353 157 C 352.63 158.53 352.26 160.05 351.88 161.62 C 348.76 172.95 344.09 182.67 337 192 C 336.45 192.74 336.45 192.74 333.69 196.5 C 322.03 210.73 322.03 210.73 315.38 211.62 C 314.26 211.42 313.15 211.21 312 211 C 312.27 209.95 312.54 208.9 312.81 207.81 C 313 204 313 204 310.56 201.69 C 306.71 197.65 307.45 194.36 308 189 C 308.99 188.01 309.98 187.02 311 186 C 311 188.31 311 190.62 311 193 C 315.31 189.67 318.09 186.57 321 182 C 321.79 180.78 322.59 179.56 323.4 178.3 C 328.23 170.7 332.48 163.28 336 155 C 336.33 154.67 336.66 154.34 337 154 C 337.37 151.34 337.7 148.67 338 146 C 336.02 146.99 334.04 147.98 332 149 C 335.01 137.83 336.47 136.7 348 137 Z"/>
<path d="M 201 178 C 209.75 177.88 209.75 177.88 212 179 C 212 179.66 212 180.32 212 181 C 210.68 181 209.36 181 208 181 C 209 184.83 209.95 186.95 212.62 189.94 C 215.49 193.63 215.7 195.44 215 200 C 214.01 200.66 213.02 201.32 212 202 C 212 201.34 212 200.68 212 200 C 194.89 198.45 182.64 200.36 170 213 C 173.97 220.94 181.94 225.78 190 229 C 197.71 230.01 203.42 230.04 211 228 C 214 228 214 228 215 229 C 215.74 235.27 214.16 237.46 210 242 C 208.94 243.97 207.92 245.96 207 248 C 208.65 248 210.3 248 212 248 C 210 251 210 251 205.38 251.19 C 203.93 251.13 202.49 251.06 201 251 C 200.67 250.34 200.34 249.68 200 249 C 197.82 248.56 195.63 248.2 193.44 247.88 C 175.57 244.45 160.2 234.04 150 219 C 149.01 218.01 148.02 217.02 147 216 C 148.31 209.43 152.06 206.43 156.69 201.94 C 157.49 201.14 158.29 200.33 159.12 199.51 C 169.99 188.8 184.14 179.94 200 181 C 200.33 180.01 200.66 179.02 201 178 Z"/>
<path d="M 265 199 C 268.96 199 272.92 199 277 199 C 277 200.32 277 201.64 277 203 C 283.8 206.4 283.8 206.4 288 205 C 288 207.31 288 209.62 288 212 C 287.67 212.16 287.67 212.16 286 213 C 286.66 214.32 287.32 215.64 288 217 C 288.08 219.33 288.09 221.67 288 224 C 287.11 223.73 286.23 223.46 285.31 223.19 C 280.77 222.93 279.74 224.54 277 228 C 277 228.66 277 229.32 277 230 C 273.04 230 269.08 230 265 230 C 265.33 228.35 265.66 226.7 266 225 C 261 223 261 223 257 224 C 256.62 217.38 256.62 217.38 260 214 C 259.01 213.01 258.02 212.02 257 211 C 257 209.35 257 207.7 257 206 C 259 205 259 205 262 206 C 265 203 265 203 265 199 Z"/>
<path d="M 92 205 C 97 209.13 97 209.13 97 212 C 99.31 210.35 101.62 208.7 104 207 C 104 211.95 104 216.9 104 222 C 103.01 221.34 102.02 220.68 101 220 C 101 219.34 101 218.68 101 218 C 99.68 217.67 98.36 217.34 97 217 C 96.34 218.65 95.68 220.3 95 222 C 91.66 223.67 88.66 223.28 85 223 C 81 219 81 219 80 217 C 76.94 216.38 76.94 216.38 74 216 C 74 214.68 74 213.36 74 212 C 74.45 211.97 74.45 211.97 76.75 211.81 C 80.77 210.81 81.68 209.32 84 206 C 86 205 86 205 92 205 Z"/>
<path d="M 312 218 C 318.66 217.44 320.58 218.14 325 223 C 325.47 223.47 325.47 223.47 327.83 225.84 C 335.02 233.31 340.36 240.74 345 250 C 345.58 251.14 346.15 252.28 346.75 253.46 C 349.71 259.56 351.86 265.26 353 272 C 354.65 271.34 356.3 270.68 358 270 C 358.08 272.44 358.14 274.87 358.19 277.31 C 358.2 277.99 358.2 277.99 358.29 281.43 C 358 285 358 285 355 288 C 355 285.69 355 283.38 355 281 C 354.34 281 353.68 281 353 281 C 352.34 282.65 351.68 284.3 351 286 C 350.02 288.01 349.02 290.01 348 292 C 338.5 292.5 338.5 292.5 334 288 C 333.25 284.25 333.25 284.25 333 281 C 334.65 281.33 336.3 281.66 338 282 C 333.13 267.96 327.48 254.59 318 243 C 317.09 241.87 316.19 240.73 315.25 239.56 C 313 237 313 237 311 236 C 311 238.31 311 240.62 311 243 C 306.71 238.71 307.43 235.88 308 230 C 309.63 228.29 311.29 226.62 313 225 C 312.81 221.19 312.81 221.19 312 218 Z"/>
<path d="M 225 261 C 224.67 261.99 224.34 262.98 224 264 C 229.75 262.12 229.75 262.12 232 261 C 233.98 261 235.96 261 238 261 C 238.66 261.99 239.32 262.98 240 264 C 238.68 265.32 237.36 266.64 236 268 C 235.65 276.84 238.51 280.62 244 287 C 244 287.66 244 288.32 244 289 C 245.65 289.66 247.3 290.32 249 291 C 249.99 290.01 250.98 289.02 252 288 C 257 290 257 290 259 292 C 258.01 292.33 257.02 292.66 256 293 C 256.33 293.99 256.66 294.98 257 296 C 259.31 295.34 261.62 294.68 264 294 C 267 298 267 298 267 300 C 265.68 300.66 264.36 301.32 263 302 C 263.66 303.32 264.32 304.64 265 306 C 270 306 270 306 273 302 C 272.69 297.25 272.69 297.25 272 293 C 273.65 292.34 275.3 291.68 277 291 C 278.32 292.32 279.64 293.64 281 295 C 285.8 291.8 287.66 288.2 290 283 C 297.75 283 298.46 285.07 303 291 C 305 295 305 295 304.69 300.38 C 305.08 307.47 306.58 307.78 312 312 C 318.32 320.99 321.29 328.88 321.25 339.94 C 321.25 340.69 321.25 340.69 321.27 344.53 C 321 348.93 320.21 352.77 319 357 C 316.36 357 313.72 357 311 357 C 310.46 355.21 309.93 353.41 309.38 351.56 C 304.28 336.36 294.34 328.08 280 322 C 278.1 321.44 276.2 320.89 274.25 320.31 C 270 319 270 319 268 315 C 268 314.01 268 313.02 268 312 C 267.67 313.65 267.34 315.3 267 317 C 249.5 315.07 234.07 306.63 225.25 291.19 C 223.57 287.33 222.39 284.02 221.38 280 C 220 275 220 275 217 273 C 216.35 265.31 216.19 261 225 261 Z M 285 305 C 282.67 305.08 280.33 305.09 278 305 C 277.67 305.99 277.34 306.98 277 308 C 278.75 308.66 280.51 309.32 282.31 310 C 283.3 310.37 284.28 310.74 285.3 311.12 C 288 312 288 312 291 312 C 291 309.03 291 306.06 291 303 C 289 303 289 303 285 305 Z M 291 312 C 291.99 312.99 292.98 313.98 294 315 C 294.66 314.67 295.32 314.34 296 314 C 295.18 313.67 295.18 313.67 291 312 Z M 296 315 C 296.33 315.66 296.66 316.32 297 317 C 297.66 316.67 298.32 316.34 299 316 C 298.01 315.67 297.02 315.34 296 315 Z"/>
<path d="M 79 414 C 97.29 413.29 97.29 413.29 103 419 C 103 420.98 103 422.96 103 425 C 104.32 425.66 105.64 426.32 107 427 C 107.16 427.82 107.16 427.82 108 432 C 91.5 432 75 432 58 432 C 58 428 58 428 60.31 426.19 C 61.53 425.47 62.75 424.74 64 424 C 64.89 423.4 65.79 422.81 66.71 422.19 C 67.67 421.55 68.63 420.91 69.62 420.25 C 70.09 419.94 70.09 419.94 72.41 418.39 C 75 417 75 417 79 417 C 79 416.01 79 415.02 79 414 Z"/>
</g>
<g class="c4" data-part="c4" fill="#70b699">
<path d="M 217 0 C 226.24 0 235.48 0 245 0 C 245 3 245 3 242.62 4.75 C 239.34 7.57 239.01 9.88 238 14 C 232.76 16.62 225.63 15.77 220 15 C 215.98 12.74 214.04 10.59 211 7 C 211 6.34 211 5.68 211 5 C 218.26 4.39 218.26 4.39 221.88 7.38 C 222.58 8.24 223.28 9.11 224 10 C 226 12 226 12 230 12 C 230 11.01 230 10.02 230 9 C 229.18 8.84 229.18 8.84 225 8 C 217 1.51 217 1.51 217 0 Z"/>
<path d="M 353 5 C 358.93 4.29 361.1 4.1 365.43 8.43 C 366.42 9.9 367.42 11.36 368.44 12.88 C 369.45 14.34 370.46 15.8 371.5 17.3 C 371.91 17.91 371.91 17.91 374 21 C 374.66 21.66 375.32 22.32 376 23 C 376.28 25.78 376.28 25.78 376.33 29.41 C 376.35 30.78 376.37 32.15 376.39 33.56 C 376.41 35.08 376.42 36.59 376.43 38.15 C 376.45 39.74 376.48 41.33 376.5 42.96 C 376.56 48.24 376.61 53.52 376.65 58.8 C 376.67 60.6 376.68 62.4 376.7 64.25 C 376.77 73.8 376.82 83.34 376.86 92.88 C 376.91 100.77 376.98 108.66 377.09 116.56 C 377.22 126.09 377.29 135.61 377.31 145.14 C 377.33 148.77 377.37 152.4 377.44 156.02 C 378.01 190.46 378.01 190.46 366.32 199.65 C 365.22 200.42 364.13 201.2 363 202 C 361.17 204.01 359.39 206.07 357.69 208.19 C 356.97 209.05 356.25 209.91 355.51 210.79 C 354 213 354 213 354 216 C 356.09 218.53 356.09 218.53 358.94 221.5 C 363.6 226.45 367.97 231.52 372.22 236.82 C 374 239 374 239 376 241 C 376.28 243.77 376.28 243.77 376.31 247.37 C 376.33 248.73 376.35 250.1 376.37 251.5 C 376.38 253.01 376.39 254.51 376.4 256.06 C 376.41 256.85 376.41 256.85 376.46 260.84 C 376.51 266.09 376.55 271.33 376.58 276.58 C 376.59 278.37 376.61 280.16 376.62 282 C 376.68 291.49 376.72 300.97 376.76 310.45 C 376.79 318.3 376.85 326.14 376.94 333.99 C 377.05 343.45 377.1 352.92 377.12 362.39 C 377.14 366 377.17 369.6 377.22 373.21 C 377.29 378.27 377.3 383.33 377.28 388.39 C 377.32 389.87 377.35 391.35 377.39 392.87 C 377.26 403.18 374.36 408.5 367.46 416.13 C 365 419 365 419 364 423 C 360.56 423.69 360.56 423.69 356 423 C 352.55 419.68 349.86 415.82 347 412 C 342.65 407.23 338.48 403.54 333 400.19 C 331.35 399.14 329.7 398.08 328 397 C 328 396.01 328 395.02 328 394 C 327.11 394.21 326.23 394.41 325.31 394.62 C 322 395 322 395 317 393 C 315.67 392.78 314.34 392.57 312.97 392.35 C 307.67 390.55 306.91 388.4 304.5 383.44 C 297.17 369.46 287.39 362.03 274 354 C 274.88 348.12 274.88 348.12 276 347 C 276.31 343.62 276.31 343.62 276 340 C 271.74 336.81 270.01 336.43 264.88 335.75 C 263.47 335.56 262.06 335.36 260.6 335.15 C 259.12 334.96 257.65 334.76 256.12 334.56 C 229.52 331.02 204.71 324.52 190.69 299.75 C 185.59 289.77 183.83 280.13 183 269 C 182.46 268.96 182.46 268.96 179.7 268.74 C 153.21 266.21 139.06 251.7 124 231 C 123.25 229.98 122.5 228.95 121.73 227.9 C 113.44 216.56 113.44 216.56 115 210 C 116.75 207.11 116.75 207.11 119 204.31 C 119.41 203.79 119.41 203.79 121.48 201.17 C 121.9 200.65 121.9 200.65 124 198 C 125.44 196.02 126.88 194.04 128.31 192.06 C 142.67 173 156.9 162.31 181 160 C 183 159 183 159 183.49 156.3 C 183.56 155.71 183.56 155.71 183.88 152.75 C 186.54 132.71 195.87 115.25 214 105 C 225.9 99.26 237.78 96.87 250.77 95.04 C 251.98 94.87 253.19 94.7 254.43 94.52 C 256.86 94.18 259.29 93.85 261.72 93.53 C 267.38 92.75 271.03 91.98 276 89 C 276.55 84.61 276.48 82.71 274 79 C 275.24 72.81 276.45 72.61 281.69 69.5 C 292.72 62.88 299.79 55.67 304.5 43.62 C 307.72 36.8 312.38 35.87 319.44 34.36 C 323 34 323 34 328 35 C 328 33.68 328 32.36 328 31 C 329.26 30.38 330.52 29.76 331.81 29.12 C 340.75 24.15 348.55 16.63 354 8 C 353.67 7.01 353.34 6.02 353 5 Z M 329 38 C 328.01 38.66 327.02 39.32 326 40 C 327.75 44.38 329.72 48.43 331.88 52.62 C 340.42 69.66 348.23 93.55 339 112 C 339.66 111.67 339.66 111.67 343 110 C 341.46 117.68 341.46 117.68 337.38 120.5 C 332.84 124.13 330.77 127.21 327.88 132.1 C 324.78 136.88 320.87 140.83 317 145 C 317 145.33 317 145.66 317 146 C 325.57 145.46 331.17 143.13 338 138 C 341.75 137.81 341.75 137.81 345 138 C 345.33 140.31 345.66 142.62 346 145 C 345.5 145.16 345.5 145.16 343 146 C 342.32 148.33 341.66 150.66 341 153 C 340.5 153.33 340.5 153.33 338 155 C 338.66 155 339.32 155 340 155 C 334.54 170.75 327.9 184.1 316 196 C 317.75 201.88 317.75 201.88 320 203 C 321.69 201.36 323.35 199.68 325 198 C 325.68 197.32 326.36 196.64 327.05 195.93 C 338.34 184.09 347.84 167.36 350 151 C 349.67 150.67 349.34 150.34 349 150 C 349.99 149.67 350.98 149.34 352 149 C 352.33 148.34 352.66 147.68 353 147 C 353.66 147 354.32 147 355 147 C 358.99 115.99 358.99 115.99 354 111 C 354 109.02 354 107.04 354 105 C 356.35 105 358.79 106.25 361 107 C 359 103 359 103 357.03 100.57 C 351.78 93.91 349.72 85.25 347.56 77.19 C 338.23 42.62 338.23 42.62 329 38 Z M 314 79 C 313.65 79.91 313.65 79.91 311.88 84.5 C 304.41 102.37 289.52 108.65 271.89 113.96 C 269 115 269 115 268 117 C 269.65 117.66 271.3 118.32 273 119 C 271.04 119.67 269.08 120.34 267.12 121 C 266.03 121.37 264.94 121.74 263.82 122.12 C 261 123 261 123 259 123 C 259.33 121.35 259.66 119.7 260 118 C 243.94 123.02 232.78 131.29 226 147 C 225.31 150.75 225.1 154.17 225 158 C 226.65 158.66 228.3 159.32 230 160 C 232 158 232 158 233.25 152.5 C 235.78 142.04 240.34 135.1 250 130 C 256 130 256 130 258 131 C 257.01 131.66 256.02 132.32 255 133 C 256 136 256 136 260 138 C 265.69 138.63 268.57 137.59 273 134 C 274 132 274 132 274 126 C 283.11 128.51 288.49 132.69 293 141 C 298.88 136.25 298.88 136.25 300 134 C 299.9 133.04 299.81 132.08 299.71 131.09 C 298.81 121.47 298.81 121.47 302.27 117.2 C 304.23 115.55 306.22 113.93 308.22 112.34 C 316.59 105.29 317.16 95.23 317 85 C 316.71 82.99 316.4 80.99 316 79 C 315.34 79 314.68 79 314 79 Z M 228 161 C 228 162.32 228 163.64 228 165 C 226.35 164.67 224.7 164.34 223 164 C 226.88 173.88 226.88 173.88 228 175 C 228.04 177.33 228.04 179.67 228 182 C 222.82 182 217.71 181.04 212.59 180.34 C 209 180 209 180 207 181 C 207.19 182.11 207.37 183.23 207.56 184.38 C 208 188 208 188 207 190 C 210.99 191.84 213.56 193 218 193 C 218.33 193 218.66 193 219 193 C 219.36 198.7 218.88 203.01 216 208 C 211 209.19 211 209.19 206 210 C 205.01 211.65 204.02 213.3 203 215 C 208.17 219.92 208.17 219.92 212.69 220.38 C 216 221 216 221 217.94 224.12 C 218.99 227.96 219.24 231.05 219 235 C 217.35 235.33 215.7 235.66 214 236 C 213.34 236.33 213.34 236.33 210 238 C 208.68 238 207.36 238 206 238 C 206.33 237.5 206.33 237.5 208 235 C 206.98 234.99 205.97 234.97 204.92 234.96 C 189.4 234.42 175.18 229.53 165 217 C 165 209.22 168.27 207.42 174 203 C 174.95 202.26 175.9 201.51 176.88 200.75 C 186.78 195.2 195.81 194.28 207 194 C 205 189 205 189 203 186 C 182.43 183.83 166.84 197.48 154 212 C 153.67 212.99 153.34 213.98 153 215 C 166.79 230.73 180.98 243.6 203 243 C 203.16 242.5 203.16 242.5 204 240 C 205.32 240.66 206.64 241.32 208 242 C 207.67 243.98 207.34 245.96 207 248 C 220.63 248.37 220.63 248.37 227 246 C 229.16 248.16 228.26 251.21 228 254 C 226.44 257.39 224.79 260.73 223 264 C 229.28 266.09 237.45 258.82 242.62 255.19 C 251.27 248.7 266 236.67 266 225 C 264.35 224.01 262.7 223.02 261 222 C 250.31 227.71 241.44 234.33 234 244 C 234 233.29 241.89 227.85 250 222 C 253.82 219.45 256.07 219.76 260.62 219.81 C 261.98 219.82 263.33 219.83 264.73 219.83 C 268 220 268 220 269 221 C 270.52 236.71 263.01 244.68 252 255 C 256.02 260 256.02 260 260.62 260 C 264 259 264 259 267 256 C 267 255.34 267 254.68 267 254 C 270.4 255.06 273.01 256.01 276 258 C 279.19 257.62 279.19 257.62 282 257 C 281.67 255.68 281.34 254.36 281 253 C 281 252.01 281 251.02 281 250 C 279.36 247.32 277.69 244.65 276 242 C 271.91 235.18 271.35 229.81 271 222 C 272.65 221.67 274.3 221.34 276 221 C 277.32 219.68 278.64 218.36 280 217 C 285.47 216.27 288.97 217.53 293.75 220.12 C 294.86 220.71 295.97 221.29 297.11 221.88 C 300.38 224.28 301.51 226.28 303 230 C 309 230 309 230 313 228 C 314.49 222.63 314.46 221.62 311 217 C 311 211 311 211 314 207 C 313.94 203.87 313.94 203.87 313 201 C 309 199 309 199 304 199 C 304 193 304 193 306 188 C 305.41 187.64 305.41 187.64 302.44 185.81 C 298 183 298 183 294.31 180.12 C 291 178 291 178 286 179 C 278.4 189.6 278.4 189.6 280 196 C 284 190.25 284 190.25 284 188 C 290 188 290 188 294 192 C 293.91 197.09 293.12 198.84 290 203 C 294.27 201.29 296.61 199.9 300 197 C 300 203 300 203 296 207 C 290.08 210.34 286.87 212 280 212 C 278.29 210.37 276.62 208.71 275 207 C 273.68 207 272.36 207 271 207 C 271 203.04 271 199.08 271 195 C 271.66 195 272.32 195 273 195 C 273.13 194.46 273.13 194.46 273.81 191.75 C 275 188 275 188 278 184 C 278 183.34 278 182.68 278 182 C 279.65 181.67 281.3 181.34 283 181 C 282.01 179.68 281.02 178.36 280 177 C 280.99 175.68 281.98 174.36 283 173 C 280 170 280 170 276 169 C 271 172 271 172 270 174 C 268.35 174.33 266.7 174.66 265 175 C 264.67 174.18 264.67 174.18 263 170 C 260 168 260 168 255 169 C 254.01 169.99 253.02 170.98 252 172 C 253.98 175.95 255.63 177.73 258.81 180.69 C 267.13 188.95 270.6 196.23 269 208 C 265.35 211.65 260.86 210.36 256 210 C 251.06 207.62 251.06 207.62 247 205 C 245.68 204.34 244.36 203.68 243 203 C 242.67 202.34 242.67 202.34 241 199 C 240.13 198.05 239.27 197.1 238.38 196.12 C 236 193 236 193 236 187 C 236.8 187.82 237.59 188.64 238.41 189.48 C 239.47 190.56 240.53 191.64 241.62 192.75 C 242.15 193.28 242.15 193.28 244.79 195.98 C 247.72 198.73 250.59 200.89 254 203 C 254.66 202.67 255.32 202.34 256 202 C 255.18 201.38 254.35 200.76 253.5 200.12 C 249.15 196.24 244.93 192.08 242 187 C 242.33 185.35 242.66 183.7 243 182 C 248.73 182.33 251.01 184.46 254.88 188.56 C 255.36 189.07 255.36 189.07 257.8 191.63 C 258.17 192.02 258.17 192.02 260 194 C 260 185.44 248.47 177.59 242 173 C 231.72 166 231.72 166 229 166 C 229 164.35 229 162.7 229 161 C 228.67 161 228.34 161 228 161 Z M 261 194 C 261.33 194.99 261.66 195.98 262 197 C 262 196.01 262 195.02 262 194 C 261.67 194 261.34 194 261 194 Z M 278 196 C 279 198 279 198 279 198 Z M 277 198 C 278 201 278 201 278 201 Z M 264 199 C 264 200.65 264 202.3 264 204 C 264.66 203.67 265.32 203.34 266 203 C 265.34 201.68 264.68 200.36 264 199 Z M 256 203 C 259 206 259 206 262 207 C 262.33 206.34 262.66 205.68 263 205 C 260.69 204.34 258.38 203.68 256 203 Z M 288 203 C 287.67 203.66 287.34 204.32 287 205 C 287.99 204.67 288.98 204.34 290 204 C 289.34 203.67 288.68 203.34 288 203 Z M 289 225 C 289.33 225.66 289.66 226.32 290 227 C 290.66 226.67 291.32 226.34 292 226 C 291.01 225.67 290.02 225.34 289 225 Z M 316 230 C 317.25 235.01 320.08 237.31 323.52 241.02 C 327.83 246.2 330.85 252.06 334 258 C 334.72 259.26 335.44 260.52 336.19 261.81 C 338.66 267.53 340.17 273.45 341.75 279.46 C 343 283 343 283 346 284 C 345.67 285.98 345.34 287.96 345 290 C 337.28 290.86 333.47 287.91 327 284 C 321.88 283.12 321.88 283.12 318 283 C 320.08 287.16 322.72 290 325.84 293.41 C 328.11 296.13 329.95 298.92 331.81 301.94 C 335 307 335 307 338 309 C 338.99 309 339.98 309 341 309 C 341.99 312.96 342.98 316.92 344 321 C 343.01 319.68 342.02 318.36 341 317 C 340.67 317.16 340.67 317.16 339 318 C 339.5 319.26 339.99 320.52 340.5 321.81 C 346.52 342.19 339.23 361.42 330.24 379.48 C 328 384 328 384 326 389 C 327.32 389.66 328.64 390.32 330 391 C 340.88 375.88 346.17 358.77 350.5 340.81 C 352.61 334.05 356.01 328.99 361 324 C 361 323.34 361 322.68 361 322 C 356 323 356 323 353 325 C 353.16 324.5 353.16 324.5 354 322 C 354.33 320.35 354.66 318.7 355 317 C 355.35 315.6 355.7 314.19 356.06 312.75 C 357.62 304.86 356.94 297.38 356 289.44 C 355.81 287.85 355.63 286.26 355.44 284.62 C 355.29 283.43 355.15 282.23 355 281 C 354.34 281 353.68 281 353 281 C 349.37 277.37 349.66 275.95 349 271 C 342.72 253.92 333.41 239.24 321 226 C 319 226 319 226 316 230 Z M 292 227 C 292.68 228.03 293.36 229.06 294.06 230.12 C 296.13 234.26 296.5 235.71 295 240 C 291.36 242.43 289.29 242.16 285 242 C 283.02 238.37 281.04 234.74 279 231 C 276.82 235.35 281.06 241.87 283 246 C 285.81 249.31 285.81 249.31 288 251 C 292.72 249.11 295.93 246.98 300 244 C 300.82 243.5 300.82 243.5 305 241 C 305.33 240.34 305.66 239.68 306 239 C 295.8 227 295.8 227 292 227 Z M 277 228 C 278 231 278 231 278 231 Z M 224 272 C 225.03 286.38 235.21 298.9 247.06 306.38 C 256.8 311.55 256.8 311.55 263 310 C 261.68 308.68 260.36 307.36 259 306 C 263.07 306 266.21 307.58 270 309 C 270.99 309 271.98 309 273 309 C 273 309.66 273 310.32 273 311 C 271.85 311.17 271.85 311.17 266 312 C 266.16 312.66 266.16 312.66 267 316 C 267.66 316 268.32 316 269 316 C 269 315.34 269 314.68 269 314 C 290.1 318.98 304.42 326.58 313 347 C 313.33 347.99 313.66 348.98 314 350 C 314.66 350 315.32 350 316 350 C 317.79 335.02 315.81 322.6 304 312 C 302.68 311.01 301.36 310.02 300 309 C 299.86 305.64 299.86 305.64 300.19 301.69 C 300.43 294.48 300.43 294.48 296.5 290.06 C 295.35 289.38 294.19 288.7 293 288 C 290.3 291.26 288.2 294.34 286 298 C 282.88 299.75 282.88 299.75 280 301 C 279.67 301.33 279.34 301.66 279 302 C 277.35 302 275.7 302 274 302 C 273.97 301.46 273.97 301.46 273.81 298.75 C 272.83 294.23 272.05 293.15 268 291 C 262.98 290.54 260.55 290.73 256 293 C 257 297 257 297 258 298 C 248.44 298.9 244.14 295.6 238 288.56 C 235.8 284.64 235.55 282.42 236 278 C 235.01 278 234.02 278 233 278 C 232.34 275.03 231.68 272.06 231 269 C 227 269 227 269 224 272 Z"/>
<path d="M 255 16 C 255 21 255 21 254 23 C 254 24.65 254 26.3 254 28 C 249.95 32.21 246.93 34.71 241 35 C 240.34 33.02 239.68 31.04 239 29 C 235.78 34.37 235.76 35.26 237 41 C 236.01 40.67 235.02 40.34 234 40 C 233.95 37.56 233.91 35.13 233.88 32.69 C 233.85 31.33 233.83 29.97 233.8 28.57 C 234 25 234 25 236 22 C 236 21.01 236 20.02 236 19 C 237.65 18.34 239.3 17.68 241 17 C 241.33 17.33 241.66 17.66 242 18 C 248.77 18 248.61 16 255 16 Z"/>
<path d="M 263 225 C 264.68 231.71 260.35 235.76 256.12 240.69 C 248.17 249 248.17 249 241 249 C 240.34 248.34 239.68 247.68 239 247 C 240.11 241.44 241.38 240.02 245.19 236 C 246.13 234.99 247.07 233.98 248.04 232.94 C 256.03 225 256.03 225 263 225 Z"/>
<path d="M 237 388 C 236.67 389.65 236.34 391.3 236 393 C 237.44 396.31 237.44 396.31 239 399 C 239.66 397.35 240.32 395.7 241 394 C 247.9 394 251.46 398.32 256 403 C 256 408 256 408 255 409 C 255 410.65 255 412.3 255 414 C 251 414 251 414 248 410 C 242 410 242 410 238 411 C 235 408 235 408 235 405 C 234.67 404.67 234.34 404.34 234 404 C 233.9 401.5 233.87 399 233.88 396.5 C 233.87 395.13 233.87 393.76 233.87 392.34 C 234.04 388 234.04 388 237 388 Z"/>
<path d="M 237 414 C 237.58 415.42 238.16 416.85 238.75 418.31 C 241 423 241 423 245 426 C 245 427.98 245 429.96 245 432 C 235.76 432 226.52 432 217 432 C 218.29 425.53 220.81 423.89 226 420 C 227.65 420 229.3 420 231 420 C 230.67 418.68 230.34 417.36 230 416 C 227.69 416.33 225.38 416.66 223 417 C 222.73 417.95 222.46 418.9 222.19 419.88 C 221 423 221 423 218 425 C 215.67 425.08 213.33 425.09 211 425 C 216.1 412.26 224.83 413.26 237 414 Z"/>
<path d="M 263 418 C 265.31 418 267.62 418 270 418 C 269.34 419.98 268.68 421.96 268 424 C 269.11 424.1 270.23 424.21 271.38 424.31 C 275 425 275 425 277 428 C 277 429.32 277 430.64 277 432 C 270.07 432 263.14 432 256 432 C 256 424.11 256.15 424.18 262 420 C 262.33 419.34 262.66 418.68 263 418 Z"/>
</g>
<g class="c5" data-part="c5" fill="#d97c71">
<path d="M 346 101 C 352 101 352 101 356 105 C 356.82 105.33 356.82 105.33 361 107 C 361.22 111.44 361.43 115.87 361.62 120.31 C 361.69 121.56 361.75 122.8 361.82 124.08 C 362.14 131.75 361.67 138.5 360 146 C 358.35 146 356.7 146 355 146 C 354.83 145.01 354.83 145.01 354 140 C 353.34 140.16 353.34 140.16 350 141 C 350.66 142.65 351.32 144.3 352 146 C 350.31 145.84 348.62 145.67 346.88 145.5 C 339.91 144.91 332.99 144.91 326 145 C 326.99 144.34 327.98 143.68 329 143 C 330.67 141.68 332.34 140.34 334 139 C 332.35 139 330.7 139 329 139 C 328.83 138.18 328.83 138.18 328 134 C 327.2 134.99 326.39 135.98 325.56 137 C 323 140 323 140 322 140 C 321.47 132.31 322.25 128.99 327 123 C 327.71 120.68 328.38 118.35 329 116 C 332 112 332 112 338 112 C 338.1 111.09 338.21 110.19 338.31 109.25 C 339 106 339 106 342 102 C 341.67 104.64 341.34 107.28 341 110 C 344 106 344 106 346 101 Z M 355 115 C 356 119 356 119 356 119 Z M 342 121 C 342.33 122.32 342.66 123.64 343 125 C 343.66 125 344.32 125 345 125 C 344.67 123.68 344.34 122.36 344 121 C 343.34 121 342.68 121 342 121 Z M 356 121 C 356 123.97 356 126.94 356 130 C 356.33 130 356.66 130 357 130 C 357 127.03 357 124.06 357 121 C 356.67 121 356.34 121 356 121 Z M 333 124 C 334 126 334 126 334 126 Z M 346 130 C 347 134 347 134 347 134 Z M 355 130 C 355 132.97 355 135.94 355 139 C 355.33 139 355.66 139 356 139 C 356 136.03 356 133.06 356 130 C 355.67 130 355.34 130 355 130 Z M 340 133 C 338.68 134.65 337.36 136.3 336 138 C 337.32 137.34 338.64 136.68 340 136 C 340 135.01 340 134.02 340 133 Z M 347 135 C 348 137 348 137 348 137 Z"/>
<path d="M 253 167 C 281.71 166.71 281.71 166.71 285 170 C 285.73 179.14 284.44 183.84 280 192 C 278.81 195.64 277.91 199.27 277 203 C 273.37 203 269.74 203 266 203 C 265.18 201.39 264.35 199.78 263.5 198.12 C 261.24 193.91 258.77 190.41 255.62 186.81 C 252 182.51 251.15 179.73 252 174 C 252.82 174.5 252.82 174.5 257 177 C 257.66 175.68 258.32 174.36 259 173 C 260.32 172.67 261.64 172.34 263 172 C 262.01 171.01 261.02 170.02 260 169 C 255 170 255 170 252 172 C 252.33 170.35 252.66 168.7 253 167 Z M 271 172 C 268 175 268 175 268 177 C 269.32 176.67 270.64 176.34 272 176 C 277 175 277 175 280 177 C 280.99 175.68 281.98 174.36 283 173 C 278.16 168.16 276.92 168.45 271 172 Z"/>
<path d="M 236 195 C 244.47 194.06 247.64 196.63 254 202 C 261.37 206.21 261.37 206.21 265 205 C 265 210.94 265 216.88 265 223 C 264.01 223 263.02 223 262 223 C 256.33 225.53 252.24 227.8 247.44 231.81 C 242.41 235.42 240.04 235.67 234 235 C 237.88 230.12 237.88 230.12 239 229 C 237.95 229.1 236.9 229.21 235.81 229.31 C 230.95 228.91 229.99 227.78 227 224 C 225.97 220.19 225.97 220.19 225.5 216 C 225.32 214.62 225.15 213.24 224.97 211.81 C 225 208 225 208 228 203 C 231.94 200.37 235.34 200.4 240 200 C 238.68 198.35 237.36 196.7 236 195 Z M 259 212 C 259.33 213.32 259.66 214.64 260 216 C 260.33 215.01 260.66 214.02 261 213 C 260.34 212.67 259.68 212.34 259 212 Z"/>
<path d="M 316 195 C 317.83 199.57 318.26 201.71 318.27 206.44 C 318.27 207.05 318.27 207.05 318.27 210.15 C 318.27 211.42 318.26 212.69 318.25 214 C 318.25 214.64 318.25 214.64 318.27 217.85 C 318.27 219.08 318.27 220.3 318.27 221.56 C 318.26 222.68 318.26 223.79 318.26 224.94 C 318 228 318 228 316 233 C 305.18 233.84 299.26 233.75 291 226 C 288.37 224.6 285.71 223.23 283 222 C 281.16 208.78 281.16 208.78 285.46 204.62 C 288.62 202.88 288.62 202.88 291.99 201.36 C 295 200 295 200 297.81 197.06 C 303.28 193.52 309.67 194.64 316 195 Z M 306 199 C 305.67 199.5 305.67 199.5 304 202 C 305.98 201.67 307.96 201.34 310 201 C 309.67 200.34 309.34 199.68 309 199 C 308.01 199 307.02 199 306 199 Z M 310 201 C 310.66 203.64 311.32 206.28 312 209 C 312.66 208.34 313.32 207.68 314 207 C 313.83 206.18 313.83 206.18 313 202 C 312.01 201.67 311.02 201.34 310 201 Z M 300 204 C 299.67 204.66 299.34 205.32 299 206 C 299.99 205.67 300.98 205.34 302 205 C 301.34 204.67 300.68 204.34 300 204 Z M 285 213 C 287 217 287 217 290 218 C 290 216.35 290 214.7 290 213 C 290.66 212.01 291.32 211.02 292 210 C 290 210 290 210 285 213 Z M 309 212 C 308.83 212.66 308.83 212.66 308 216 C 308.33 216.16 308.33 216.16 310 217 C 310 215.35 310 213.7 310 212 C 309.67 212 309.34 212 309 212 Z M 310 217 C 310.19 218.3 310.37 219.6 310.56 220.94 C 311 225 311 225 310 226 C 307.67 226.04 305.33 226.04 303 226 C 303.99 227.32 304.98 228.64 306 230 C 311 229 311 229 314 225 C 313.82 220.6 313.76 219.51 310 217 Z M 293 219 C 293.33 219.66 293.66 220.32 294 221 C 294.66 220.67 295.32 220.34 296 220 C 295.01 219.67 294.02 219.34 293 219 Z"/>
<path d="M 265 228 C 268.96 228 272.92 228 277 228 C 277.4 229.1 277.8 230.19 278.21 231.32 C 278.74 232.76 279.27 234.2 279.81 235.69 C 280.33 237.11 280.86 238.54 281.39 240.01 C 283 244 283 244 286 249 C 286.57 258.43 286.57 258.43 284 261 C 281.68 261.28 279.34 261.45 277 261.56 C 270.19 261.9 270.19 261.9 268 263 C 265.15 263.1 262.29 263.13 259.44 263.12 C 258.66 263.13 258.66 263.13 254.75 263.13 C 251 263 251 263 250 262 C 248.69 253.89 248.86 248.28 254.69 242.19 C 255.6 241.32 256.51 240.45 257.44 239.55 C 260.95 236.06 262.83 232.42 265 228 Z M 265.19 253.5 C 262 256 262 256 257 256 C 256.34 254.68 255.68 253.36 255 252 C 254.01 253.32 253.02 254.64 252 256 C 255.02 259.02 256.27 260.01 260.62 259.94 C 264 259 264 259 267 256 C 267 255.34 267 254.68 267 254 C 268.65 254 270.3 254 272 254 C 271.34 253.01 270.68 252.02 270 251 C 268 251 268 251 265.19 253.5 Z M 272 255 C 276.48 258.36 276.93 258.27 282 257 C 281.67 255.68 281.34 254.36 281 253 C 277.79 253 274.87 253.57 272 255 Z"/>
<path d="M 323 283 C 325.77 282.97 328.54 282.95 331.31 282.94 C 332.86 282.93 334.4 282.91 335.99 282.9 C 340 283 340 283 343 284 C 346.01 283.72 349.01 283.39 352 283 C 351.01 285.31 350.02 287.62 349 290 C 350.65 289.67 352.3 289.34 354 289 C 354.33 287.02 354.66 285.04 355 283 C 356.65 283 358.3 283 360 283 C 361.77 290.6 362.28 297.57 362.19 305.31 C 362.19 306.37 362.19 307.43 362.19 308.52 C 362.16 313.19 361.92 317.41 361 322 C 358.12 323.62 358.12 323.62 355 325 C 354.01 325.99 353.02 326.98 352 328 C 350.02 328 348.04 328 346 328 C 345.38 326.54 344.76 325.07 344.12 323.56 C 342 319 342 319 340 318 C 340.66 319.65 341.32 321.3 342 323 C 341.67 324.32 341.34 325.64 341 327 C 338.33 322.45 337.68 319.26 338 314 C 336.72 314.06 335.44 314.12 334.12 314.19 C 330 314 330 314 328 311 C 327.71 310.09 327.42 309.19 327.12 308.25 C 326 305 326 305 323.88 301.69 C 321.6 297.21 321.69 293.96 322 289 C 322.4 289.41 322.4 289.41 324.44 291.5 C 327 294 327 294 328 294 C 328 292.35 328 290.7 328 289 C 329.65 288.67 331.3 288.34 333 288 C 331.35 287.34 331.35 287.34 323 284 C 323 283.67 323 283.34 323 283 Z M 334 289 C 335.98 291.31 337.96 293.62 340 296 C 340 293 340 293 336 289 C 335.34 289 334.68 289 334 289 Z M 355 290 C 355 292.97 355 295.94 355 299 C 355.33 299 355.66 299 356 299 C 356 296.03 356 293.06 356 290 C 355.67 290 355.34 290 355 290 Z M 347 292 C 348 294 348 294 348 294 Z M 346 295 C 347 298 347 298 347 298 Z M 329 296 C 330 298 330 298 330 298 Z M 330 298 C 331 300 331 300 331 300 Z M 356 299 C 356 301.97 356 304.94 356 308 C 356.33 308 356.66 308 357 308 C 357 305.03 357 302.06 357 299 C 356.67 299 356.34 299 356 299 Z M 345 300 C 346 303 346 303 346 303 Z M 343 304 C 342.83 304.66 342.83 304.66 342 308 C 342.99 307.67 343.98 307.34 345 307 C 345 306.01 345 305.02 345 304 C 344.34 304 343.68 304 343 304 Z M 355 311 C 356 313 356 313 356 313 Z"/>
</g>
<g class="c6" data-part="c6" fill="#d9821f">
<path d="M 150 0 C 156.96 -0.1 163.91 -0.17 170.87 -0.22 C 173.23 -0.24 175.6 -0.27 177.96 -0.3 C 181.37 -0.35 184.77 -0.37 188.18 -0.39 C 189.23 -0.41 190.28 -0.43 191.36 -0.45 C 198.22 -0.46 202.88 1 209 4 C 209.87 4.07 209.87 4.07 214.25 4.44 C 219.53 5.06 220.81 5.91 224 10 C 226 12 226 12 230 12 C 230.33 11.34 230.66 10.68 231 10 C 233.31 10.33 235.62 10.66 238 11 C 238.33 11.82 238.33 11.82 240 16 C 241.65 16.99 243.3 17.98 245 19 C 245.31 23.19 245.31 23.19 245 27 C 244.07 27.23 243.14 27.45 242.19 27.69 C 239 29 239 29 236 34 C 238.1 42.4 238.1 42.4 242 45 C 242.19 43.99 242.37 42.98 242.56 41.94 C 245.45 34.03 252.49 29.88 259 25 C 262.22 20.71 262.43 19.39 262.69 14.25 C 262.75 13.08 262.82 11.91 262.89 10.7 C 262.92 9.81 262.96 8.92 263 8 C 263.99 7.83 263.99 7.83 269 7 C 269.33 7.5 269.33 7.5 271 10 C 276 7 276 7 278.31 3.88 C 284.23 -2.45 296.5 -0.13 304.66 -0.1 C 305.41 -0.1 305.41 -0.1 309.2 -0.09 C 313.96 -0.09 318.73 -0.08 323.5 -0.06 C 326.74 -0.06 329.98 -0.05 333.22 -0.05 C 341.15 -0.04 349.07 -0.02 357 0 C 357 6 357 6 355 8 C 354.34 7.67 354.34 7.67 351 6 C 350.15 6.94 349.31 7.88 348.44 8.85 C 329.23 29.94 329.23 29.94 317 29 C 316.34 28.67 315.68 28.34 315 28 C 314.67 28.99 314.34 29.98 314 31 C 312.56 31.23 311.11 31.45 309.62 31.69 C 305 33 305 33 303.31 36.44 C 302.88 37.94 302.45 39.45 302 41 C 294.04 58.15 280.62 69.28 262 73 C 237.43 74.16 220.45 66.72 204.56 47.94 C 200.61 41.86 197.43 36.14 196 29 C 194.06 28.75 192.12 28.5 190.12 28.25 C 172.97 25.57 160.23 15.65 150 2 C 150 1.34 150 0.68 150 0 Z M 287 3 C 287 3.99 287 4.98 287 6 C 289.81 7.63 292.63 9.25 295.48 10.82 C 300.52 13.94 304.79 17.79 309.19 21.74 C 312 24 312 24 316 25 C 316.66 24.01 317.32 23.02 318 22 C 313.04 16.7 293.74 -3.74 287 3 Z"/>
<path d="M 294.75 375.31 C 299.23 381.77 302.81 388.42 305 396 C 307.31 396.33 309.62 396.66 312 397 C 313.06 400.5 313.06 400.5 313 405 C 310.02 408.17 307.46 410.48 304 413 C 303.15 413.63 302.3 414.26 301.42 414.92 C 296.78 418.26 292.02 421.27 287 424 C 287.66 425.32 288.32 426.64 289 428 C 284.75 428.37 284.75 428.37 280 428 C 277.69 425.19 277.69 425.19 276 422 C 272 419 272 419 270 419 C 269.84 419.49 269.84 419.49 269 422 C 267.02 421.67 265.04 421.34 263 421 C 263.1 419.53 263.21 418.07 263.31 416.56 C 262.67 405.12 256.93 400.8 248 395 C 244.02 391.6 242.3 389.08 241 384 C 237.78 387.21 236.75 388.57 236 393 C 237.63 397.31 237.63 397.31 240 401 C 240.66 401.16 240.66 401.16 244 402 C 244.6 408.15 243.5 409.93 239 414 C 238.67 415.32 238.34 416.64 238 418 C 236.84 418.16 236.84 418.16 231 419 C 230.67 418.01 230.34 417.02 230 416 C 228.84 416.16 228.84 416.16 223 417 C 222.87 417.47 222.87 417.47 222.19 419.87 C 221 423 221 423 218 425 C 214.71 425.34 211.44 425.44 208.13 425.56 C 205 426 205 426 201 429 C 200.01 429 199.02 429 198 429 C 198.33 429.99 198.66 430.98 199 432 C 182.5 432 166 432 149 432 C 151.44 419.79 163.9 410.49 174.25 404.56 C 181.53 401.53 188.11 400.58 196 400 C 196.18 399.29 196.18 399.29 197.06 395.69 C 202.86 376.79 219.32 363.57 237.37 357.06 C 259.42 351.99 279.73 358.04 294.75 375.31 Z"/>
<path d="M 324 400 C 338.42 406.48 348.44 419.17 357 432 C 334.89 432 312.78 432 290 432 C 290 427 290 427 292.24 425.3 C 293.25 424.79 294.27 424.28 295.31 423.75 C 304.12 418.97 311.98 413.1 318 405 C 317.18 404.83 317.18 404.83 313 404 C 317.5 399.5 317.99 399.11 324 400 Z"/>
</g>
<g class="c7" data-part="c7" fill="#4b7156">
<path d="M 364 0 C 374.56 0 385.12 0 396 0 C 396 142.56 396 285.12 396 432 C 363 432 363 432 362 431 C 361.96 428.33 361.96 425.67 362 423 C 365 423 365 423 368 424 C 368.33 423.34 368.33 423.34 370 420 C 371.84 417.93 373.69 415.86 375.53 413.79 C 381.92 405.7 382.59 399.47 382.46 389.39 C 382.48 387.8 382.5 386.2 382.52 384.55 C 382.58 379.3 382.56 374.06 382.53 368.81 C 382.54 365.14 382.56 361.48 382.58 357.81 C 382.6 350.13 382.59 342.46 382.54 334.79 C 382.49 324.98 382.55 315.17 382.64 305.36 C 382.69 297.79 382.69 290.22 382.66 282.65 C 382.66 279.03 382.67 275.41 382.71 271.79 C 383 237.6 383 237.6 371.2 228.23 C 370.14 227.49 369.09 226.76 368 226 C 366.53 224.44 365.11 222.84 363.75 221.19 C 361 218 361 218 360 217 C 360 210.61 361.69 209.66 366.06 205.19 C 367.24 203.96 368.43 202.73 369.64 201.47 C 370.2 200.9 370.2 200.9 373 198 C 375.37 195.36 377.68 192.68 380 190 C 380.33 189.67 380.66 189.34 381 189 C 381.11 186.87 381.15 184.73 381.17 182.59 C 381.17 181.9 381.17 181.9 381.2 178.37 C 381.21 176.82 381.22 175.28 381.22 173.68 C 381.24 172.07 381.25 170.45 381.26 168.79 C 381.37 151.86 381.42 134.94 381.46 118.01 C 381.48 109.98 381.52 101.94 381.58 93.9 C 381.65 84.21 381.69 74.52 381.7 64.83 C 381.71 61.14 381.74 57.44 381.77 53.74 C 381.82 48.57 381.82 43.4 381.81 38.22 C 381.83 36.69 381.86 35.16 381.88 33.58 C 381.81 24.66 381.02 20.21 374 14 C 372.16 11.71 370.35 9.39 368.56 7.06 C 367.7 5.94 366.83 4.82 365.94 3.66 C 364 1 364 1 364 0 Z"/>
<path d="M 303 108 C 303 113 303 113 300.81 115.12 C 293.5 120 293.5 120 291 120 C 291.33 120.5 291.33 120.5 293 123 C 293 124.65 293 126.3 293 128 C 287.6 127.44 283.03 126.03 278 124 C 282 128 282 128 285.19 130.12 C 288 132 288 132 289 134 C 283.31 134.36 279.1 133.59 274 131 C 272.56 127.88 272.56 127.88 272 125 C 271.67 124.67 271.34 124.34 271 124 C 270.96 121.67 270.96 119.33 271 117 C 271.8 117.41 272.61 117.83 273.44 118.25 C 281.27 119.9 288.77 113.44 295.2 109.39 C 298 108 298 108 303 108 Z"/>
<path d="M 288 295 C 285.69 299.61 284.45 299.87 280 302 C 279.67 302.5 279.67 302.5 278 305 C 278.68 304.67 278.68 304.67 282.12 303 C 287 301 287 301 293 301 C 292.81 302.2 292.63 303.39 292.44 304.62 C 293.25 310.97 296.79 311.75 302 315 C 302 316.65 302 318.3 302 320 C 295.62 319.59 291.47 317.18 286 314 C 279.81 310.74 276.61 309.19 270 312 C 270 306 270 306 273 302 C 273.33 300.68 273.66 299.36 274 298 C 278.79 295.32 282.56 294.67 288 295 Z"/>
</g>
<g class="line" data-part="line" stroke="#373b39" fill="none" stroke-linecap="round" stroke-linejoin="round">
<g stroke-width="4.0"><path d="M393.50 429.50C393.50 286.50 393.50 143.50 393.50 0.50"/><path d="M251.50 133.50C257.52 144.45 273.13 142.30 276.50 130.50"/><path d="M251.50 133.50C237.94 136.73 234.74 150.72 232.50 162.50"/><path d="M251.50 133.50C254.48 130.52 255.37 130.09 259.50 129.50"/><path d="M232.50 162.50C236.63 166.90 242.41 170.92 248.50 171.50"/><path d="M232.50 162.50C228.71 162.14 225.26 161.04 221.50 160.50"/><path d="M270.50 315.50C283.15 320.32 294.04 324.31 303.50 334.50C307.12 338.39 309.62 343.41 311.07 348.50C311.55 350.17 312.36 352.79 314.50 352.79C319.55 352.79 318.81 338.70 318.36 335.50C317.26 327.83 314.78 320.67 309.93 314.50C307.48 311.39 303.30 309.34 301.93 305.50C300.11 300.42 303.74 286.36 293.50 286.36C289.76 286.36 288.17 292.07 286.07 294.36C283.49 297.17 280.11 297.81 276.50 298.50"/><path d="M234.50 275.50C233.69 272.10 232.99 268.96 232.50 265.50"/><path d="M266.50 296.50C265.75 297.25 260.37 299.50 259.50 299.50"/><path d="M317.50 206.50C315.76 203.18 314.11 199.89 312.50 196.50"/><path d="M317.50 206.50C333.29 198.98 340.56 180.24 347.93 165.50C350.24 160.87 350.43 157.10 353.50 152.50"/><path d="M317.50 206.50C313.64 213.26 314.80 215.34 316.50 222.50"/><path d="M282.50 218.50C282.50 215.50 282.50 212.50 282.50 209.50"/><path d="M282.50 218.50C292.37 221.79 298.74 228.50 307.50 233.50"/><path d="M282.50 218.50C281.50 219.40 280.52 220.34 279.50 221.21C277.17 223.21 274.27 224.31 271.50 225.50"/><path d="M33.50 213.50C48.50 213.50 63.50 213.50 78.50 213.50"/><path d="M232.50 265.50C228.48 265.88 225.35 267.40 221.50 268.50"/><path d="M232.50 265.50C237.48 261.70 242.33 257.97 248.50 256.50"/><path d="M151.50 0.50C160.07 6.62 165.91 15.99 175.50 20.79C179.52 22.80 184.12 23.99 188.50 24.93C191.17 25.50 194.99 24.85 197.07 26.93C201.73 31.59 202.72 40.15 206.93 45.50C223.37 66.42 250.41 77.76 275.50 65.21C284.25 60.84 292.38 53.30 296.79 44.50C298.71 40.65 299.72 34.71 302.79 31.64C304.58 29.84 307.44 29.01 309.50 27.50"/><path d="M210.50 195.50C210.21 194.50 209.96 193.49 209.64 192.50C209.39 191.73 209.04 191.20 208.64 190.50C208.26 189.83 207.92 189.15 207.50 188.50C207.28 188.16 207.02 187.83 206.79 187.50C206.55 187.17 206.33 186.82 206.07 186.50C205.24 185.48 204.36 184.50 203.50 183.50"/><path d="M210.50 195.50C211.73 195.50 214.58 196.58 215.50 197.50"/><path d="M210.50 195.50C206.01 196.57 202.03 195.18 197.50 195.50C189.11 196.10 182.19 200.01 175.50 204.79C172.68 206.80 166.47 210.31 167.07 214.50C167.60 218.17 172.71 221.93 175.50 223.93C182.16 228.68 189.28 231.91 197.50 232.50C202.40 232.85 206.70 231.13 211.50 232.50"/><path d="M316.50 222.50C315.62 225.57 314.38 228.43 313.50 231.50"/><path d="M316.50 222.50C338.94 229.98 342.71 259.07 353.50 276.50"/><path d="M338.50 151.50C339.93 148.16 340.82 145.07 341.50 141.50"/><path d="M270.50 200.50C270.50 201.17 270.50 201.83 270.50 202.50"/><path d="M270.50 200.50C276.84 195.50 280.56 181.91 285.50 174.50"/><path d="M270.50 200.50C269.60 199.50 268.66 198.52 267.79 197.50C265.98 195.39 264.71 192.82 263.21 190.50C261.85 188.38 260.19 186.47 258.64 184.50C255.17 180.08 250.38 176.88 248.50 171.50"/><path d="M282.50 209.50C278.07 206.55 275.43 204.61 270.50 202.50"/><path d="M282.50 209.50C292.66 207.56 298.75 200.09 307.50 195.50"/><path d="M239.50 405.50C234.70 398.78 230.23 393.48 235.36 385.50C236.66 383.48 239.47 379.88 242.36 380.93C244.98 381.88 245.57 387.42 247.50 389.50C255.93 398.58 264.60 402.21 266.50 415.50"/><path d="M239.50 405.50C238.01 409.76 237.98 409.38 234.50 412.50"/><path d="M239.50 405.50C248.10 405.91 252.50 408.47 252.50 417.50"/><path d="M62.50 0.50C75.95 6.26 85.58 13.60 100.50 6.50"/><path d="M332.50 34.50C336.75 29.40 342.80 26.20 347.50 21.50C351.40 17.60 354.23 13.06 358.50 9.50"/><path d="M332.50 34.50C336.14 42.99 341.38 50.76 344.50 59.50C348.14 69.71 350.71 80.29 354.36 90.50C356.68 97.00 362.64 101.00 364.50 107.50"/><path d="M332.50 34.50C328.52 35.26 325.96 36.36 322.50 38.50"/><path d="M254.50 0.50C263.73 0.94 263.98 5.93 266.50 13.50"/><path d="M264.50 314.50C256.96 311.63 249.42 310.09 242.50 305.64C229.94 297.57 222.88 282.97 221.50 268.50"/><path d="M266.50 13.50C267.30 13.46 269.36 13.46 270.50 13.21C273.30 12.61 275.30 11.09 277.50 9.36C277.82 9.10 278.18 8.90 278.50 8.64C278.85 8.37 279.15 8.06 279.50 7.79C280.49 7.01 281.50 6.26 282.50 5.50"/><path d="M266.50 13.50C264.99 18.79 264.24 24.12 260.36 28.36C256.41 32.66 250.61 34.98 246.79 39.50C245.17 41.41 245.01 47.45 242.36 47.93C239.73 48.41 237.23 45.32 235.93 43.50C229.78 34.89 234.69 29.67 240.50 22.50"/><path d="M372.50 106.50C372.50 88.50 372.50 70.50 372.50 52.50C372.50 44.37 374.06 34.44 372.36 26.50C371.01 20.23 363.82 12.58 358.50 9.50"/><path d="M372.50 106.50C369.80 106.76 367.18 107.12 364.50 107.50"/><path d="M372.50 106.50C374.07 111.99 372.50 118.70 372.50 124.50C372.50 137.50 372.50 150.50 372.50 163.50C372.50 169.96 374.25 179.41 372.07 185.50C369.62 192.36 361.60 199.40 356.50 204.50C354.14 206.86 349.64 210.86 349.64 214.50C349.64 217.80 353.67 221.20 355.64 223.50C360.74 229.44 370.65 236.54 372.36 244.50C373.99 252.14 372.50 261.68 372.50 269.50C372.50 286.83 372.50 304.17 372.50 321.50"/><path d="M248.50 171.50C249.50 170.50 250.48 169.48 251.50 168.50C258.00 162.23 260.98 168.75 267.50 169.21C273.54 169.65 278.89 163.22 283.93 170.50C284.81 171.77 284.97 172.91 285.50 174.50"/><path d="M364.50 107.50C361.64 109.60 361.11 109.50 357.50 109.50"/><path d="M128.50 0.50C129.17 0.50 129.83 0.50 130.50 0.50"/><path d="M231.50 238.50C230.44 244.04 228.83 246.85 224.50 250.50"/><path d="M231.50 238.50C237.83 236.39 242.33 230.99 247.50 226.93C252.10 223.32 257.27 220.99 262.50 218.50"/><path d="M231.50 238.50C225.99 236.14 220.86 234.31 215.50 231.50"/><path d="M342.50 301.50C343.13 297.06 343.50 292.99 343.50 288.50"/><path d="M152.50 429.50C159.44 419.78 168.93 409.49 180.50 405.36C184.82 403.81 193.74 404.24 197.07 401.64C200.53 398.96 203.37 387.85 206.79 383.50C221.00 365.40 244.19 351.60 267.50 359.93C277.21 363.40 285.67 369.35 292.07 377.50C296.65 383.33 298.02 391.40 302.07 396.36C303.91 398.60 308.05 399.33 310.50 400.50"/><path d="M322.50 38.50C324.05 45.01 327.95 50.55 330.93 56.50C336.00 66.64 339.69 78.13 340.50 89.50C341.16 98.68 337.17 106.72 335.50 115.50"/><path d="M322.50 38.50C319.23 38.97 314.41 38.85 311.64 40.93C308.71 43.13 307.51 47.33 305.93 50.50C303.30 55.76 298.80 60.96 294.50 64.93C290.17 68.92 282.32 71.56 279.36 76.64C276.07 82.27 282.66 88.54 275.50 93.50C268.98 98.01 257.16 97.41 249.50 98.50C232.55 100.92 214.61 105.46 202.50 118.50C195.22 126.34 190.30 136.08 188.07 146.50C187.27 150.25 187.77 159.47 184.36 161.64C179.07 165.01 169.56 164.19 163.50 166.36C148.37 171.76 137.69 184.84 128.64 197.50C125.86 201.40 116.46 210.37 117.93 215.50C119.38 220.59 124.33 225.27 127.36 229.50C136.16 241.82 146.64 256.05 161.50 261.36C166.54 263.16 171.19 264.31 176.50 265.07C178.94 265.42 182.23 265.00 184.36 266.36C188.07 268.72 187.19 279.39 188.07 283.50C190.23 293.57 196.25 304.25 203.50 311.50C215.64 323.64 234.15 328.02 250.50 330.36C257.95 331.42 267.69 331.09 274.50 334.50C283.53 339.02 275.56 346.33 279.21 352.07C282.41 357.09 291.02 360.51 295.50 364.64C299.93 368.73 303.67 374.30 306.64 379.50C308.32 382.44 309.30 386.78 312.50 388.50C315.15 389.93 318.64 389.50 321.50 389.50"/><path d="M285.50 174.50C292.09 175.75 295.69 178.88 301.50 181.79C304.04 183.05 307.21 184.49 308.07 187.50C308.72 189.77 307.71 193.28 307.50 195.50"/><path d="M335.50 312.50C336.58 320.03 339.95 326.81 340.50 334.50C341.93 354.58 330.38 372.56 321.50 389.50"/><path d="M335.50 312.50C337.94 312.50 340.23 312.30 342.21 313.93C345.99 317.02 346.78 326.10 353.50 321.79C353.84 321.56 354.18 321.33 354.50 321.07C355.52 320.24 356.50 319.36 357.50 318.50"/><path d="M335.50 312.50C334.55 311.50 333.56 310.53 332.64 309.50C332.37 309.19 332.15 308.84 331.93 308.50C330.48 306.25 329.51 303.74 328.07 301.50C325.26 297.12 322.03 293.31 318.50 289.50C316.77 287.64 312.94 283.74 315.79 281.21C320.66 276.88 335.10 285.73 340.50 286.50"/><path d="M357.50 109.50C359.42 119.58 359.38 131.35 357.93 141.50C357.26 146.16 358.68 150.67 353.50 152.50"/><path d="M357.50 109.50C356.50 108.88 355.51 108.25 354.50 107.64C354.17 107.44 353.82 107.28 353.50 107.07C352.09 106.17 350.73 104.99 348.93 105.64C346.43 106.55 345.99 110.56 344.64 112.50C342.38 115.77 339.08 115.50 335.50 115.50"/><path d="M187.50 119.50C194.93 110.84 200.73 103.78 210.50 97.50C218.81 92.16 230.05 91.09 236.50 83.50"/><path d="M285.50 253.50C283.67 263.11 277.40 259.21 270.50 259.21C267.23 259.21 264.64 261.68 261.50 262.36C260.61 262.55 260.40 262.50 259.50 262.50C258.42 262.50 257.54 262.37 256.50 262.07C255.57 261.81 255.38 261.80 254.50 261.36C253.39 260.80 252.42 260.04 251.50 259.21C250.49 258.32 249.50 257.40 248.50 256.50"/><path d="M285.50 253.50C291.35 253.50 306.01 246.29 308.07 240.50C308.83 238.37 307.89 235.57 307.50 233.50"/><path d="M285.50 253.50C278.72 246.01 277.70 236.16 271.50 228.50"/><path d="M221.50 268.50C218.65 263.76 223.25 255.74 224.50 250.50"/><path d="M233.50 15.50C234.28 7.31 237.81 0.91 246.50 0.50"/><path d="M233.50 15.50C224.90 15.50 223.58 11.90 216.50 8.36C212.94 6.58 208.31 6.86 204.50 5.50C200.65 4.13 197.40 1.80 193.50 0.50"/><path d="M233.50 15.50C234.50 16.21 235.53 16.89 236.50 17.64C236.82 17.89 237.08 18.20 237.36 18.50C237.65 18.82 237.94 19.15 238.21 19.50C238.99 20.49 239.74 21.50 240.50 22.50"/><path d="M343.50 288.50C342.00 288.50 341.53 287.53 340.50 286.50"/><path d="M343.50 288.50C347.93 284.96 350.24 281.06 353.50 276.50"/><path d="M221.50 160.50C222.86 153.35 223.91 146.11 227.21 139.50C233.62 126.70 250.10 115.50 264.50 115.50"/><path d="M221.50 160.50C218.61 165.92 223.94 172.66 224.50 178.50"/><path d="M282.50 422.50C283.60 425.80 285.14 430.50 289.50 430.50C293.84 430.50 297.11 426.97 300.50 424.79C308.28 419.79 318.46 413.62 321.50 404.50"/><path d="M282.50 422.50C275.93 418.43 274.70 415.50 266.50 415.50"/><path d="M282.50 422.50C292.64 417.67 305.50 410.99 310.50 400.50"/><path d="M215.50 197.50C215.50 199.70 215.80 202.34 214.07 204.07C210.40 207.74 200.79 206.97 200.79 214.50C200.79 221.40 209.67 220.91 213.36 223.93C215.67 225.82 215.50 228.82 215.50 231.50"/><path d="M215.50 197.50C220.89 194.42 225.68 191.72 231.50 189.50"/><path d="M335.50 115.50C329.27 123.19 325.62 132.38 318.50 139.50C316.95 141.05 311.92 145.30 314.93 147.64C321.90 153.07 334.71 142.47 341.50 141.50"/><path d="M271.50 225.50C271.50 226.50 271.50 227.50 271.50 228.50"/><path d="M271.50 225.50C270.50 224.88 269.49 224.28 268.50 223.64C268.16 223.42 267.82 223.18 267.50 222.93C267.15 222.66 266.83 222.36 266.50 222.07C266.17 221.79 265.83 221.51 265.50 221.21C264.49 220.32 263.50 219.40 262.50 218.50"/><path d="M203.50 245.50C204.77 254.36 217.47 250.50 224.50 250.50"/><path d="M203.50 245.50C186.48 244.69 172.61 238.61 160.50 226.50C157.59 223.59 151.83 218.79 151.21 214.50C150.60 210.22 157.86 205.14 160.50 202.50C172.97 190.03 185.88 183.50 203.50 183.50"/><path d="M203.50 245.50C206.57 241.20 209.22 237.28 211.50 232.50"/><path d="M251.50 294.50C254.20 297.56 255.66 298.22 259.50 299.50"/><path d="M251.50 294.50C243.69 293.01 239.27 287.77 236.50 280.50"/><path d="M251.50 294.50C258.93 285.67 273.50 285.90 276.50 298.50"/><path d="M234.50 412.50C234.73 417.26 234.90 422.90 238.50 426.50C241.43 429.43 244.64 429.50 248.50 429.50C258.56 429.50 264.46 426.21 266.50 415.50"/><path d="M234.50 412.50C230.83 412.50 226.71 411.99 223.50 414.21C220.75 416.12 219.51 419.76 216.36 421.07C208.38 424.39 200.46 421.08 195.50 430.50"/><path d="M341.50 141.50C342.74 140.26 342.03 140.50 343.50 140.50"/><path d="M276.50 298.50C275.98 301.23 275.57 305.01 273.21 306.93C266.64 312.31 260.15 306.36 259.50 299.50"/><path d="M337.50 157.50C335.94 160.78 334.84 164.25 333.21 167.50C327.82 178.30 321.04 187.96 312.50 196.50"/><path d="M372.50 321.50C372.50 340.50 372.50 359.50 372.50 378.50C372.50 385.91 374.43 396.50 371.93 403.50C369.92 409.12 364.13 415.03 359.50 418.50"/><path d="M372.50 321.50C370.17 321.50 367.83 321.50 365.50 321.50"/><path d="M264.50 115.50C264.50 116.50 264.50 117.50 264.50 118.50"/><path d="M264.50 115.50C269.54 112.14 274.90 111.50 280.50 109.50C287.18 107.11 295.26 103.19 300.50 98.36C307.70 91.71 308.28 81.16 314.50 74.50"/><path d="M187.50 307.50C192.78 318.58 202.56 327.46 213.50 332.93C220.90 336.63 231.11 338.18 235.50 345.50"/><path d="M240.50 22.50C249.16 21.67 252.94 19.74 252.50 10.50"/><path d="M33.50 429.50C41.47 429.50 54.04 431.88 61.50 429.21C65.21 427.89 67.99 424.83 71.50 423.07C81.02 418.31 89.63 416.33 99.50 421.50"/><path d="M235.50 345.50C230.61 350.09 224.67 351.86 219.50 355.93C214.21 360.09 210.34 364.96 205.50 369.50"/><path d="M321.50 404.50C318.06 401.29 315.08 400.94 310.50 400.50"/><path d="M321.50 404.50C337.03 406.72 343.25 422.62 354.50 431.50"/><path d="M203.50 183.50C203.95 174.15 217.48 178.50 224.50 178.50"/><path d="M309.50 27.50C304.44 16.87 291.84 11.73 282.50 5.50"/><path d="M309.50 27.50C315.05 27.50 316.70 27.70 321.50 24.50"/><path d="M292.50 0.50C304.02 3.79 315.64 14.25 321.50 24.50"/><path d="M314.50 74.50C313.86 71.82 313.14 69.18 312.50 66.50"/><path d="M314.50 74.50C323.44 84.07 317.62 102.98 311.50 112.50C309.05 116.31 304.34 118.53 302.36 122.50C299.30 128.61 304.66 139.88 294.50 142.79C290.58 143.91 289.05 138.84 287.21 136.50C284.19 132.65 281.41 130.73 276.50 130.50"/><path d="M215.50 231.50C213.71 231.50 212.82 231.18 211.50 232.50"/><path d="M259.50 129.50C259.96 124.64 261.01 121.99 264.50 118.50"/><path d="M259.50 129.50C262.23 129.50 263.50 133.50 266.50 130.50"/><path d="M365.50 321.50C361.98 319.49 361.40 319.24 357.50 318.50"/><path d="M365.50 321.50C362.11 326.58 357.67 331.02 354.93 336.50C351.36 343.63 350.74 352.04 348.07 359.50C345.57 366.50 343.12 373.83 339.79 380.50C337.57 384.94 334.81 389.10 332.50 393.50"/><path d="M307.50 233.50C308.46 232.54 312.27 231.50 313.50 231.50"/><path d="M357.50 318.50C359.43 308.35 359.25 296.75 357.79 286.50C357.13 281.94 359.16 277.44 353.50 276.50"/><path d="M276.50 130.50C274.90 122.12 272.39 120.75 264.50 118.50"/><path d="M367.50 0.50C368.31 1.50 369.11 2.51 369.93 3.50C370.49 4.18 371.10 4.81 371.64 5.50C371.90 5.82 372.10 6.18 372.36 6.50C373.17 7.53 374.12 8.47 374.93 9.50C375.69 10.47 376.31 11.53 377.07 12.50C379.30 15.33 382.55 18.04 383.79 21.50C386.78 29.88 384.50 47.14 384.50 56.50C384.50 82.17 384.50 107.83 384.50 133.50C384.50 145.50 384.50 157.50 384.50 169.50C384.50 175.63 385.36 182.49 384.07 188.50C382.78 194.53 374.74 201.26 370.50 205.50C368.25 207.75 364.64 211.03 364.64 214.50C364.64 217.48 368.01 220.43 369.79 222.50C374.03 227.46 381.87 233.34 384.07 239.50C385.51 243.52 384.50 249.26 384.50 253.50C384.50 263.17 384.50 272.83 384.50 282.50C384.50 309.50 384.50 336.50 384.50 363.50C384.50 376.72 385.44 390.32 384.50 403.50C384.03 410.13 377.05 416.69 372.93 421.50C371.24 423.47 369.32 426.53 366.50 426.93C362.06 427.56 360.24 421.62 359.50 418.50"/><path d="M307.50 195.50C308.94 196.94 310.53 196.50 312.50 196.50"/><path d="M287.50 0.50C283.31 0.50 284.62 3.38 282.50 5.50"/><path d="M321.50 389.50C326.25 392.67 326.92 392.97 332.50 393.50"/><path d="M248.50 256.50C251.40 250.97 256.12 247.35 259.93 242.50C263.82 237.55 266.37 232.34 271.50 228.50"/><path d="M313.50 231.50C316.58 237.97 322.22 242.51 326.07 248.50C333.03 259.33 340.50 273.29 340.50 286.50"/><path d="M231.50 189.50C230.26 184.29 228.85 181.76 224.50 178.50"/><path d="M231.50 189.50C243.16 193.94 249.79 205.87 262.50 209.50"/><path d="M359.50 418.50C353.10 415.45 349.61 409.25 344.50 404.50C340.39 400.69 335.90 398.04 332.50 393.50"/><path d="M136.50 0.50C142.04 3.14 144.44 8.13 148.50 12.50C155.11 19.62 162.07 25.82 170.50 30.64C174.32 32.82 186.87 34.86 188.64 37.64C190.31 40.26 189.57 44.50 190.21 47.50C191.24 52.30 192.57 57.07 194.79 61.50C197.21 66.36 200.68 70.68 204.50 74.50C206.16 76.16 209.05 78.88 208.64 81.50C207.99 85.77 200.58 88.65 197.50 91.07C189.93 97.02 182.78 105.32 179.50 114.50C176.80 122.07 174.50 130.39 174.50 138.50C174.50 142.00 176.82 148.33 174.07 151.07C171.95 153.19 168.21 153.01 165.50 153.79C159.94 155.37 154.66 157.63 149.50 160.21C133.80 168.06 124.34 185.25 113.93 198.50C111.01 202.22 102.64 209.62 102.64 214.50C102.64 217.84 112.41 228.17 114.79 231.50C124.53 245.14 135.04 261.20 150.50 268.93C155.28 271.32 160.22 273.80 165.50 274.93C167.91 275.44 171.25 275.44 173.36 276.79C177.09 279.16 174.50 285.81 174.50 289.50C174.50 298.83 176.75 309.14 180.93 317.50C185.34 326.32 191.83 333.05 199.50 339.07C202.03 341.06 208.52 342.91 209.07 346.50C209.46 349.00 207.00 350.89 205.50 352.50C202.09 356.17 198.98 360.15 196.50 364.50C193.42 369.89 191.37 375.42 190.07 381.50C189.48 384.27 190.42 388.79 188.64 391.07C186.20 394.21 177.29 395.15 173.50 396.50C166.35 399.05 160.00 404.40 154.50 409.50C147.48 416.02 137.79 438.07 127.50 426.50"/><path d="M342.50 127.50C343.13 131.94 343.50 136.01 343.50 140.50"/><path d="M270.50 202.50C268.84 203.96 267.25 206.00 265.50 207.36C264.53 208.11 263.50 208.79 262.50 209.50"/><path d="M358.50 9.50C357.43 6.70 355.53 1.50 351.50 2.07C346.77 2.75 342.65 11.35 339.50 14.50C334.30 19.70 328.57 22.82 321.50 24.50"/><path d="M206.50 59.50C207.21 60.50 207.91 61.52 208.64 62.50C212.24 67.30 217.50 71.29 222.50 74.50C228.75 78.52 231.10 76.75 236.50 83.50"/><path d="M343.50 140.50C347.91 143.81 350.95 147.63 353.50 152.50"/><path d="M262.50 218.50C262.50 215.50 262.50 212.50 262.50 209.50"/></g>
<g stroke-width="10.0"><path d="M264.50 82.50C255.11 82.50 245.91 83.50 236.50 83.50"/><path d="M264.50 346.50C254.91 345.59 245.11 344.58 235.50 345.50"/></g>
</g>
</g>
</svg>