<svg xmlns="http://www.w3.org/2000/svg" data-asset="surah-header" data-lineage="scan" data-mushaf="douri" data-slot="235.7143 10.2857 386.5714 79.7143" data-source-box="359 282 1359 398" data-source-file="douri.pdf" data-source-page="607" data-source-url="https://dn720805.ca.archive.org/0/items/douri-HD/douri-1.pdf" data-style="mushaf-douri" data-symmetry="4" data-variant="mono" viewBox="0 0 857.714 100"><metadata>{&quot;mushaf&quot;: &quot;douri&quot;, &quot;riwaya&quot;: &quot;al-Duri &apos;an Abi &apos;Amr&quot;, &quot;file&quot;: &quot;douri.pdf&quot;, &quot;sha256&quot;: &quot;918f24f92104407712224ebb0f3172f8c18f33dbddd1db85d16c3705e4644ea0&quot;, &quot;url&quot;: &quot;https://dn720805.ca.archive.org/0/items/douri-HD/douri-1.pdf&quot;, &quot;archive_item&quot;: &quot;douri-HD&quot;, &quot;archive_url&quot;: &quot;https://archive.org/details/douri-HD&quot;, &quot;pdf_page&quot;: 607, &quot;crop_box_px&quot;: [359, 282, 1359, 398], &quot;occurrence&quot;: 0, &quot;occurrences_on_page&quot;: 3, &quot;pipeline&quot;: &quot;quran-assets 3011d73&quot;, &quot;pipeline_sha256&quot;: &quot;cb8d14caa65815e6eb7c1ba1137bdbc9c5f4ed1c90b89aad7ee822a28981c3e2&quot;, &quot;extracted&quot;: &quot;2026-09-10T02:10:12+0300&quot;}</metadata><defs><g id="q-mushaf-douri-surah-header-mono" transform="scale(.2857)"><g fill="none" class="slot" data-part="slot"><path d="m1048.03 35.63 4.97-.02 5.45.03 5.79-.01 15.94.02 17.17.01 29.77.02q21.51.03 43.03.04 34.92 0 69.82.05l67.83.06 4.23.01 20.97.01q87 .05 174 .15v145H825c0-9 0-9 4-13q3.37-2.04 6.81-3.94c15.26-8.99 26.45-21.22 37.19-35.06 3.94-3.95 6.01-3.42 11.5-3.56 8.19-.23 8.19-.23 11.5-2.44l3.19-.81c8.01-2.5 13.61-7.74 19.81-13.19h2l2-4q1.97-2.3 4.06-4.5c3.28-3.56 6.2-7.18 9-11.13 10.99-14.89 22.25-27.31 41.65-26.9 7.54.93 13.09 4.39 19.29 8.53 3.35.19 3.35.19 7.19.12l3.85-.05L1011 71l.84-2.67c5.44-15.61 18.49-32.71 36.19-32.7"/></g><g fill="currentColor" class="ink" data-part="ink"><path d="m18.98 5.63 3.16-.01q5.31-.01 10.63.01l7.67-.01q10.64-.01 21.27.02 11.54.01 23.07-.01l40.49.01q30.1.02 60.21.02 50.63 0 101.26.03l100.32.03h31.57l70.69.01h3.25l211.05.07h3.41l156.73.04h10.17l67.42.01 140.53.03c128.64.02 257.28.06 425.12.12v12l-2.97.01-174.39.32-20.92.04-4.21.01-67.51.13-69.24.13-42.74.08q-14.65.02-29.29.06l-16.91.03q-9.17 0-18.32.03l-5.42.01-4.95.01-4.28.01c-19.25.65-31.59 12.85-41.85 28.13l-2 4c-5.98 2.46-11.4-.71-17-3l-1-1c-23.57-3.31-36.41 3.74-52.43 20.16-4.45 4.79-8.2 9.23-11.57 14.84-21.28 27.9-21.28 27.9-38.87 29.32-4.53-.35-7.95-1.62-12.13-3.32h-3l-1.28 2.53c-4.66 8.94-9.55 16.31-16.72 23.47l-3 5c-6.96 6.69-14.77 12.02-23 17 .38 2.94.38 2.94 1 6l2 1a127.6 127.6 0 0 0 44.21-39.68c4.05-5.23 7.83-4.48 14.1-4.5 19.16-.92 29.51-11.11 41.69-24.82l3-5c26.15-33.95 26.15-33.95 49.42-33.62 7.77 1.06 13.91 4.71 20.58 8.62 5.68 3 5.68 3 8 3l.79-2.61a54 54 0 0 1 4.65-9.57l1.81-3.11C1015 49 1015 49 1018 46l3-5c3.17-3.17 5.87-4.6 9.88-6.56l3.68-1.82c5.8-2.73 9.94-3.87 16.3-3.86l4.93-.02 5.43.02h5.75q7.92-.01 15.84.01h17.07l29.58.02 42.77.03 69.39.03 67.41.04h4.2l20.84.01q86.47.03 172.93.1v7h-2.98q-87.5-.01-174.99.08l-21 .02h-4.23q-33.86.04-67.73.02-34.74 0-69.49.05-21.44.04-42.88.01-14.7-.02-29.4.03-8.5.02-16.97 0-9.2-.02-18.4.03l-5.41-.04c-14.49.14-21.76 3.75-31.52 14.8-3.16 4.9-5.94 9.9-8.75 15-2.25 4-2.25 4-4.25 6-9.82.91-14.69-.8-23-6-4.5-2.25-7.19-2.36-12.19-2.43l-4.35-.13c-9.39 1.18-15.23 6.83-21.65 13.38l-4.04 4.08A134 134 0 0 0 934 93c-8.4 10.85-17.2 20.82-29 28l-3 2q-4 1.04-8 2l-1 1-3.36-.21c-12.2-.45-16.64 2.87-23.93 12.42L863 142c-9.36 11.37-19.85 19.39-32.86 26.23-5.87 3.32-4.26 4.86-5.14 12.77h-48l-1-2h-6v2H6C6 5.63 6 5.63 18.98 5.63M52 46c-2.32 4.65-1.49 10.55.13 15.32 6.74 9.66 14.43 10.16 25.43 11.02C82 73 82 73 86 76q2.07 4.47 4 9c2.7 4.94 4.46 6.74 10 8 1.95-1.95 1.46-5.84 1.69-8.43 1.56-12.76 8.28-23.1 19.65-29.43 6.92-3.15 13-4.82 20.66-5.14l4.06-.62C149 49 149 49 150 50l5.38.32c15.39 1.2 27.73 9.53 35.62 22.68 4 0 4 0 7-4 .32-7.1-5.17-11.71-10.33-15.89-13-9.42-25.74-13.64-41.67-13.54l-3.65-.07c-7.69.01-13.29 1.16-20.35 4.5l-3.68 1.48a79 79 0 0 0-10.38 5.96l-3.54 2.31a456 456 0 0 0-6.46 4.35c-5.96 3.86-9.93 5.32-17.13 5.28l-4.23.02C73 63 73 63 70 60l1-2.56c1.63-5.6 1.62-9.2-1-14.44-7.75-4.82-11.7-3.05-18 3m136-2c1 4 1 4 5 7 4.61.17 9.85.08 14-2 10.76-.24 10.76-.24 12 1l3.75.13c13.2 2.2 23.38 10.68 30.75 21.56 3.48 7.69 3.69 13.96 3.5 22.31 7.75-3.1 11.5-8.39 14.63-15.93C274 73 274 73 279 72h9c8.2-.29 13.19-4.58 18-11 2.8-5.6 2.9-9.01.31-14.75-3.9-5.48-6.66-6.25-13.31-6.25-6.88 4.94-6.88 4.94-7.19 10.32C286 54 286 54 288 59c-5.02 5.03-7.18 4.9-14 4.71-11.26-2-20.85-10.23-30-16.71-16.61-9.34-38.72-11.78-56-3m156 13-5 3q-2.88 2.59-5.62 5.32l-2.85 2.8c-5.92 6.77-6.76 13.15-5.53 21.88 3.36 9.29 9.73 17.22 19 21 3.95.44 3.95.44 8.13.44l4.19.06C360 111 360 111 364 107l-3.31-3.62C353.55 94.91 352.7 87.9 354 77c4.92-13.65 17.28-18.76 30-23q3.13-.3 6.25-.5c3.72-.25 7.32-.58 11-1.12C404 52 404 52 405 53l4.19.13c9.5 1.43 17.42 5.83 24.81 11.87l5 3 4 3h5c-3.87-15.5-17.53-24.19-31.5-29.81-23.85-6.29-54.49-2.2-72.5 15.81m125 10v4c6.71 0 7.49-.65 12.38-4.75 4.71-3.78 8.99-6.94 14.62-9.25l4.25-1.75c19.95-4.33 39.36-1.03 55.31 11.82 6.37 7.67 8.49 15.08 7.44 24.93-2.46 6.17-5.42 11.29-11 15 2 4 2 4 5 6 12.24 1.44 19.71-1.96 28.08-10.76 6.57-7.67 6.76-16.7 4.92-26.24-4.89-8.4-12.68-16.01-21-21l-10.43-6.94c-3.52-2.03-6.65-3.07-10.57-4.06l-1-1q-2.99-.54-6-1c-5.89-.89-5.89-.89-7-2q-5.9-.22-11.81-.25l-3.3-.06c-20.98-.1-38.95 9.08-49.89 27.31m219-25q-3.18.92-6.37 1.82A37 37 0 0 0 668 51l-7 4-3.19 2.44C650.85 62.12 644.43 65 636 65c-3.87-1.5-3.87-1.5-7-3l.36-2.88.39-3.8.42-3.77c-.2-4.22-1.19-5.62-4.17-8.55-3.63-1.82-7.03-1.31-11-1-5.08 3.82-5.79 7.03-6.44 13.25.67 7.27 3.98 10.94 9.75 15.19 6.03 2.01 11.64 2.1 17.96 2.19C640 73 640 73 643 76a140 140 0 0 1 2.75 5.82c2.6 5.35 5.24 8.78 10.25 12.18h3l-.03-2.57c.31-12.01 4.18-23.85 14.03-31.43 10.42-6.55 19.84-9.49 32.25-9.25l3.22.02c4.68.05 8.93.31 13.53 1.23 3.31-1.75 3.31-1.75 6-4 0-3 0-3-2-5q-5.5-1.05-11-2l-1-1q-5.12-.17-10.25-.18l-5.7-.05C693 40 693 40 688 42m73-1q-3.46.66-6.94 1.25C740.11 44.99 727.88 52.83 719 64c-1.15 5.77-.76 6.01 3 10 4.83-1.2 5.17-2.22 7.81-6.25 3.27-4.67 6.23-7.8 11.19-10.75l2.69-1.62c18.37-7.63 37.07-6.37 54.12 3.37C806.68 65.63 812.67 72.66 814 84l1 1q.06 4.5 0 9c7.03-1.4 10.34-5.46 13.38-11.94l1.25-2.99C832 74 832 74 837 73l3.13.63c9.58.92 16.43-2.84 22.87-9.63 2.93-4.39 3.66-7.75 3-13-2.27-4.22-4.1-6.08-8-9-5.82-.64-8.87-.25-13 4-1.51 3.02-1.17 5.68-1 9l2 3v5c-12.86 4.29-20.59.23-31.56-6.75C772.39 29.62 772.39 29.62 761 41M159 66l5 7c4.36-1.45 5.61-4.18 8-8v-4c-8.05-4.83-7.91-2.08-13 5m585-4c.98 4.88 2.45 7.81 5 12 4-1 4-1 8-5-1.14-4.58-2.43-6.01-6-9-4 0-4 0-7 2M199 77c-.48 5.85-.27 8.85 4 13 3.74 2.5 4.74 1.94 9 1l5-1-.1 4.2-.09 5.49-.1 5.45c.35 5.82 1.63 8.67 6.42 12.11 6.95 3.14 12.72 3.34 19.87.75l1-5-4.06-1.12c-7.23-2.75-10.93-5.33-13.81-12.63C225 94 225 94 224.63 89c-.89-7.11-3.15-12.74-8.5-17.62-7.07-3.11-13.46-1.7-17.13 5.62m-61.31-.5c-3.11 6.45-4.56 13.13-4.94 20.25-1.17 6.62-5.26 10.59-10.75 14.25q-3.48 1.07-7 2l-1 4c7.38 3.69 12.21 4.27 19.81.82 5.2-3.49 7.07-5.94 7.49-12.24l-.11-4.89-.08-4.93L141 92c3-1 3-1 5 0 6.17 0 7.42-.37 12-4 1.92-3.83 1.26-7.83 1-12-7.37-7.37-14.01-7.39-21.31.5M695 78a69 69 0 0 0-4.5 18.94c-.77 6.28-2.69 9.97-8.17 13.28l-4.08 1.72-4.11 1.78L671 115c1 3 1 3 5 5 8.97.58 14.38.33 21.17-6.03 2.65-4.3 2.22-7.79 2.08-12.78l-.11-5.21L699 92l5.69.25c5.05.01 7.88-.22 11.31-4.25 1.82-3.63 1.32-7.03 1-11-2.81-4.59-4.52-4.93-9.87-5.68-6.28.84-8.15 1.76-12.13 6.68m63-3c-1.94 3.88-1.3 7.79-1 12 3.02 4.35 5.71 5.89 11 6l5-2c2.84 2.85 1.35 12.3 1.43 16.17.74 6.25 2.17 8.31 7.38 11.61 5.61 2.15 11.28 2.02 17.19 1.22 3.38-2.5 3.38-2.5 5-5l-3.62-1.31c-9.23-3.56-14.44-6.77-17.38-16.69l-.37-5.37c-.84-7.52-3.25-13.25-8.63-18.63-6.32-1.3-10.34-1.18-16 2M315 86c-4.74 5.17-7.76 10.85-11 17a91 91 0 0 1-6.31 10.13C296 116 296 116 297 121c3.87 6.23 6.97 9.76 14.63 10.38C316 131 316 131 319 128c-1-3-1-3-4.81-6.25-6.08-5.44-8.86-9.48-8.19-17.75 4 1 4 1 5.69 5.07 3.27 6.98 7.44 12.23 15.44 13.68 4.31-.83 7.24-2.32 10.87-4.75-1-4-1-4-5.12-7.5A42 42 0 0 1 319 87zm283 0c-1.54 3.44-2.92 6.61-3.69 10.32-2.89 8.14-9.07 14.16-16.31 18.68 1 4 1 4 6 7 6.44 1.56 9.75 1.08 15-3 3.69-4.87 6.17-9.21 8-15l3-2c-1.28-4.57-3-7.7-6-11.37l-2.12-2.65C600 86 600 86 598 86m114.94 10.57C709 99 709 99 707.94 101.5c.25 14.29.25 14.29 3.06 18.5l.88 3.13c4.71 16.24 16.15 30.9 31.12 38.87l4.38 2.57c9.2 4.84 17.38 6.01 27.62 6.43l1-3c-3.62-4.09-6.48-5.84-11.69-7.43-21.18-7.17-35.46-23.38-42.93-44.07-1.48-5.91-1.87-11.4-2.07-17.47L719 96c-2-1-2-1-6.06.57M198 96l-.44 3.94C197 104 197 104 196 105l-.31 4.44c-1.21 9.82-5.56 17.32-10.69 25.56l-2 4 7 6c5.2-3.12 6.35-4.63 9.19-9.75l2.04-3.61A56 56 0 0 0 205 121l1-1q.6-4.37 1.06-8.75l.54-4.86c.4-4.39.4-4.39.4-9.39zm-50 4c-3.25 19.3 7.43 37.08 20.35 50.45C175.16 157 182.56 161 191 165l4 2q4 1.02 8 2l1 1c14.19 2.1 31.44 3.16 45-2l2.94-1.01A110 110 0 0 0 285 148c-1.06-5.32-2.45-7.08-6-11-3.84 2.11-6.88 3.89-10 7a114 114 0 0 1-5.81 3l-3.08 1.5L257 150l-3.08 1.62c-3.85 1.82-7.77 2.52-11.92 3.38l-1 1-10 1-1 1c-10.78.54-20.8.7-31-3l-2.87-.96c-18.05-6.61-30.53-20.43-35.75-38.72-1.48-6.1-2.01-12.06-2.38-18.32-6 0-6 0-10 3m610-3c-2 2.01-1.23 6.31-1.31 8.94-.67 12.1-4.99 23.37-13.69 32.06 1 4 1 4 5 8 8.55-1.71 11.24-8.57 15-16q1.58-4.47 3-9l1-1c1.27-6.34 1.21-12.56 1-19-2.91-2.91-6.03-3.18-10-4m-146 10-1.03 2.35c-2.56 5.51-4.91 9.99-9.41 14.15L598 127l1 4c6.16 2.06 9.42 1.35 15-2 3-3 3-3 5-7l3-2a62 62 0 0 0-7-13zM79 118v5l5-1c-4-4-4-4-5-4m-9 3v6l3 2c1-5 1-5-1-8zm213 10c1.1 4.4 1.98 5.33 5.25 8.25l2.33 2.14C293 143 293 143 298 143c3.31-2 3.31-2 6-4-1-4-1-4-3.75-5.75-4.04-2.8-5.79-6.04-8.25-10.25-2.97 0-7.21 6.04-9 8m341-8-5 8c-3.31 3-3.31 3-6 5 1 5 1 5 4 7 7.06.8 7.06.8 10.81-2.37L630 138c3-2 3-2 6-2-1 5-1 5-5 9 1.91 9.55 13.86 13.79 22.16 17.82 3.85 1.6 7.75 2.44 11.84 3.18l1 1q4.25.56 8.5 1c8.39.89 8.39.89 9.5 2q3.22.14 6.44.13l3.56.01c3-.14 3-.14 5-1.14q4.5-.48 9-.87c18.51-1.88 18.51-1.88 22-7.13-3.28-4.54-5.2-7-11-7l-4 2c-7.38 1.93-19.75 4.63-27 1l-5.75-.75c-15.11-2.27-28.31-8.62-39.97-18.38C640 136 640 136 636.25 133.5c-3.9-3-6.32-6.57-9.25-10.5zM75 136c-.19 4.25-.19 4.25 1 8l4 2 1.13-3.18c2.06-4.19 4.28-5.95 7.87-8.82v-3c-6.73-1.92-9.55-.28-14 5m22-5c1.23 4.93 3.15 5.87 7 9l1 3c-3 3-3 3-8 6 1 5 1 5 4 7 4.3.56 6.28.51 9.88-2 2.7-3.81 3.12-6.35 3.12-11-4.79-7.98-7.67-10.47-17-12m-16 17c1.32 5.26 3.76 6.78 8 10h3c0-5 0-5-1-9q1.48-3.01 3-6l-1-3c-5.37 0-8.36 4.36-12 8m77.38 8.88c-8.37 3.31-15.19 4.42-24.19 4.31h-3.18c-7.73-.05-7.73-.05-10.01-1.19-8.29-.35-8.29-.35-13 2q-3.98.6-8 1c4.27 3.2 7.96 4.4 13 6l1 1c13.82 2.01 30.94 3.23 44-2l2.94-.93A66 66 0 0 0 170 163c-1.15-4.59-2.25-5.37-6-8-1.97 0-3.79 1.14-5.62 1.88"/><path d="M379 47c-1.42 5.67-4.12 5.96-9.25 8.5-5.03 2.51-9.45 4.88-13.75 8.5l-5 3c-5.92 5.92-7.97 11.24-8.06 19.62 1.1 5.57 2.95 8.72 6.06 13.38-1 4-1 4-3 5-6.48-3.89-9.33-10.83-10.49-18.04-.58-12.94 6.38-21.89 16.05-29.46 8.02-5.87 17.23-12.54 27.44-10.5m174.69 5.12c12.02 6.84 24.55 14.93 26.9 29.59.36 8.94-1.16 14.2-6.59 21.29l-4 3-4-2c3.75-7.62 3.75-7.62 6-11 2.56-6.94 1.89-11.22-1-18-4.92-6.96-10.31-11.26-18-15l-3.56-2.12C546 56 546 56 541.62 54.57L538 53l-1-5c5.41-2.7 11.87 1.63 16.69 4.12"/></g></g></defs><use href="#q-mushaf-douri-surah-header-mono"/><use href="#q-mushaf-douri-surah-header-mono" transform="matrix(-1 0 0 1 857.714 0)"/><use href="#q-mushaf-douri-surah-header-mono" transform="matrix(1 0 0 -1 0 100)"/><use href="#q-mushaf-douri-surah-header-mono" transform="rotate(180 428.857 50)"/></svg>