<svg xmlns="http://www.w3.org/2000/svg" data-asset="ayah-marker" data-lineage="scan" data-mushaf="sousi" data-slot="13.7324 32.7465 49.6479 34.8592" data-source-box="181 1806 254 1895" data-source-file="sousi.pdf" data-source-page="300" data-source-url="https://ia600502.us.archive.org/27/items/Susi-HD/sousi-1.pdf" data-style="mushaf-sousi" data-symmetry="2" data-variant="mono" viewBox="0 0 77.113 100"><metadata>{&quot;mushaf&quot;: &quot;sousi&quot;, &quot;riwaya&quot;: &quot;al-Susi &apos;an Abi &apos;Amr&quot;, &quot;file&quot;: &quot;sousi.pdf&quot;, &quot;sha256&quot;: &quot;265b50e718bedec3df1a9ece77480baeec22f73137fa3a01ab6efc071a65005a&quot;, &quot;url&quot;: &quot;https://ia600502.us.archive.org/27/items/Susi-HD/sousi-1.pdf&quot;, &quot;archive_item&quot;: &quot;Susi-HD&quot;, &quot;archive_url&quot;: &quot;https://archive.org/details/Susi-HD&quot;, &quot;pdf_page&quot;: 300, &quot;crop_box_px&quot;: [181, 1806, 254, 1895], &quot;occurrence&quot;: 0, &quot;occurrences_on_page&quot;: 5, &quot;pipeline&quot;: &quot;quran-assets 3011d73&quot;, &quot;pipeline_sha256&quot;: &quot;cb8d14caa65815e6eb7c1ba1137bdbc9c5f4ed1c90b89aad7ee822a28981c3e2&quot;, &quot;extracted&quot;: &quot;2026-09-10T02:05:56+0300&quot;}</metadata><defs><g id="q-mushaf-sousi-ayah-marker-mono" transform="scale(.1761)"><g fill="none" class="slot" data-part="slot"><path d="M225 187v196c-13 0-13 0-17-5-4.43-.58-4.43-.58-9.88-.53l-5.92-.02-6.2.05q-6.06.05-12.12.03l-5.45.05c-5.13-.67-5.68-1.47-8.43-5.58-4.66-.53-4.66-.53-10.06-.5s-5.41.03-9.94-.5l-3-5c-3.25-.57-3.25-.57-7-.56-6.68-.01-6.68-.01-10-4.44l-4.44-.44c-5.28-.65-5.82-1.25-8.56-5.56a74 74 0 0 0-7.5-7 81 81 0 0 1-7.5-7l-1-1-.25-3.81C90 332 90 332 87.5 330.12c-3.87-3.28-3.01-7.24-3.5-12.12l-2.49-1.94c-4.53-3.72-3.22-9.97-3.17-15.44l-.02-3.98q0-4.18.03-8.36.02-6.4-.03-12.8l.02-8.1-.03-3.88c.09-6.91.27-9.4 5.69-13.5l.5-4c.62-4.94 1.8-5.04 5.5-8l.5-4c.61-4.87 1.53-5.39 5.5-8a74 74 0 0 0 7-7.5 81 81 0 0 1 7-7.5l1-1 4.38-.31C120 209 120 209 123 205l3.94-.44c4.06-.56 4.06-.56 5.94-3.06 4.12-4.86 12.69-3.03 18.72-2.95 9.05-.05 9.05-.05 11.15-3.05 3.55-3.95 6.97-3.08 12.13-3.03l5.92-.02 9.32.08q4.5.02 9 0l5.45.05c4.43-.58 4.43-.58 6.3-3.11C213 187 213 187 225 187"/></g><g fill="currentColor" class="ink" data-part="ink"><path d="M225 58v129l-12 1a120 120 0 0 0-4 5c-4.43.58-4.43.58-9.88.53l-5.92.02-9.32-.08q-4.5-.02-9 0l-5.45-.05c-5.18.68-5.58 1.51-8.43 5.58-5.6.5-10.99.53-16.6.45-6.91.04-9.31.12-13.4 5.55q-4 .55-8 1l-3 4-4.44.44c-5.28.65-5.82 1.25-8.56 5.56a295 295 0 0 1-5 5l-2.5 2.56C97 226 97 226 94.25 227.81 92 230 92 230 91.5 234c-.62 4.94-1.8 5.04-5.5 8l-.5 4c-.5 4-.5 4-2.99 5.88-4.5 3.8-3.22 9.99-3.17 15.5l-.02 3.98q0 4.18.03 8.36.02 6.4-.03 12.8l.02 8.1-.03 3.88c.09 6.97.33 9.32 5.69 13.5l1 10q2.44 2.08 5 4l1 8a23 23 0 0 0 5 4q2.53 2.47 5 5l2.56 2.5c2.44 2.5 2.44 2.5 4.19 5.25 3.32 3.32 6.7 2.8 11.25 3.25l3 4c3.62.48 7.1.44 10.75.43C137 365 137 365 140 370c5.15.6 10.16.5 15.34.47 4.66.53 4.66.53 6.33 3.03 3.64 3.91 7 3.08 12.21 3.03l5.92.02 6.2-.05q6.06-.05 12.12-.03l5.45-.05C208 377 208 377 212 382l13 1v93c-18.88 0-18.88 0-25-6-5-3-5-3-9-2l-2 1c-9.76 1.47-18.36-4.36-25-11l-7-2c-2.62-1.94-2.62-1.94-5-4l-5-3c-5.92-4.41-11.06-9.46-13-16.75-1.35-4.38-3.05-4.99-7-7.25q-2.55-1.76-5.06-3.56c-3.26-2.32-6.5-4.37-9.94-6.44l-2-4q-2.46-2.05-5-4a295 295 0 0 1-5-5l-2.38-2.25c-5.18-5.43-9.5-11.49-13.62-17.75l-2-2-.88-3.88C80 372 80 372 76 368l-2-8-4-4c-.25-3-.5-6.01-.53-9.03C69 344 69 344 67.03 341.76c-3.04-4.13-2.74-7.95-3.03-13.01-.57-9.86-.57-9.86-3.01-14.86-2.29-5.62-2.57-10.49-2.52-16.46l-.01-3.27q-.01-3.42.02-6.82.02-5.2-.03-10.39l.02-6.65-.03-3.11c.09-6.26 1.2-9.97 4.56-15.19.69-5.21.69-5.21 1-10.94.41-7.51 1.37-12.48 5-19.06l1-5.06c.99-4.89 2.43-7.74 5-11.94l1.56-4.19C78 197 78 197 81 193l1.44-3.5C84 186 84 186 88 182l3-5a43 43 0 0 1 8-7l1-3.56A25.7 25.7 0 0 1 117 152l4-5c4.77-3.85 9.25-5.96 15-8 5-3 5-3 8-6v-3.44c0-3.56 0-3.56 3-7.56l1.25-4.25c2.56-6.95 6.07-11.47 12.81-14.69 5.16-2.7 6.92-6.16 9.94-11.06a69 69 0 0 1 16-13l2-2 3.38-.25c4.78-.99 5.33-2.56 7.62-6.75 2.81-4.68 5.3-7.2 10-10 3-2 3-2 15-2m-72 86-4.81 1.56C144 147 144 147 141 150l-3.81.88c-4.61 1.23-6.7 2.95-10.19 6.12l-4 2-2.25 2.25C118 164 118 164 113.88 167c-3.88 3-3.88 3-6.88 8-2.54 3.24-4.57 5.71-8 8l-1.44 3.38C96 190 96 190 92 194q-1.02 3.5-2 7l-4 5q-1.05 3.49-2 7l-2.12 4c-1.93 4.11-2.25 6.54-1.88 11 4.05-1.35 4.74-3.44 7-7a44 44 0 0 1 9-9l4-4c8.66-6.79 16.68-11.39 27-15l3-2 5.81-.38c5.21-.33 8.05-1.31 12.19-4.62l4-1c-1.09-5.47-1.56-6.11-6-9-6.06-1.51-11.25-1.62-17 1a58 58 0 0 0-7 7.5c-5.14 6.42-9.61 10.69-18 11.5 4.75-12.67 4.75-12.67 10-17l2.31-2.38c6.36-6.2 11.1-10.06 19.69-12.62l3-3 6-3 3-3c2.99-.22 5.99-.44 8.99-.5 3.01-.5 3.01-.5 5.3-2.5 4-2.95 7.31-2.53 12.21-2.5l5.03-.03c4.71.56 6.2 1.26 9.47 4.53l3.06 2c5.41 3.68 7.74 6.67 8.94 13-.51 5.51-.51 5.51-2 7h-6l-4-9c-5 1-5 1-8 5-.39 4.99-.26 7.48 2 12 3.14 1.57 6.2 1.21 9.69 1.25l4.2.08c4.42-.35 7.29-1.09 11.11-3.33 4.05-10.55 3.87-20.22-2-30a45 45 0 0 0-11-9l-3-3c-5.03-.66-10.12-.46-15.19-.44l-4.23-.06c-7.62.01-12.96.36-19.58 4.5m7 21-1 4 4 1 1-4zM79 341c.3 4.37.54 7.32 3 11 2 3 2 3 2.44 7.12.69 4.79 1.86 5.06 5.56 7.88q1.52 4 3 8c2.19 3.45 4.59 6.69 7 10l3 5q2.43 2.56 5 5a108 108 0 0 1 9 10c6.16 6.46 6.16 6.46 11 7.88 3 1.12 3 1.12 6 5.12q2.99 1.05 6 2l3 3c3 1 3 1 8 1.25 4.69.36 6.68 1.09 11.12 3.31 7.2 3.59 15.02 3.4 22.88 2.44l5-3 5-1.88c4.63-1.96 6.83-3.36 10-7.12l2-2c2.94-10.04 3.79-18.18 0-28-7.62-4.57-13.14-4.82-22.06-3.31C182 386 182 386 180 391c-.38 3.62-.38 3.62 0 7 4 3 4 3 9 2 1.97-1.97 1.66-5.35 2-8l5-1c3.79 4.7 4.57 7.14 3 13-1.82 4.65-3.68 7.43-8 10l-10 2-3.25 2.19c-3.51 2.31-4.83 2.15-8.75.81l-2.38-2.06c-3.62-2.68-6.18-2.07-10.62-1.94-7.39-1.39-7.39-1.39-11-5l-2.88-1.44C139 407 139 407 136.69 404.94 134 403 134 403 129.62 402.12c-5.4-1.31-7.69-3.26-11.62-7.12l-2.56-2.44c-11.2-11.77-11.2-11.77-9.44-20.56l6-1v-4l-2.69-1.31C98.9 360.38 90.31 355.21 86 344c-3-3-3-3-7-3m36 32c.22 5.79 1.24 7.79 6 11l4 4 5 3 4 3c6.24.92 8.49-.87 13-5a96 96 0 0 1 6-3l-1-5c-6.26-2.49-12.25-2.29-18.91-2.36-4.82-.75-6.57-2.38-10.09-5.64-6.51-1.49-6.51-1.49-8 0m44 27v4c3 1 3 1 5 0l-1-4z"/></g></g></defs><use href="#q-mushaf-sousi-ayah-marker-mono"/><use href="#q-mushaf-sousi-ayah-marker-mono" transform="matrix(-1 0 0 1 77.113 0)"/></svg>